<svg width="260" height="481" viewBox="0 0 260 481" fill="none" xmlns="http://www.w3.org/2000/svg">
<path d="M54.5509 360.791C54.7821 360.078 55.0357 359.37 55.332 358.681C57.0518 354.551 59.906 351.363 62.3714 347.715C63.1072 346.623 61.9724 344.9 60.7083 345.832C58.2515 347.629 56.2452 350.049 54.6761 352.798C52.0552 343.761 43.8336 335.365 34.0707 337.403C33.1229 337.604 32.3987 338.396 32.7596 339.422C35.8356 348.395 42.6364 355.642 51.8234 358.387C51.9672 358.427 52.0861 358.415 52.1958 358.389C51.8919 359.298 51.6419 360.228 51.4053 361.149C36.5081 352.627 17.9064 359.153 12.0788 375.539C6.61484 390.888 16.4446 407.472 31.6206 412.145C46.61 416.759 63.6828 408.259 70.2344 394.274C76.5622 380.723 70.9236 362.351 54.5509 360.791ZM52.3142 356.874C51.7921 356.621 51.3081 356.353 50.8016 356.08C49.8515 354.125 48.2007 352.419 46.8619 350.727C45.2336 348.664 43.6144 346.614 41.9571 344.581C41.4665 343.985 40.4832 344.61 40.9517 345.26C42.4481 347.402 43.9736 349.515 45.508 351.642C45.9856 352.305 46.4544 353.013 46.9345 353.724C42.1478 350.339 38.4605 345.85 36.2893 340.209C40.7914 340.067 44.7987 342.241 47.6531 345.916C50.2586 349.252 51.12 353.17 52.6914 356.912C52.665 356.988 52.6273 357.063 52.6009 357.139C52.5397 357.034 52.4537 356.936 52.3142 356.874ZM64.6484 396.886C57.3995 407.369 43.102 412.969 30.8672 408.271C19.3386 403.837 11.6076 391.341 14.5687 379.05C18.5077 362.73 36.2004 356.506 50.6891 362.863C50.8083 362.91 50.9094 362.929 51.0127 362.938C50.4537 365.766 50.1932 368.617 50.3129 371.25C50.3705 372.578 52.6289 372.771 52.71 371.388C52.8494 368.921 53.146 366.485 53.6673 364.092C70.3382 365.978 72.9178 384.923 64.6484 396.886Z" fill="#173B1A"/>
<path d="M48.9828 429.184C48.3801 423.929 35.8063 422.789 32.0604 423.66C31.8408 423.711 31.6778 423.831 31.526 423.953C31.4673 423.895 31.4129 423.815 31.343 423.755C26.728 419.482 17.5265 424.821 13.9535 428.232C12.2807 429.83 10.5262 431.612 11.2596 434.084C11.3396 434.333 11.4534 434.588 11.556 434.841C6.31116 436.774 1.01432 444.034 5.91258 448.407C3.72442 455.138 6.58082 463.079 13.0899 466.354C15.2461 467.436 18.4873 468.028 19.7629 465.35C20.3962 464.004 20.006 462.228 19.9052 460.821C19.72 458.467 19.4942 456.442 20.0394 454.287C22.7235 454.026 23.7769 451.713 26.3616 450.279C28.9642 451.342 31.5924 451.128 33.4611 447.854C33.5144 447.759 33.543 447.672 33.5492 447.58C34.0995 447.686 34.6951 447.498 34.9342 446.985C36.3386 448.038 38.3792 447.85 39.9639 446.525C40.7407 445.883 41.3457 445.045 41.8942 444.137C46.8884 444.824 46.4195 454.894 50.5228 456.993C53.3319 458.434 55.2531 454.949 56.1357 452.918C59.5437 445.001 57.3738 433.092 48.9828 429.184ZM16.7087 456.987C16.7306 459.403 18.847 465.266 14.1057 463.754C8.86082 462.075 6.69719 454.409 7.24485 449.411C10.1018 451.327 13.7022 453.014 17.055 453.873C16.8076 454.85 16.6949 455.854 16.7087 456.987ZM22.6081 450.286C21.7723 450.812 20.9777 451.124 20.2136 451.28C19.6223 450.722 18.5983 450.594 18.0846 451.322C16.6339 451.111 15.223 450.454 13.6662 449.768C12.4422 449.228 11.2538 448.625 10.0875 447.968C8.39658 447.012 6.80482 444.338 7.23156 442.254C7.68003 440.057 10.8122 438.262 12.5328 436.777C14.2687 439.549 17.0768 442.26 18.8891 444.335C20.2247 445.863 22.1888 447.817 24.3131 449.183C23.7653 449.485 23.2584 449.876 22.6081 450.286ZM32.3651 446.232C32.3756 446.479 32.4398 446.689 32.5441 446.872C32.5039 446.9 32.4546 446.913 32.4122 446.952C27.1378 451.687 21.4325 443.114 18.681 439.75C16.7277 437.379 13.2584 434.413 15.2326 430.775C16.122 429.129 19.0136 427.614 20.5277 426.835C22.1178 426.024 24.9072 424.677 26.8358 424.887C31.5597 425.405 31.8149 429.987 32.0607 433.414C32.3565 437.666 32.2689 441.972 32.3651 446.232ZM35.0418 445.165C35.1261 439.612 35.987 431.249 33.1188 426.079C34.9249 426.079 36.7307 426.021 38.5274 426.31C40.0524 426.559 41.6212 427.002 43.0563 427.594C44.7951 428.304 45.9383 428.478 45.8441 430.29C45.7163 432.817 43.174 436.019 42.0255 438.22C41.2495 439.701 38.2868 447.424 35.0418 445.165ZM54.1392 450.107C53.7809 451.297 53.3056 452.428 52.6864 453.52C51.539 454.452 50.8792 454.068 50.6803 452.386C48.5009 450.1 47.0089 442.214 42.6992 442.627C43.0938 441.853 43.4546 441.072 43.8361 440.365C45.3175 437.587 47.1642 434.728 48.4025 431.822C51.2953 435.178 54.012 437.999 54.706 442.783C55.051 445.215 54.8536 447.74 54.1392 450.107Z" fill="#173B1A"/>
<path d="M146.006 510.079C150.335 500.954 154.612 492.343 154.702 482.06C154.713 480.5 153.147 480.162 152.083 480.784C152.266 480.015 152.367 479.196 152.328 478.314C155.45 483.556 163.389 482.272 164.778 476.179C166.215 469.897 160.991 466.241 155.629 466.194C159.082 460.814 161.137 453.323 154.584 449.433C151.355 447.515 146.97 448.799 145.139 451.637C143.944 449.017 142.859 445.953 140.073 445.6C136.011 445.093 132.909 450.704 131.181 454.518C128.012 451.201 123.813 448.151 119.13 449.89C115.829 451.116 113.73 454.252 114.361 457.555C112.837 457.726 111.327 458.122 109.899 458.754C108.925 451.866 101.186 448.806 95.8533 453.601C95.5735 449.025 91.6723 445.159 86.6575 445.121C78.479 445.053 74.5036 452.289 73.7046 459.429C68.1973 455.613 60.1713 456.624 57.5803 463.871C57.1503 465.07 57.2565 467.712 57.8189 470.105C53.6145 468.347 48.6008 468.123 45.0741 471.414C42.4286 473.885 41.4244 477.629 42.515 480.905C39.1434 480.986 35.704 482.08 34.44 485.541C33.606 487.803 34.0916 490.472 35.8035 491.922C32.1609 494.247 29.6542 499.192 32.8836 502.917C35.1706 505.55 38.9518 505.641 41.4466 503.828C44.3338 511.308 55.4369 511.557 58.1119 503.033C58.3677 503.397 58.6794 503.714 58.9776 504.039C58.1449 503.645 57.049 504.552 57.6653 505.522C69.357 523.864 84.8789 536.143 102.272 548.75C106.921 552.12 111.378 555.767 114.534 560.654C117.225 564.811 118.462 569.618 120.869 573.917C123.937 579.382 129.445 584.817 136.274 583.61C154.468 580.396 141.04 555.25 139.484 545.65C137.423 532.993 140.614 521.445 146.006 510.079ZM119.324 453.225C122.203 452.198 124.608 452.593 126.518 454.408C128.14 455.479 129.351 456.867 130.648 458.295C131.253 458.96 132.616 458.664 132.927 457.839C134.316 454.215 137.727 446.16 141.946 450.67C142.961 451.752 143.492 453.16 144.274 454.418C144.258 455.044 144.352 455.703 144.583 456.377C145.024 457.709 146.685 457.192 146.873 456.04C147.014 455.915 147.127 455.751 147.185 455.576C151.158 450.938 153.951 450.779 155.542 455.142C156.143 456.61 156.152 458.068 155.567 459.528C155.003 462.682 153.285 464.878 151.164 467.229C150.154 468.35 151.383 470.068 152.776 469.615C155.902 468.577 160.171 468.914 161.646 472.613C163.428 477.071 156.933 481.734 153.912 476.628C153.42 475.799 152.531 476.058 152.131 476.68C152.048 476.267 151.955 475.842 151.818 475.407C151.287 473.697 148.744 474.614 149.217 476.326C151.63 485.171 139.138 488.545 136.74 479.621C136.393 478.342 134.279 478.492 134.116 479.812C133.507 484.949 128.325 486.254 125.065 483.712C127.197 481.608 127.704 478.024 125.154 474.943C128.015 472.444 129.018 467.744 126.929 463.786C124.935 459.998 121.407 457.998 117.599 457.564L119.324 453.225ZM132.204 508.783C124.196 515.483 120.324 500.623 117.117 494.013C118.163 493.609 119.137 492.912 119.962 491.837C121.489 489.848 121.77 487.491 120.957 485.492C121.697 485.461 122.383 485.29 123.014 485.04C126.593 489.065 132.94 488.359 135.604 483.806C136.616 485.318 137.958 486.335 139.438 486.936C139.362 487.026 139.268 487.09 139.199 487.205C135.535 493.499 138.016 503.918 132.204 508.783ZM57.1985 500.828C56.6105 500.796 55.9974 501.074 55.8112 501.795C53.822 509.124 44.0456 507.92 43.6157 500.507C43.5105 498.762 41.2544 498.92 40.7809 500.343C39.5546 504.091 33.876 501.943 34.2751 497.954C34.533 495.417 36.7348 493.734 38.8035 492.678C39.1637 492.503 39.2807 492.199 39.2473 491.89C39.3169 491.53 39.2136 491.161 38.8575 490.894C36.8495 489.468 36.2675 486.815 38.5464 484.914C40.0909 483.617 43.0245 483.811 44.8075 484.052C46.0223 484.217 47.2274 482.807 46.3589 481.695C43.7668 478.35 45.5662 473.688 49.3299 472.062C52.3954 470.733 55.8019 471.555 58.7624 472.816C59.7962 474.88 61.3502 475.822 63.3639 473.485C64.2837 472.404 62.7138 471.063 61.7192 472.048C60.0178 471.206 59.3613 469.902 59.7206 468.165C59.4122 466.568 59.6922 465.06 60.5697 463.657C63.7894 459.002 69.8307 458.493 73.7739 462.985C74.6438 463.969 76.2274 463.553 76.2118 462.128C76.1617 457.329 77.2057 452.055 81.6262 449.263C87.468 445.569 94.554 449.597 93.1143 456.555C92.8619 457.799 94.8162 458.539 95.2908 457.291C95.4784 456.802 95.5966 456.313 95.69 455.83C95.8582 455.804 96.0215 455.742 96.1665 455.596C101.951 451.052 105.749 452.684 107.559 460.492C107.482 461.549 108.486 462.326 109.46 461.745C112.675 459.827 116.359 459.154 119.974 460.704C120.866 461.273 121.772 461.832 122.664 462.401C127.288 466.687 125.838 470.508 118.345 473.882C116.761 473.517 116.389 475.857 117.875 476.308C119.799 476.902 121.531 476.806 123.013 476.254C121.514 478.34 120.023 480.441 118.524 482.528C116.988 481.858 116.076 483.919 117.396 484.803C120.056 488.219 119.144 489.861 114.659 489.738C111.976 491.736 109.659 491.486 107.723 488.967C107.031 488.39 105.873 488.714 105.715 489.651C104.936 494.219 101.418 496.137 98.1437 495.596C98.002 494.101 96.3488 493.793 95.4242 494.476C94.0249 493.518 92.8735 492.001 92.3578 489.909C92.1759 489.163 91.0592 489.273 90.8252 489.88C90.2958 489.184 89.022 489.625 89.4159 490.54C92.2218 497.235 83.6737 498.355 80.3219 495.504C77.7414 493.303 77.1653 490.138 77.0822 486.895C77.059 486.051 75.7702 485.545 75.2543 486.285C72.6236 490.064 66.6999 491.772 62.9491 488.273C59.1081 484.698 60.7847 479.045 63.8378 475.732C64.5175 474.99 63.5189 473.888 62.6921 474.427C57.8209 477.621 57.0755 485.086 61.0509 489.351C63.8111 492.308 67.7724 492.854 71.2629 491.676C71.3067 491.871 71.3864 492.061 71.5357 492.254C74.0945 495.65 74.0084 500.912 70.2462 503.493C66.4438 506.102 61.3123 504.258 58.9677 500.658C58.51 499.952 57.4818 500.207 57.1985 500.828ZM73.9508 490.612C73.8943 490.543 73.8291 490.518 73.7682 490.472C74.2331 490.177 74.691 489.858 75.1106 489.496C75.7328 494.65 78.8355 500.355 84.7039 499.836C88.4734 499.505 91.6055 496.266 91.5923 492.721C92.3569 494.43 93.5112 495.69 94.8696 496.559C95.1266 499.988 95.2085 503.418 94.8822 506.851C94.7033 508.739 94.4371 510.657 94.0426 512.515C93.3521 515.842 93.5216 516.41 89.8221 517.524C86.024 518.665 85.6334 517.914 82.8073 515.537C81.6953 514.6 80.6435 513.592 79.6207 512.555C77.2047 510.107 75.2024 507.447 73.2643 504.637C76.8359 500.993 77.3477 494.555 73.9508 490.612ZM141.824 573.055C138.958 575.343 136.078 577.641 133.2 579.927C130.436 579.276 128.262 577.865 126.678 575.694C121.439 569.891 120.219 561.44 115.151 555.355C110.347 549.59 103.886 545.589 97.7634 541.398C83.011 531.284 70.4746 518.872 59.6119 504.675C62.6892 507.379 67.3859 508.218 71.1089 506.2C74.7058 512.361 84.163 525.692 92.0392 522.264C95.2837 520.853 96.3673 517.241 97.0969 514.073C98.3178 508.727 98.6425 503.255 98.3101 497.808C102.026 498.294 106.028 496.341 107.612 491.952C109.631 493.321 112.105 494.383 114.459 494.442C117.719 501.564 119.454 516.5 130.57 513.734C141.33 511.062 138.286 496.082 142.389 488.789C142.635 488.359 142.642 487.964 142.561 487.599C145.882 487.717 149.271 486.101 151.048 483.24C150.009 500.774 136.764 514.722 135.259 532.376C134.648 539.506 135.386 546.651 137.453 553.495C138.582 557.233 140.316 560.796 141.296 564.586C141.864 566.829 142.842 570.805 141.824 573.055Z" fill="#173B1A"/>
<path d="M241.793 87.2333C234.614 74.5297 215.194 81.8531 205.236 86.7077C192.846 92.7464 182.292 102.182 175.439 114.116C175.778 108.029 175.592 97.4244 168.428 101.689C160.58 106.358 159.936 120.706 161.931 128.34C161.875 128.329 161.819 128.318 161.762 128.307C161.475 127.925 160.965 127.733 160.442 128.086C160.428 128.096 160.426 128.107 160.415 128.105C159.549 128.065 158.964 128.616 158.76 129.311C151.81 134.456 146.684 141.435 141.36 148.235C135.138 156.178 129.169 164.321 123.437 172.627C112.175 188.917 101.883 205.849 92.4544 223.262C91.9109 224.264 92.6182 225.426 93.6428 225.671C99.1747 226.952 102.475 222.964 106.469 219.484C111.263 215.308 115.968 211.045 120.578 206.67C131.84 195.985 142.521 184.687 152.581 172.86C157.274 167.336 161.825 161.703 166.236 155.95C169.43 151.791 174.122 146.814 174.864 141.353C174.934 140.807 174.965 140.289 174.968 139.788C181.132 144.547 191.326 146.787 197.545 142.409C199.879 140.764 201.338 138.04 200.071 135.254C199.245 133.44 197.574 132.441 195.704 131.869C208.052 130.984 219.98 126.371 229.668 118.458C238.349 111.352 248.374 98.8659 241.793 87.2333ZM168.681 146.81C166.925 150.945 162.656 155.059 159.86 158.608C153.766 166.319 147.407 173.828 140.811 181.116C134.558 188.017 128.076 194.721 121.392 201.199C118.049 204.444 114.659 207.634 111.21 210.765C108.24 213.464 102.076 220.871 96.8858 222.221C101.826 213.19 107.016 204.314 112.438 195.563C112.474 196.584 112.606 197.588 112.899 198.542C113.185 199.471 114.601 199.14 114.539 198.195C114.416 196.424 114.055 194.734 114.085 192.957C117.926 186.837 121.85 180.768 125.941 174.801C126.379 174.164 126.837 173.542 127.276 172.904C127.236 174.131 127.363 175.403 128.223 176.257C128.652 176.689 129.567 176.54 129.798 175.944C130.291 174.664 129.755 173.279 129.76 171.928C129.761 170.961 130.048 169.956 130.038 168.987C133.885 163.556 137.796 158.16 141.817 152.856C142.129 152.45 142.445 152.022 142.758 151.605C142.73 153.918 143.043 156.274 144.191 157.93C144.818 158.843 146.127 158.281 146.128 157.256C146.12 155.728 145.436 154.209 145.229 152.689C145.038 151.324 144.992 149.94 145.037 148.562C149.542 142.5 154.202 136.247 159.809 131.297C159.874 131.321 159.915 131.352 159.982 131.365C161.963 131.725 164.275 131.881 166.032 132.92C169.772 135.147 170.286 143.031 168.681 146.81ZM221.431 120.138C211.1 126.435 199.668 128.907 187.671 128.578C185.804 128.532 185.596 131.777 187.484 131.898C188.278 131.947 189.077 131.973 189.865 131.997C189.838 132.435 190.077 132.889 190.575 132.962C193.007 133.34 201.42 134.665 194.976 140.328C193.363 141.74 188.88 141.362 186.965 141.143C181.677 140.527 177.976 137.854 173.871 134.74C173.758 134.66 173.639 134.614 173.52 134.567C171.54 131.493 167.74 129.755 163.76 128.764C163.985 128.562 164.134 128.277 164.075 127.916C163.164 121.424 163.56 115.045 166.507 109.09C166.97 108.142 167.972 105.61 168.892 105.193L172.391 106.022C172.418 106.482 172.432 106.95 172.46 107.41C173.43 109.742 172.428 114.5 172.628 117.138C172.728 118.369 174.525 118.717 175.067 117.784C175.309 117.738 175.541 117.62 175.706 117.372C181.925 108.053 189.46 99.8866 198.942 93.8212C207.718 88.2134 230.327 76.753 238.509 88.1244C247.08 100.014 230.373 114.691 221.431 120.138Z" fill="#173B1A"/>
<path d="M314.926 385.89C316.162 377.273 314.033 368.227 310.213 360.508C308.272 356.566 305.804 352.64 302.231 349.967C297.405 346.365 290.536 346.457 286.463 341.731C285.903 341.075 285.073 341.089 284.473 341.416C280.768 340.512 277.639 346.747 275.522 349.017C268.858 356.175 263.393 363.461 261.41 373.285C258.318 388.662 266.121 404.761 281.532 409.665C297.961 414.907 312.63 401.91 314.926 385.89ZM291.257 407.702C276.266 409.299 264.081 395.312 263.667 381.191C263.424 372.812 266.538 364.489 271.385 357.748C272.599 356.049 280.971 345.305 284.57 343.928C287.222 346.9 290.254 348.034 294.043 349.467C302.349 352.612 306.658 358.887 309.515 367.061C314.831 382.283 310.721 405.631 291.257 407.702Z" fill="#173B1A"/>
<path d="M229.377 218.11C222.15 218.844 220.727 228.904 227.18 231.691C225.118 233.553 223.334 235.969 221.699 238.333C220.785 237.398 219.498 236.823 217.926 236.997C216.26 237.175 214.679 238.244 213.912 239.739C212.808 241.891 213.962 244.235 213.332 246.467C213.328 246.489 213.337 246.503 213.332 246.525C213.221 246.62 213.109 246.715 213.025 246.85C209.036 253.314 195.472 255.001 189.087 258.251C184.097 260.793 179.601 264.095 176.535 268.861C170.504 278.228 173.035 288.692 182.017 294.963C191.175 301.35 203.583 301.001 212.332 294.025C216.949 290.339 219.795 285.203 221.589 279.666C223.949 272.409 223.071 261.892 226.952 255.208C229.636 253.619 233.732 253.048 233.371 249.191C233.135 246.617 230.974 245.802 228.767 245.946C229.616 244.934 230.433 243.903 231.178 242.824C231.696 242.073 232.317 241.273 232.805 240.435C234.339 242.142 236.217 243.578 238.661 243.351C241.153 243.123 243.339 241.157 244.02 238.784C245.501 233.535 241.205 230.269 236.688 229.826C239.46 224.594 236.319 217.403 229.377 218.11ZM226.177 244.28C226.267 245.078 225.651 246.031 225.299 246.708C225.243 246.814 225.222 246.926 225.213 247.03C225.146 247.075 225.081 247.109 225.014 247.154C223.94 247.89 224.8 249.408 225.976 249.112C227.141 248.813 229.125 247.589 230.268 248.486C232.555 250.28 228.683 251.919 227.59 252.512C227.342 252.65 227.103 252.802 226.875 252.956C226.733 252.964 226.577 252.992 226.414 253.111C220.573 257.4 221.202 267.939 219.62 274.368C217.857 281.554 214.937 288.574 208.488 292.756C200.785 297.756 190.298 297.393 183.002 291.74C167.263 279.559 182.626 264.121 195.396 258.948C202.148 256.211 211.775 255.114 215.6 248.176C215.851 247.723 215.823 247.322 215.669 246.977C216.317 245.494 215.965 244.121 215.95 242.51C215.921 239.533 218.918 239.216 220.132 240.593C220.096 240.656 220.052 240.706 220.016 240.769C219.616 241.332 220.1 242.02 220.632 241.983C220.631 242.286 220.582 242.603 220.454 242.963C219.942 244.343 221.513 245.556 222.626 244.443C223.453 243.601 225.897 241.813 226.177 244.28ZM232.998 230.347C232.192 231.076 232.975 232.754 234.077 232.536C236.78 231.999 240.194 232.299 241.236 235.588C241.871 239.65 240.082 241.191 235.866 240.212C235.073 239.674 234.309 239.107 233.563 238.508C233.578 238.429 233.602 238.364 233.604 238.294C233.709 237.452 232.797 237.043 232.191 237.59C231.004 238.665 230.438 240.385 229.614 241.752C229.234 242.389 228.812 243.007 228.391 243.613C228.436 242.841 228.254 242.095 227.7 241.405C226.382 239.787 224.631 240.042 223.059 240.88C222.976 240.526 222.855 240.188 222.71 239.857C223.614 238.796 224.518 237.736 225.443 236.692C226.771 235.189 228.319 233.811 229.403 232.121C229.603 231.811 229.541 231.472 229.348 231.202C229.601 230.68 229.505 230.032 228.778 229.693C223.634 227.311 225.337 219.717 231.217 220.762C236.053 221.604 236.07 227.539 232.998 230.347Z" fill="#173B1A"/>
<path d="M136.288 383.926C136.284 383.89 136.264 383.874 136.259 383.838C137.725 379.333 135.67 374.717 131.398 372.108C127.573 369.771 122.711 369.786 118.497 368.621C111.541 366.692 105.822 363.01 99.6118 359.513C99.4339 359.408 99.2723 359.4 99.1267 359.431C94.3147 356.658 87.0996 358.898 84.3538 363.633C81.3771 368.778 84.0698 377.083 90.5219 377.341C87.7095 386.154 73.9321 395.269 76.2516 405.983C76.7691 408.367 77.3176 409.266 79.6155 410.398C83.9995 412.551 85.7205 410.764 91.0644 414.641C93.7622 416.596 95.83 419.339 98.5058 421.348C117.897 435.914 124.605 404.678 123.222 390.871C125.837 392.414 129.118 392.862 131.925 391.541C134.746 390.211 136.723 387.039 136.288 383.926ZM130.139 389.331C127.416 390.272 124.605 389.146 122.123 388.059C121.295 387.701 120.595 388.731 121.241 389.369C121.25 389.382 121.261 389.384 121.27 389.398C121.056 389.601 120.907 389.887 120.892 390.268C120.695 397.909 121.327 409.637 116.481 416.25C105.002 431.915 97.0211 413.183 87.8349 409.472C84.1708 407.993 80.4581 409.535 79.0602 404.115C78.0669 400.275 83.1986 393.508 85.3126 390.712C88.5993 386.373 91.7268 383.098 92.3313 377.505C92.3653 377.209 92.2809 376.983 92.1519 376.806C92.291 376.449 92.2211 376.027 91.8026 375.841C87.0961 373.789 84.0884 368.919 87.6893 364.22C91.2188 359.59 95.8673 361.34 100.431 362.747C100.617 362.807 100.797 362.783 100.951 362.708C104.461 365.706 108.522 367.844 112.931 369.443C121.265 372.442 134.807 371.952 134.218 383.245C134.026 383.453 133.9 383.743 133.92 384.12C134.003 386.583 132.472 388.536 130.139 389.331Z" fill="#173B1A"/>
<path d="M127.758 375.494C119.12 371.596 109.407 369.705 100.538 366.521C100.32 366.443 100.12 366.451 99.9341 366.509C97.2362 364.192 92.0432 363.269 89.8629 366.587C87.6492 369.957 90.5801 373.659 93.7544 375.019C94.7597 382.229 91.4733 386.988 87.0884 392.245C85.0396 394.703 82.123 397.611 81.2883 400.841C79.8515 406.459 84.7443 407.068 89.1693 407.866C93.9331 411.188 98.5154 414.906 103.398 417.855C106.497 419.725 109.458 420.018 112.183 417.376C119.391 410.416 119.401 394.769 119.285 385.553C119.268 384.559 117.634 384.453 117.521 385.456C116.525 394.457 117.151 405.194 112.517 413.363C108.465 420.514 101.799 413.712 97.2254 410.613C93.9808 408.412 90.6463 406.555 87.0271 405.086C84.4463 403.188 83.9339 400.537 86.5689 396.013C87.9985 393.563 90.4114 391.571 92.0142 389.19C94.9021 384.924 96.565 380.306 94.9681 375.371C95.1764 375.318 95.3319 375.056 95.1826 374.864C93.6677 372.998 89.5702 370.387 91.5922 367.586C93.8055 364.519 97.4976 367.599 100.001 368.269C100.035 368.276 100.062 368.258 100.095 368.264C104.161 370.438 108.779 371.623 113.169 372.962C117.757 374.362 122.349 375.985 127.066 376.898C129.012 377.74 130.014 379.368 129.749 381.519C129.538 383.214 128.396 386.524 126.249 386.178C123.662 385.759 121.493 383.358 118.76 383.634C118.464 383.658 118.253 384.025 118.447 384.284C119.877 386.169 123.288 387.33 125.502 387.991C127.507 388.589 128.987 388.048 130.052 386.215C131.85 383.067 132.827 375.973 127.758 375.494Z" fill="#173B1A"/>
<path d="M90.944 235.718C90.7491 235.4 90.4454 235.283 90.1516 235.296C86.042 228.955 79.1818 224.061 71.4203 223.946C67.4106 223.893 63.8679 224.617 59.8987 223.511C56.6487 222.602 53.8962 220.87 50.9295 219.34C46.9994 217.309 43.8049 215.934 39.4731 216.4C39.3832 216.383 39.2799 216.375 39.1723 216.389C37.0579 216.597 34.6489 218.869 34.1997 220.95C33.8117 222.774 34.627 224.342 36.2194 224.965C36.2622 225.346 36.5357 225.678 36.9951 225.592C38.3845 225.337 39.7421 225.367 41.0805 225.556C39.6391 245.167 41.9579 265.46 42.9194 285.059C42.9582 285.882 44.0433 286.477 44.731 285.934C60.0373 273.736 71.1499 255.751 82.9627 240.291C83.0979 240.375 83.2352 240.448 83.3703 240.533C83.3667 240.672 83.3989 240.806 83.5522 240.918C85.1845 242.177 87.3507 242.363 89.1003 241.211C90.6778 240.164 92.0498 237.47 90.944 235.718ZM42.6996 232.965C45.6477 231.881 48.5565 234.914 48.4827 237.825C48.3987 240.908 45.9347 241.9 43.4198 242.31C43.2208 239.184 42.9971 236.064 42.6996 232.965ZM44.673 273.408C44.6193 272 44.5656 270.591 44.5232 269.184C45.2445 269.009 46.0906 269.394 46.5142 270.036C47.0555 270.851 47.216 271.768 47.2802 272.701C46.4461 272.796 45.6103 272.96 44.8472 273.29C44.769 273.334 44.7266 273.372 44.673 273.408ZM67.7323 256.733C67.7142 256.706 67.7072 256.682 67.687 256.666C67.0344 256.004 66.3707 255.339 65.7181 254.677C65.3569 254.316 63.9166 253.268 64.0587 252.655C64.1373 252.309 64.8191 251.916 65.0463 251.646C65.093 251.585 65.1173 251.519 65.164 251.459C66.6528 252.376 68.0101 253.431 69.2764 254.655C68.758 255.347 68.2395 256.039 67.7323 256.733ZM70.3419 253.183C68.7575 251.676 67.0241 250.397 65.1103 249.327C64.6487 249.063 63.852 249.387 63.822 249.964C63.7448 251.265 61.759 251.592 62.2112 253.229C62.4384 254.042 63.283 254.555 63.8852 255.056C64.8888 255.892 65.8946 256.715 66.8983 257.55C66.9479 257.595 67.0018 257.617 67.0558 257.639C60.3765 266.624 53.3458 275.378 45.1204 282.537C44.9707 280.119 44.8681 277.699 44.7676 275.268C44.9814 275.367 45.235 275.381 45.5168 275.249C46.4139 274.829 47.269 274.505 48.2642 274.36C48.7193 274.296 49.1432 273.912 49.0772 273.41C48.833 271.661 48.4862 269.299 46.5996 268.631C45.9137 268.381 45.1659 268.272 44.5072 268.424C44.233 260.447 44.0216 252.448 43.5681 244.495C47.4775 245.006 50.9567 240.576 50.458 236.89C49.9804 233.337 46.0114 229.761 42.5565 231.598C42.3466 229.611 42.1367 227.624 41.8686 225.638C48.8504 227.013 55.2411 233.248 62.6784 233.895C66.2635 234.216 70.9848 232.881 74.3579 234.116C76.9058 235.04 78.8725 237.041 80.9721 238.775C77.3912 243.431 73.8946 248.312 70.3419 253.183ZM87.963 239.441C87.383 239.969 86.6239 240.219 85.8479 240.255C85.7844 240.161 85.7098 240.065 85.5837 239.994C84.8989 239.558 84.2855 239.055 83.7101 238.536C83.579 238.01 83.1344 237.597 82.638 237.513C81.001 235.856 79.5249 234.091 77.306 233.032C72.9111 230.935 67.5511 232.018 62.9163 231.401C54.0084 230.225 46.3578 220.926 37.162 223.947C36.0497 223.312 36.399 221.387 37.0109 220.573C37.8254 219.496 39.2344 219.139 40.022 218.08C40.1155 217.958 40.164 217.828 40.2013 217.695C48.1984 219.965 55.0333 226.193 63.3636 226.861C67.2651 227.174 71.087 225.909 74.9899 226.816C80.7554 228.153 84.8302 232.507 88.6882 236.656C88.8035 236.783 88.9205 236.841 89.051 236.89C89.0419 237.237 89.0328 237.585 88.9317 237.927C88.7604 238.511 88.4137 239.038 87.963 239.441Z" fill="#173B1A"/>
<path d="M62.0605 237.691C62.0489 237.269 61.7083 236.982 61.333 236.874C59.5707 236.346 57.654 235.894 55.8008 235.897C55.195 235.896 54.9226 236.461 54.9885 236.963C53.4998 238.935 54.788 242.214 57.2094 242.648C60.0148 243.144 62.1483 240.248 62.0605 237.691ZM57.6813 240.991C55.9759 240.953 55.4777 239.132 55.9044 237.769C57.3686 237.971 58.783 238.128 60.2211 238.465C60.0113 239.729 59.0277 241.019 57.6813 240.991Z" fill="#173B1A"/>
<path d="M75.7732 239.692C75.442 236.947 72.0506 234.24 69.3 235.328C69.0225 235.437 68.8648 235.71 68.8442 235.997C66.7707 236.295 65.2415 238.236 65.2165 240.352C65.1826 243.177 67.8953 244.995 70.5137 245.013C73.3655 245.029 76.1421 242.723 75.7732 239.692ZM70.5321 242.93C68.9709 242.99 67.305 242.085 67.0143 240.455C66.7237 238.826 67.9084 237.039 69.5721 236.872C69.6305 236.871 69.6504 236.829 69.6885 236.813C71.2464 237.312 72.941 237.407 73.5986 239.247C74.3386 241.325 72.4567 242.86 70.5321 242.93Z" fill="#173B1A"/>
<path d="M58.7041 246.608C58.2515 245.996 57.7914 245.604 57.0606 245.346C56.2218 245.044 55.6053 246.183 56.4314 246.611C56.6136 246.692 56.7556 246.801 56.8843 246.92C55.8705 247.702 54.9089 248.576 53.9405 249.426C53.4496 249.855 52.7996 250.685 52.2112 250.956C51.3276 251.368 50.7888 250.96 50.3747 250.391C52.4956 249.065 54.3473 247.384 55.9056 245.413C56.5845 244.554 55.3414 243.452 54.6197 244.291C52.8691 246.352 50.8351 247.951 48.4718 249.265C47.9888 249.533 47.9504 250.213 48.2066 250.635C49.1497 252.205 50.7309 253.909 52.7106 252.952C53.6881 252.477 54.5167 251.507 55.3065 250.797C56.4264 249.767 57.6318 248.777 58.6343 247.631C58.8748 247.351 58.9258 246.907 58.7041 246.608Z" fill="#173B1A"/>
<path d="M59.2958 259.505C58.0714 257.101 54.1884 255.067 51.7066 256.813C48.957 256.63 47.3732 260.239 47.8468 262.789C48.5175 266.368 52.0893 268.865 55.6443 267.596C58.8478 266.456 60.9219 262.663 59.2958 259.505ZM56.326 264.675C54.5518 266.196 52.1707 266.096 50.6895 264.237C50.0428 263.424 49.646 262.403 49.6014 261.369C49.5557 260.16 50.1365 258.665 51.2727 258.092C51.3926 258.255 51.5817 258.362 51.8596 258.311C53.682 258.046 55.29 257.926 56.7168 259.344C58.3241 260.913 57.9619 263.267 56.326 264.675Z" fill="#173B1A"/>
<path d="M261.874 307.96C261.109 304.747 259.122 303.512 257.81 300.777C255.424 295.829 258.626 292.766 257.794 288.154C255.79 276.953 237.272 275.944 232.696 285.499C232.616 285.67 232.573 285.837 232.576 286C225.709 291.978 224.362 304.057 228.716 311.728C233.972 320.995 248.678 326.894 258.02 319.985C261.788 317.196 262.945 312.421 261.874 307.96ZM249.453 320.18C240.844 320.833 232.067 315.243 229.438 306.974C226.483 297.674 231.826 290.237 237.765 283.812C237.926 283.645 237.853 283.421 237.713 283.301C244.512 278.452 255.496 282.932 254.894 292.848C254.737 295.463 253.541 297.247 254.446 299.916C255.308 302.506 257.846 304.268 258.878 306.821C261.642 313.672 256.219 319.66 249.453 320.18Z" fill="#173B1A"/>
<path d="M142.597 257.798C143.396 256.379 143.726 254.194 142.89 252.669C155.036 246.63 159.552 228.709 146.263 220.788C135.764 214.527 117.302 223.585 118.949 236.57C117.453 236.351 115.987 236.463 114.82 237.612C113.639 238.782 113.167 240.555 113.592 242.152C113.934 243.395 114.885 244.325 116.023 244.825C112.003 251.446 108.607 258.398 105.328 265.408C102.297 271.917 97.7426 279.437 96.5193 286.542C96.4631 286.892 96.6479 287.382 96.9631 287.56C101.361 290.065 106.778 283.446 109.96 281.033C118.624 274.436 126.717 267.24 134.473 259.617C135.323 260.282 136.391 260.664 137.553 260.679C139.609 260.715 141.587 259.583 142.597 257.798ZM117.31 272.376C114.437 274.756 103.926 285.12 101.147 283.522C98.3684 281.924 113.506 253.194 117.412 245.234C117.776 245.281 118.155 245.307 118.512 245.272C118.23 246.907 118.72 248.773 119.771 250.025C121.324 251.875 124.462 252.82 127 252.228C126.908 253.608 127.631 255.053 128.921 255.792C129.844 256.32 131.379 256.454 132.746 256.136C132.742 256.578 132.806 257.033 132.961 257.495C133.034 257.718 133.132 257.935 133.232 258.141C128.096 263.067 122.806 267.823 117.31 272.376ZM139 258.081C138.096 258.418 136.801 258.424 135.972 257.891C135.037 257.302 134.197 255.683 135.203 254.759C135.388 254.585 135.459 254.342 135.446 254.107C135.477 254.008 135.51 253.898 135.529 253.797C135.592 253.413 135.26 253.022 134.88 252.995C133.502 252.892 132.426 254.175 130.997 254.155C129.545 254.13 128.157 252.452 129.201 251.151C129.23 251.121 129.28 251.107 129.309 251.078C129.947 250.491 129.504 249.589 128.685 249.606C126.448 249.662 124.372 250.577 122.283 249.206C120.485 248.019 120.208 245.903 120.919 244.094C121.171 243.817 121.386 243.486 121.554 243.099C121.618 242.948 121.611 242.807 121.578 242.672C121.581 242.661 121.583 242.65 121.576 242.625C121.567 242.612 121.56 242.587 121.551 242.574C121.507 242.32 121.288 242.127 121.003 242.153C120.792 242.101 120.581 242.106 120.382 242.231C119.723 242.686 118.742 242.997 117.86 242.978C117.703 242.889 117.521 242.866 117.36 242.916C116.564 242.751 115.915 242.252 115.81 241.171C115.601 238.94 117.427 238.233 119.244 238.119C119.241 238.13 119.25 238.143 119.25 238.143C119.379 238.681 120.196 238.734 120.269 238.119C120.278 238.074 120.286 238.029 120.295 237.984C120.648 237.785 120.726 237.322 120.457 237.025C122.313 226.653 132.822 216.847 143.924 221.979C157.454 228.233 152.582 245.759 141.188 250.988C140.345 251.373 140.391 252.337 140.863 252.848C141.035 253.825 141.368 254.635 141.134 255.662C140.847 256.783 140.092 257.674 139 258.081Z" fill="#173B1A"/>
<path d="M109.245 276.664C109.852 275.337 109.832 273.632 109.913 272.191C109.995 270.68 109.972 269.173 109.866 267.672C109.822 266.941 108.563 266.942 108.556 267.698C108.564 269.226 108.499 270.764 108.356 272.286C108.226 273.682 107.817 275.13 107.932 276.527C108.006 277.228 108.995 277.233 109.245 276.664Z" fill="#173B1A"/>
<path d="M115.303 270.997C115.463 269.268 115.225 267.486 115.27 265.747C115.318 263.997 115.435 262.248 115.633 260.504C115.715 259.774 114.64 259.671 114.514 260.381C113.907 263.701 113.185 267.674 113.901 271.017C114.056 271.781 115.223 271.832 115.303 270.997Z" fill="#173B1A"/>
<path d="M122.1 265.135C122.446 262.207 122.301 259.161 122.309 256.226C122.317 255.342 120.977 255.164 120.918 256.073C120.743 259.081 120.415 262.163 120.579 265.166C120.643 266.041 122.009 265.968 122.1 265.135Z" fill="#173B1A"/>
<path d="M163.052 281.868C162.676 281.399 162.173 281.29 161.709 281.398C161.693 278.715 157.16 276.545 155.094 275.783C155.639 274.712 156.182 273.652 156.811 272.632C157.321 271.798 158.598 270.682 158.74 269.707C158.94 268.313 157.254 267.45 156.129 267.361C151.804 267.013 150.708 273.397 151.099 276.735C151.081 276.708 151.074 276.683 151.054 276.668C149.26 274.736 146.601 274.326 144.399 275.59C144.332 275.519 144.262 275.458 144.149 275.437C135.957 273.875 125.402 276.33 122.334 285.14C119.473 293.36 125.292 301.047 132.059 304.978C140.773 310.044 151.627 311.34 159.629 304.312C166.254 298.498 168.742 289.133 163.052 281.868ZM150.261 277.575C150.653 277.895 151.083 277.664 151.199 277.302C151.297 277.577 151.729 277.637 151.771 277.296C152.064 275.36 152.568 273.302 153.335 271.504C153.89 270.202 155.839 268.016 157.083 269.538C155.565 271.54 154.149 273.678 153.143 275.988C152.999 276.31 153.071 276.604 153.24 276.811C153.265 277.224 153.524 277.635 154.106 277.818C155.093 278.137 158.065 279.213 158.619 280.264C159.623 282.183 156.495 280.226 155.9 279.866C155.483 279.611 154.74 279.84 154.568 280.308C154.338 280.951 154.143 281.6 153.961 282.241C153.354 281.401 152.75 280.55 152.154 279.712C151.806 279.225 151.022 279.12 150.624 279.614C150.29 280.016 149.949 280.393 149.601 280.745C149.856 279.909 149.963 279.114 149.706 278.516C149.283 277.572 147.904 277.049 146.616 276.66C147.83 276.347 149.084 276.613 150.261 277.575ZM157.737 302.408C151.211 308.253 141.701 307.415 134.402 303.404C126.716 299.167 120.934 290.811 126.797 282.31C130.228 277.345 137.87 277.053 143.335 276.514C143.131 276.964 143.195 277.536 143.737 277.746C144.41 278.004 147.349 278.654 147.678 279.242C148.136 280.065 146.651 282.679 146.358 283.473C146.025 284.352 146.903 285.233 147.763 284.7C149.102 283.864 150.227 282.928 151.281 281.816L153.644 285.139C154.129 285.827 155.263 285.627 155.428 284.774C155.591 283.873 155.81 283.042 156.067 282.194C157.465 282.919 159.588 283.749 160.802 283.134C160.837 283.199 160.848 283.259 160.905 283.328C165.885 289.687 163.219 297.503 157.737 302.408Z" fill="#173B1A"/>
<path d="M252.459 79.6259C253.616 89.6613 254.538 99.2314 259.912 108.009C260.726 109.343 262.241 108.797 262.813 107.708C263.065 108.456 263.411 109.198 263.911 109.924C258.486 107.127 252.428 112.422 254.477 118.33C256.586 124.413 262.94 124.757 267.524 121.961C267.443 128.343 269.659 135.798 277.278 135.629C281.033 135.552 284.07 132.143 284.129 128.764C286.538 130.348 289.079 132.39 291.627 131.205C295.339 129.488 295.007 123.073 294.445 118.933C298.885 120.072 304.057 120.443 307.117 116.491C309.276 113.704 309.39 109.928 307.104 107.47C308.314 106.515 309.384 105.382 310.253 104.082C314.722 109.41 322.902 107.905 324.898 101.02C327.556 104.75 332.912 105.973 337.183 103.351C344.161 99.0848 343.708 90.8287 340.603 84.355C347.3 84.6722 353.577 79.5713 351.944 72.0541C351.674 70.8016 350.186 68.6143 348.445 66.8908C352.946 66.1538 357.315 63.6899 358.565 59.0377C359.499 55.5363 358.376 51.8233 355.724 49.6321C358.541 47.777 360.88 45.0252 360.131 41.431C359.643 39.076 357.817 37.0681 355.596 36.7432C357.459 32.8388 356.964 27.3248 352.259 25.8666C348.928 24.8374 345.666 26.7581 344.517 29.6237C338.111 24.795 328.555 30.4615 330.796 39.1102C330.387 38.9378 329.953 38.8306 329.533 38.7143C330.45 38.6121 330.899 37.2541 329.864 36.7625C310.241 27.3719 290.566 25.1726 269.145 23.6841C263.408 23.2847 257.702 22.5417 252.437 20.0662C247.95 17.9628 244.361 14.53 240.041 12.1675C234.552 9.15934 227.005 7.45416 221.842 12.0948C208.103 24.4444 232.811 38.6876 239.202 46.0069C247.613 55.6514 251.008 67.1334 252.459 79.6259ZM305.175 113.762C303.268 116.154 301.023 117.095 298.446 116.561C296.51 116.512 294.738 115.972 292.893 115.451C292.032 115.203 291.029 116.174 291.198 117.046C291.94 120.86 293.299 129.49 287.337 127.905C285.896 127.521 284.708 126.615 283.38 125.95C283.065 125.412 282.638 124.91 282.085 124.453C281.012 123.558 279.874 124.864 280.327 125.954C280.267 126.14 280.266 126.327 280.31 126.522C279.397 132.567 277.107 134.163 273.441 131.31C272.152 130.384 271.379 129.14 271.095 127.593C269.912 124.614 270.203 121.851 270.762 118.719C271.026 117.232 269.074 116.423 268.134 117.547C266.023 120.086 262.228 122.055 259.025 119.699C255.146 116.863 258.207 109.473 263.459 112.202C264.305 112.646 264.929 111.951 264.944 111.208C265.233 111.52 265.536 111.824 265.886 112.124C267.244 113.296 268.902 111.17 267.609 109.964C260.879 103.733 269.703 94.2658 276.455 100.56C277.432 101.471 279.143 100.218 278.572 99.0118C276.367 94.3319 280.072 90.4811 284.183 90.9154C283.48 93.8208 284.957 97.1479 288.746 98.4053C287.647 102.038 289.277 106.56 293.152 108.813C296.847 110.973 300.901 110.802 304.352 109.163L305.175 113.762ZM264.854 73.4369C268.102 63.5199 279.249 74.0784 285.473 77.9861C284.799 78.8811 284.341 79.9811 284.206 81.3416C283.954 83.8448 284.973 85.9879 286.708 87.2559C286.103 87.6748 285.608 88.1849 285.199 88.7349C280.029 87.2101 275.021 91.17 275.166 96.4417C273.506 95.6892 271.831 95.5516 270.255 95.8059C270.279 95.6824 270.321 95.5857 270.311 95.4556C270.104 88.1561 262.496 80.6245 264.854 73.4369ZM332.708 40.4939C333.215 40.2192 333.593 39.6514 333.382 38.9348C331.187 31.6701 340.125 27.5152 344.405 33.5755C345.413 34.9939 347.253 33.6721 346.894 32.216C345.957 28.3874 351.909 27.1971 353.681 30.8028C354.813 33.0842 353.831 35.6907 352.631 37.6726C352.425 38.0172 352.481 38.3309 352.666 38.5766C352.799 38.9168 353.074 39.1798 353.523 39.2084C355.976 39.3569 357.873 41.297 356.955 44.1141C356.327 46.0318 353.74 47.4188 352.093 48.1605C350.981 48.6678 350.699 50.4892 352.014 50.9768C355.972 52.4419 356.921 57.3563 354.59 60.7273C352.696 63.4719 349.369 64.5876 346.186 65.0786C344.217 63.8704 342.396 63.8907 341.933 66.9472C341.719 68.3508 343.769 68.6544 344.089 67.3062C345.977 67.1239 347.229 67.8789 347.838 69.5466C348.947 70.7401 349.499 72.1636 349.503 73.8306C349.235 79.4885 344.385 83.1176 338.659 81.392C337.405 81.0095 336.275 82.2124 337.034 83.408C339.617 87.4619 341.524 92.4802 339.238 97.1882C336.228 103.411 328.088 103.746 325.628 97.0712C325.194 95.8803 323.146 96.288 323.394 97.5945C323.494 98.1031 323.645 98.5869 323.822 99.0524C323.698 99.1564 323.588 99.2984 323.538 99.4984C321.035 106.413 316.953 107.033 311.277 101.379C310.784 100.433 309.527 100.306 309.004 101.324C307.288 104.65 304.526 107.18 300.637 107.768C299.578 107.761 298.519 107.754 297.46 107.747C291.269 106.561 290.472 102.55 295.047 95.7095C296.583 95.1794 295.665 92.9976 294.164 93.4063C292.225 93.9165 290.797 94.9104 289.842 96.1705C290.001 93.6028 290.16 91.0351 290.331 88.4695C291.996 88.2325 291.673 85.9909 290.086 85.9403C286.027 84.4556 285.925 82.5716 289.802 80.3037C291.012 77.182 293.117 76.1794 296.096 77.2804C296.995 77.3959 297.795 76.5137 297.439 75.6409C295.683 71.3508 297.651 67.8631 300.717 66.592C301.628 67.7821 303.191 67.1756 303.619 66.1049C305.318 66.1773 307.097 66.8595 308.637 68.3576C309.185 68.8949 310.076 68.2051 309.953 67.5754C310.767 67.8844 311.622 66.838 310.802 66.2598C304.88 62.0607 311.543 56.5918 315.893 57.2355C319.246 57.7328 321.405 60.12 323.199 62.8326C323.668 63.5409 325.035 63.2811 325.07 62.3789C325.306 57.787 329.421 53.2 334.464 54.1759C339.618 55.1848 341.186 60.8716 340.343 65.2879C340.151 66.2763 341.588 66.6824 342.006 65.7845C344.452 60.49 341.139 53.7662 335.5 52.2556C331.59 51.2075 327.952 52.8456 325.609 55.6783C325.474 55.5355 325.298 55.42 325.071 55.3294C321.112 53.806 318.399 49.284 320.221 45.104C322.075 40.8833 327.392 39.7216 331.292 41.5482C332.057 41.9294 332.799 41.1641 332.708 40.4939ZM323.896 58.0269C323.973 58.0533 324.044 58.0439 324.125 58.0479C323.888 58.5497 323.674 59.0559 323.511 59.5953C320.251 55.5502 314.612 52.3501 309.907 55.8907C306.879 58.1712 305.935 62.568 307.825 65.5671C306.279 64.5223 304.621 64.0615 303.016 64.0423C300.977 61.2707 299.097 58.4016 297.561 55.3194C296.714 53.6173 295.936 51.8586 295.278 50.0768C294.112 46.8914 293.663 46.5015 296.207 43.5913C298.822 40.6134 299.554 41.0464 303.206 41.5665C304.645 41.7752 306.069 42.0624 307.483 42.4059C310.822 43.2152 313.937 44.4006 317.064 45.7631C315.962 50.7352 318.928 56.4829 323.896 58.0269ZM222.688 23.9809C223.918 20.5135 225.135 17.0552 226.366 13.5878C229.059 12.6758 231.649 12.7224 234.134 13.7277C241.652 15.8818 247.161 22.4011 254.675 24.8806C261.804 27.239 269.396 27.2051 276.814 27.5335C294.678 28.3104 311.891 32.2124 328.618 38.5023C324.576 37.8365 320.144 39.6008 318.054 43.2979C311.74 39.9786 296.672 33.6603 291.794 40.7448C289.784 43.6651 290.771 47.2936 291.841 50.3787C293.636 55.5503 296.247 60.3668 299.416 64.8254C296.002 66.3903 293.642 70.152 294.622 74.7229C292.181 74.6349 289.527 75.0419 287.501 76.2347C280.963 71.9049 271.597 60.1528 263.629 68.3873C255.914 76.3444 266.42 87.4432 266.793 95.8119C266.814 96.3053 267.016 96.6474 267.28 96.9082C264.408 98.5662 262.386 101.729 262.387 105.097C253.987 89.6747 257.842 70.8331 249.795 55.0365C246.542 48.6624 242.129 42.9844 236.76 38.2748C233.82 35.7017 230.464 33.5957 227.631 30.8919C225.939 29.2825 223.006 26.4312 222.688 23.9809Z" fill="#173B1A"/>
<path d="M177 331.969C180.32 331.248 183.62 330.453 186.932 329.719C187.797 329.525 187.913 328.441 187.557 327.812C185.86 324.781 182.595 322.261 179.075 321.906C178.653 321.86 178.304 321.978 178.045 322.173C177.898 321.97 177.643 321.839 177.39 321.825C176.972 321.814 176.632 322.005 176.219 321.855C175.902 321.747 175.622 321.506 175.416 321.245C175.19 320.968 175.015 320.608 174.945 320.245C174.965 320.202 174.996 320.162 175.007 320.105C175.099 319.75 175.189 319.406 175.281 319.051C175.386 318.932 175.414 318.786 175.382 318.651C176.41 314.842 177.637 311.455 180.154 308.202C180.557 307.686 180.639 306.781 180.037 306.338C176.805 304.012 172.616 304.343 169.515 306.819C165.849 309.745 165.095 314.726 165.264 319.152C161.773 318.162 158.026 318.078 154.469 318.753C153.587 318.92 152.795 319.757 153.178 320.729C154.026 322.85 155.275 324.828 156.838 326.505C147.364 328.133 141.571 338.862 141.083 348.428C140.601 358.146 143.188 377.71 155.102 380.516C166.649 383.229 180.318 365.098 185.22 357.051C190.464 348.499 190.672 331.585 177 331.969ZM156.722 321.321C160.306 320.745 163.768 321.1 167.364 321.97C168.431 322.235 168.995 320.585 167.987 320.134C167.805 320.052 167.607 319.99 167.414 319.906C167.46 319.787 167.497 319.654 167.49 319.513C167.516 316.244 167.935 312.456 170.223 309.904C171.932 307.998 174.797 306.862 177.219 307.774C174.672 311.36 172.764 315.558 172.552 319.968C172.516 320.695 173.032 321.04 173.609 321.07C174.158 322.808 176.278 324.255 177.548 323.417C177.607 323.894 177.937 324.354 178.566 324.535C180.929 325.213 182.826 326.186 184.385 327.886C181.461 328.847 178.532 329.771 175.621 330.781C174.86 331.042 175.088 332.391 175.926 332.215C175.962 332.211 176.012 332.197 176.05 332.181C175.556 332.505 175.349 333.152 175.471 333.724C175.34 333.92 175.238 334.145 175.22 334.421C175.091 336.715 174.432 338.731 173.289 340.607C171.561 338.094 169.834 335.581 168.104 333.079C167.658 332.433 166.838 332.333 166.183 332.707C164.2 333.861 162.162 334.819 160.07 335.637C161.51 333.912 163.03 332.26 164.478 330.501C164.553 330.411 164.593 330.325 164.624 330.226C165.246 329.601 165.349 328.525 164.278 328.039C164.085 327.955 163.918 327.852 163.736 327.77C163.796 327.339 163.58 326.831 163.076 326.722C162.519 326.591 161.983 326.534 161.437 326.463C159.481 325.129 157.88 323.468 156.722 321.321ZM150.178 373.201C140.277 360.297 141.282 332.106 159.461 328.784C160.315 329.369 161.236 329.85 162.194 330.257C159.386 332.126 157.188 334.753 155.21 337.505C154.41 338.632 155.321 340.125 156.714 339.73C160.163 338.766 163.403 337.378 166.522 335.651C168.399 338.356 170.278 341.05 172.155 343.755C172.63 344.43 173.751 344.6 174.296 343.89C176.393 341.185 177.479 338.342 177.773 335.02C202.041 340.636 162.984 389.884 150.178 373.201Z" fill="#173B1A"/>
<path d="M155.662 344.852C153.651 345.43 151.49 347.448 152.06 349.737C152.277 350.606 153.43 350.305 153.633 349.622C153.855 348.896 153.875 348.189 154.243 347.491C154.631 346.75 155.226 346.143 156.001 345.815C156.609 345.56 156.303 344.673 155.662 344.852Z" fill="#173B1A"/>
<path d="M161.557 349.511C159.94 350.643 159.103 352.439 159.153 354.406C159.185 355.508 160.97 355.375 160.869 354.272C160.725 352.788 161.318 351.469 162.429 350.484C162.978 349.996 162.151 349.09 161.557 349.511Z" fill="#173B1A"/>
<path d="M157.42 363.847C156.46 362.729 156.048 361.123 157.014 359.865C157.466 359.277 156.64 358.546 156.148 359.103C154.764 360.653 154.714 363.382 156.506 364.661C157.017 365.028 157.915 364.421 157.42 363.847Z" fill="#173B1A"/>
<path d="M218.269 182.112C218.217 182.079 218.174 182.059 218.122 182.025C218.945 178.677 215.939 174.763 213.626 172.626C210.751 169.96 207.047 168.568 203.169 168.551C203.579 168.001 204.009 167.467 204.483 166.941C206.012 165.244 209.322 163.916 210.022 161.744C211.039 158.597 206.798 156.063 204.312 156.083C199.857 156.106 196.319 160.537 194.207 163.985C193.729 164.767 193.344 165.555 193.003 166.351C192.888 166.282 192.776 166.202 192.63 166.174C185.09 164.19 176.995 166.458 171.623 172.002C169.859 171.963 168.068 172.188 166.279 172.762C157.56 175.607 154.064 183.798 154.288 192.395C154.48 199.831 155.977 207.45 156.916 214.821C157.647 220.556 157.578 227.115 159.455 232.652C161.243 237.926 167.065 241.978 171.566 236.965C171.983 236.497 171.364 235.783 170.841 236.137C162.005 242.176 160.964 221.058 160.565 217.765C159.857 211.907 159.139 206.046 158.456 200.181C157.598 192.872 156.339 184.565 162.466 179.039C169.186 172.975 177.315 175.585 182.565 181.635C181.692 181.99 180.824 182.382 180.008 182.865C175.841 183.084 174.506 187.148 173.339 191.013C170.358 200.876 169.072 211.254 169.514 221.559C169.842 229.255 172.781 252.185 185.514 240.701C185.712 240.518 185.895 240.297 186.084 240.1C185.521 245.899 192.567 246.703 196.684 243.492C202.342 239.063 206.6 231.09 210.697 225.275C214.588 219.736 218.827 214.089 221.665 207.915C225.391 199.804 226.533 188.058 218.269 182.112ZM202.491 170.855C205.954 171.024 209.146 172.47 211.638 174.886C212.846 176.052 213.889 177.466 214.583 178.998C214.802 179.495 214.953 179.979 215.115 180.465C212.587 179.556 209.906 179.503 207.445 180.239C207.415 180.151 207.41 180.057 207.358 179.966C205.636 176.882 203.022 175.095 199.792 174.505C200.36 173.135 201.02 171.829 201.775 170.577C201.967 170.731 202.201 170.846 202.491 170.855ZM191.941 176.901C192.53 176.805 193.071 176.42 193.168 175.798C193.862 171.609 195.029 167.687 197.554 164.214C198.537 162.866 199.993 161.003 201.414 160.16C204 158.237 205.558 158.258 206.063 160.221C206.751 161.064 206.472 161.663 205.226 162.016C203.719 164.148 201.357 165.695 199.829 167.928C198.3 170.173 197.164 172.551 196.262 175.103C195.854 176.248 196.504 177.283 197.747 177.302C200.873 177.347 203.124 178.843 204.663 181.425C203.32 182.225 202.108 183.308 201.129 184.633C197.249 180.841 191.418 179.48 185.888 180.6C185.445 179.815 184.934 179.087 184.393 178.388C186.907 177.861 189.412 177.32 191.941 176.901ZM182.992 176.835C180.733 174.603 177.898 173.053 174.827 172.365C179.802 168.935 185.792 167.787 191.877 169.221C191.56 170.138 191.265 171.06 190.932 171.998C190.107 174.332 190.228 174.309 188.152 175.282C186.613 176.009 184.733 176.391 182.992 176.835ZM185.393 235.422C184.513 237.501 182.763 238.234 180.157 237.613C176.703 239.567 174.846 238.683 174.578 234.949C173.146 230.244 172.963 224.627 172.845 219.757C172.735 215.692 173.313 186.09 180.784 186.079C181.693 186.08 182.195 185.292 182.233 184.495C183.034 184.208 183.86 183.971 184.678 183.78C185.179 183.9 185.715 183.783 186.108 183.497C189.295 182.984 192.532 183.296 195.6 184.845C202.74 188.475 202.993 195.656 201.223 202.514C198.779 212.016 193.286 221.37 188.623 229.93C187.701 231.627 186.796 234.074 185.393 235.422ZM213.175 215.419C210.074 220.121 206.827 224.736 203.511 229.292C201.985 231.397 200.438 233.486 198.863 235.547L196.973 238.024C195.242 241.068 192.351 241.499 188.291 239.292C188.336 238.823 188.125 238.468 187.823 238.281C192.908 232.239 196.04 223.336 199.173 216.543C202.482 209.377 206.855 200.749 205.301 192.583C204.925 190.611 204.243 188.895 203.332 187.402C209.557 176.429 220.792 187.378 221.125 195.471C221.436 202.837 217.064 209.53 213.175 215.419Z" fill="#173B1A"/>
<path d="M236.392 348.717C236.623 348.004 236.876 347.296 237.173 346.608C238.893 342.478 241.747 339.29 244.212 335.642C244.948 334.549 243.813 332.826 242.549 333.758C240.092 335.555 238.086 337.975 236.517 340.724C233.896 331.688 225.674 323.292 215.912 325.329C214.964 325.53 214.24 326.322 214.6 327.348C217.676 336.321 224.477 343.568 233.664 346.313C233.808 346.353 233.927 346.341 234.037 346.315C233.733 347.224 233.483 348.154 233.246 349.076C218.349 340.553 199.747 347.079 193.92 363.465C188.456 378.814 198.285 395.399 213.461 400.072C228.451 404.685 245.524 396.185 252.075 382.2C258.392 368.647 252.751 350.287 236.392 348.717ZM234.155 344.8C233.633 344.548 233.149 344.279 232.642 344.006C231.692 342.051 230.042 340.345 228.703 338.653C227.075 336.59 225.455 334.54 223.798 332.507C223.307 331.911 222.324 332.536 222.793 333.186C224.289 335.329 225.814 337.441 227.349 339.568C227.826 340.231 228.295 340.94 228.775 341.65C223.989 338.265 220.301 333.776 218.13 328.136C222.632 327.993 226.64 330.167 229.494 333.842C232.099 337.178 232.961 341.097 234.532 344.838C234.506 344.915 234.468 344.989 234.442 345.065C234.378 344.972 234.295 344.862 234.155 344.8ZM246.476 384.822C239.227 395.304 224.929 400.904 212.695 396.206C201.166 391.773 193.435 379.277 196.396 366.986C200.335 350.665 218.028 344.441 232.517 350.799C232.636 350.845 232.737 350.865 232.84 350.873C232.281 353.701 232.021 356.552 232.14 359.186C232.198 360.513 234.456 360.706 234.537 359.323C234.677 356.857 234.974 354.42 235.495 352.028C252.168 353.902 254.759 372.85 246.476 384.822Z" fill="#173B1A"/>
<path d="M330.854 236.863C326.657 230.073 318.3 232.371 311.624 232.547C302.29 232.792 296.823 228.646 292.473 220.416C290.427 216.536 288.616 213.191 284.889 210.652C284.704 210.523 284.52 210.453 284.34 210.418C284.306 204.993 280.307 199.523 274.66 199.083C274.664 199.06 274.668 199.038 274.661 199.013C274.495 196.802 274.992 194.777 276.626 193.194C277.286 192.553 277.258 191.557 276.378 191.107C273.717 189.742 269.832 188.023 268.184 191.479C266.773 194.434 266.267 198.134 267.005 201.365C263.742 203.053 261.574 206.129 261.096 209.742C247.618 219.415 253.228 244.318 261.047 255.759C271.073 270.424 290.306 277.374 307.466 273.062C321.021 269.672 340.603 252.662 330.854 236.863ZM268.297 202.699C268.337 202.672 268.357 202.629 268.397 202.602C268.72 202.501 268.976 202.259 268.992 201.878C269.081 199.367 269.102 196.97 269.897 194.549C270.276 193.375 270.482 192.308 271.851 192.34C272.408 192.355 273.113 192.561 273.824 192.804C272.474 194.663 271.777 196.94 272.184 199.291C272.254 199.713 272.478 200.001 272.759 200.172C272.566 200.868 272.876 201.674 273.851 201.874C277.738 202.626 280.797 205.304 281.374 209.005C279.59 207.867 277.553 207.193 275.414 207.77C274.247 208.08 273.311 208.703 272.593 209.52C272.195 208.266 271.92 206.977 271.783 205.576C271.675 204.448 270.389 203.989 269.516 204.589C267.717 205.814 265.916 207.051 264.107 208.274C264.714 205.979 266.148 204.171 268.297 202.699ZM329.482 241.969C332.298 252.523 322.625 263.131 314.08 267.362C299.868 274.388 281.67 271.484 269.879 261.057C258.177 250.718 249.836 225.659 261.499 212.174C261.935 212.572 262.588 212.687 263.218 212.262L269.293 208.147C269.687 210.146 270.35 212.022 271.371 213.909C272.106 215.287 274.258 214.946 274.138 213.221C273.771 208.011 280.327 211.587 281.895 213.056C282.398 213.526 283.089 213.45 283.6 213.095C289.412 217.505 290 225.065 294.945 230.159C298.102 233.415 302.233 234.89 306.65 235.43C314.23 236.361 326.541 230.913 329.482 241.969Z" fill="#173B1A"/>
<path d="M139.522 326.941C134.848 323.333 128.257 318.795 122.288 318.211C121.841 318.171 121.4 318.4 121.111 318.752C121.06 318.172 120.639 317.577 119.887 317.548C119.064 317.529 118.358 317.742 117.732 318.087C117.165 317.406 116.193 317.008 115.352 316.717C114.446 316.402 113.205 316.011 112.231 316.346C112.582 315.68 112.52 314.794 111.638 314.356C105.842 311.486 99.0177 309.42 92.4765 309.983C91.9262 309.516 91.0548 309.382 90.5226 310.025C87.7057 313.442 85.1888 317.114 82.7644 320.852C83.0295 317.675 83.7395 314.608 84.7499 311.494C84.8419 311.501 84.9361 311.496 85.0321 311.421C85.5995 311.018 86.3209 310.843 87.0151 310.989C87.6644 311.126 88.1013 311.759 88.7785 311.691C89.052 311.663 89.3625 311.443 89.3988 311.136C89.5013 309.944 88.0893 309.472 87.0973 309.42C86.4397 309.386 85.8259 309.547 85.2871 309.862C85.6516 309.304 85.6266 308.53 84.8415 308.191C80.1574 306.143 74.0143 305.793 68.9597 306.202C68.6278 306.231 68.4137 306.434 68.2963 306.679C67.9438 306.634 67.5743 306.737 67.2761 307.134C67.2138 307.215 67.1493 307.308 67.0736 307.398C65.771 306.482 63.8392 306.108 62.4642 306.168C62.4526 306.108 62.4544 306.038 62.4316 305.975C62.5642 305.651 62.454 305.257 62.0134 305.125C53.7656 302.585 32.9842 307.851 34.6501 319.534C34.7182 320.025 35.0276 320.353 35.3852 320.492C36.1118 324.385 39.7807 327.344 43.7394 329.287C54.4046 334.509 66.6684 337.732 78.2313 340.122C90.3425 342.628 102.72 343.94 115.098 343.982C124.6 344.014 134.434 343.54 142.226 337.532C142.787 337.105 142.922 336.525 142.827 335.994C144.851 332.459 142.552 329.287 139.522 326.941ZM111.885 317.654C112.604 318.213 113.695 318.354 114.517 318.746C114.996 318.979 115.454 319.324 115.936 319.604C115.412 320.201 114.936 320.855 114.473 321.5C113.123 323.359 111.856 325.27 110.587 327.191C110.616 323.969 111.063 320.816 111.885 317.654ZM64.5464 307.993C65.0794 308.189 65.5301 308.509 65.9808 308.83C63.5462 312.017 61.1655 315.227 58.7805 318.459C59.3293 314.72 60.4737 311.155 61.9863 307.614C62.1432 307.586 62.2979 307.569 62.4573 307.588C63.1483 307.571 63.9033 307.763 64.5464 307.993ZM140.492 334.936C126.108 344.294 104.27 340.989 88.2844 338.571C79.8718 337.304 71.5631 335.44 63.3947 333.032C55.6556 330.754 39.8111 327.548 37.4286 318.243C40.7062 309.555 52.043 308.055 60.5261 306.609C57.6734 311.475 56.2356 316.918 55.9028 322.552C55.8401 323.658 57.247 324.758 58.1061 323.631C61.8222 318.698 65.6104 313.815 69.2229 308.816C69.4276 308.541 69.4841 308.249 69.4688 307.966C73.9514 308.647 78.4724 309.732 82.952 310.308C80.3569 315.107 79.4336 320.662 79.7435 326.105C79.832 327.695 81.8363 327.815 82.5739 326.653C85.773 321.562 89.3079 316.723 92.64 311.728C98.6164 313.059 104.267 314.269 109.899 316.839C108.163 321.595 107.485 326.603 107.981 331.686C108.134 333.184 109.925 333.321 110.654 332.203C112.008 330.146 113.37 328.103 114.701 326.042C115.835 324.28 117.559 319.825 120.088 319.883C120.413 319.887 120.646 319.769 120.816 319.616C120.846 319.878 120.974 320.124 121.271 320.333C124.309 322.459 127.995 323.58 131.233 325.395C134.302 327.12 141.226 330.359 140.91 334.761C140.76 334.813 140.626 334.845 140.492 334.936Z" fill="#173B1A"/>
<path d="M227.718 452.084C232.901 451.013 232.941 438.401 231.738 434.743C231.663 434.53 231.543 434.367 231.392 434.245C231.452 434.175 231.521 434.118 231.57 434.046C235.409 429.079 229.297 420.381 225.584 417.11C223.851 415.587 221.92 414.001 219.526 414.936C219.286 415.029 219.036 415.179 218.792 415.295C216.402 410.242 208.711 405.607 204.793 410.861C197.888 409.269 190.235 412.81 187.549 419.585C186.659 421.836 186.352 425.109 189.134 426.149C190.526 426.663 192.272 426.127 193.66 425.883C195.984 425.493 197.996 425.09 200.188 425.445C200.678 428.091 203.089 428.942 204.735 431.393C203.901 434.075 204.353 436.68 207.766 438.249C207.863 438.291 207.953 438.308 208.045 438.315C207.983 438.874 208.223 439.444 208.767 439.643C207.849 441.132 208.216 443.149 209.668 444.618C210.382 445.327 211.267 445.871 212.214 446.334C211.963 451.366 201.894 451.795 200.171 456.064C198.986 458.993 202.615 460.592 204.727 461.304C212.886 464.001 224.553 460.794 227.718 452.084ZM197.192 422.383C194.781 422.616 189.123 425.238 190.213 420.391C191.429 415.01 198.871 412.197 203.896 412.307C202.241 415.32 200.875 419.064 200.311 422.462C199.318 422.293 198.322 422.264 197.192 422.383ZM204.384 427.667C203.78 426.874 203.403 426.113 203.187 425.361C203.684 424.723 203.72 423.693 202.957 423.242C203.042 421.779 203.569 420.319 204.113 418.712C204.545 417.444 205.042 416.2 205.602 414.991C206.399 413.223 208.929 411.406 211.04 411.639C213.263 411.895 215.325 414.845 216.962 416.444C214.356 418.41 211.902 421.454 209.992 423.438C208.589 424.903 206.815 427.03 205.648 429.263C205.279 428.76 204.846 428.292 204.384 427.667ZM209.271 437.037C209.02 437.07 208.816 437.159 208.642 437.277C208.615 437.236 208.59 437.185 208.549 437.154C203.368 432.317 211.418 425.882 214.525 422.836C216.723 420.686 219.366 416.967 223.172 418.613C224.893 419.354 226.656 422.107 227.556 423.54C228.51 425.053 230.092 427.713 230.044 429.649C229.939 434.406 225.397 435.054 222.006 435.598C217.808 436.277 213.511 436.564 209.271 437.037ZM210.579 439.609C216.123 439.202 224.524 439.325 229.428 436.021C229.581 437.821 229.805 439.612 229.675 441.428C229.562 442.979 229.255 444.563 228.791 446.058C228.246 447.852 228.161 449.012 226.353 449.082C223.83 449.176 220.421 446.92 218.122 445.974C216.561 445.311 208.611 443.038 210.579 439.609ZM207.326 459.068C206.116 458.822 204.933 458.43 203.808 457.921C202.79 456.862 203.099 456.165 204.762 455.822C206.852 453.453 214.579 451.278 213.785 447.011C214.597 447.331 215.402 447.627 216.144 447.945C219.039 449.182 222.042 450.765 225.057 451.744C221.961 454.92 219.397 457.873 214.694 458.991C212.268 459.547 209.735 459.569 207.326 459.068Z" fill="#173B1A"/>
<path d="M299.116 445.732C299.111 445.696 299.091 445.68 299.086 445.645C300.553 441.139 298.498 436.523 294.225 433.914C290.401 431.577 285.539 431.592 281.325 430.427C274.369 428.498 268.649 424.816 262.439 421.319C262.262 421.215 262.1 421.207 261.954 421.237C257.142 418.464 249.927 420.704 247.181 425.439C244.205 430.585 246.897 438.889 253.35 439.148C250.537 447.96 236.76 457.075 239.079 467.789C239.597 470.173 240.145 471.072 242.443 472.204C246.827 474.357 248.548 472.57 253.892 476.447C256.59 478.402 258.658 481.145 261.333 483.154C280.724 497.72 287.433 466.485 286.05 452.677C288.664 454.22 291.945 454.668 294.753 453.347C297.574 452.017 299.551 448.846 299.116 445.732ZM292.966 451.137C290.244 452.078 287.432 450.952 284.951 449.866C284.123 449.507 283.423 450.537 284.068 451.175C284.077 451.188 284.089 451.19 284.098 451.204C283.884 451.407 283.735 451.693 283.719 452.074C283.523 459.715 284.154 471.443 279.309 478.056C267.83 493.721 259.849 474.99 250.663 471.278C246.998 469.8 243.286 471.342 241.888 465.921C240.895 462.081 246.026 455.314 248.14 452.519C251.427 448.179 254.554 444.904 255.159 439.311C255.193 439.015 255.109 438.789 254.98 438.612C255.119 438.255 255.049 437.833 254.63 437.648C249.924 435.595 246.916 430.725 250.517 426.026C254.046 421.396 258.695 423.146 263.258 424.554C263.445 424.613 263.624 424.589 263.779 424.514C267.288 427.513 271.349 429.65 275.759 431.249C284.093 434.248 297.635 433.758 297.045 445.052C296.854 445.259 296.728 445.549 296.748 445.926C296.831 448.389 295.299 450.342 292.966 451.137Z" fill="#173B1A"/>
<path d="M290.586 437.3C281.948 433.403 272.235 431.511 263.366 428.327C263.148 428.249 262.948 428.258 262.762 428.315C260.064 425.998 254.871 425.075 252.691 428.393C250.477 431.764 253.408 435.465 256.582 436.825C257.588 444.035 254.301 448.794 249.916 454.051C247.868 456.509 244.951 459.417 244.116 462.647C242.68 468.265 247.572 468.874 251.997 469.672C256.761 472.994 261.343 476.712 266.226 479.661C269.325 481.531 272.286 481.825 275.011 479.183C282.219 472.223 282.229 456.575 282.114 447.359C282.096 446.365 280.462 446.259 280.35 447.263C279.353 456.264 279.979 467 275.345 475.169C271.293 482.32 264.627 475.518 260.054 472.419C256.809 470.218 253.474 468.361 249.855 466.892C247.274 464.994 246.762 462.343 249.397 457.819C250.827 455.369 253.24 453.377 254.842 450.996C257.73 446.731 259.393 442.112 257.796 437.177C258.005 437.124 258.16 436.863 258.011 436.671C256.496 434.804 252.398 432.194 254.42 429.392C256.634 426.325 260.326 429.405 262.829 430.076C262.863 430.082 262.89 430.064 262.924 430.071C266.989 432.244 271.607 433.429 275.997 434.768C280.585 436.168 285.177 437.791 289.894 438.704C291.84 439.547 292.842 441.174 292.577 443.325C292.366 445.02 291.224 448.33 289.077 447.984C286.49 447.565 284.321 445.165 281.588 445.44C281.292 445.464 281.081 445.831 281.276 446.09C282.705 447.975 286.116 449.136 288.33 449.797C290.335 450.395 291.815 449.854 292.881 448.021C294.678 444.873 295.655 437.78 290.586 437.3Z" fill="#173B1A"/>
<path d="M241.51 124.536C241.211 124.758 241.117 125.066 241.143 125.35C235.12 129.918 230.734 137.109 231.182 144.852C231.42 148.86 232.402 152.335 231.586 156.372C230.911 159.679 229.387 162.554 228.072 165.62C226.34 169.69 225.192 172.975 225.97 177.262C225.964 177.354 225.956 177.457 225.97 177.565C226.333 179.663 228.777 181.907 230.879 182.186C232.718 182.437 234.235 181.518 234.728 179.877C235.102 179.81 235.416 179.51 235.306 179.057C234.954 177.684 234.878 176.329 234.975 174.985C254.643 174.992 274.707 171.207 294.185 168.824C295.008 168.727 295.517 167.602 294.918 166.962C281.643 152.589 262.901 142.798 246.61 132.141C246.684 132.004 246.746 131.865 246.819 131.727C246.96 131.72 247.097 131.676 247.197 131.521C248.332 129.806 248.357 127.632 247.083 125.964C245.963 124.466 243.183 123.298 241.51 124.536ZM242.276 172.844C240.977 169.982 243.796 166.857 246.701 166.72C249.783 166.571 250.951 168.964 251.543 171.444C248.431 171.867 245.349 172.32 242.276 172.844ZM282.47 167.944C281.075 168.105 279.672 168.253 278.268 168.401C278.033 167.691 278.364 166.823 278.967 166.357C279.735 165.76 280.64 165.539 281.574 165.405C281.728 166.239 281.955 167.052 282.348 167.792C282.382 167.857 282.434 167.89 282.47 167.944ZM264.162 146.153C264.136 146.172 264.122 146.181 264.093 146.21C263.478 146.918 262.866 147.615 262.251 148.324C261.908 148.712 260.975 150.221 260.353 150.124C260.003 150.068 259.57 149.413 259.27 149.215C259.209 149.168 259.142 149.155 259.081 149.109C259.893 147.564 260.848 146.118 261.971 144.774C262.71 145.231 263.435 145.698 264.162 146.153ZM260.432 143.812C259.045 145.501 257.888 147.328 256.958 149.304C256.725 149.783 257.111 150.557 257.695 150.553C259.003 150.538 259.475 152.494 261.078 151.919C261.866 151.64 262.327 150.762 262.778 150.115C263.532 149.049 264.295 147.997 265.049 146.931C265.082 146.879 265.105 146.825 265.127 146.771C274.567 152.781 283.808 159.161 291.552 166.835C289.16 167.153 286.741 167.43 284.331 167.721C284.419 167.505 284.411 167.247 284.254 166.972C283.769 166.109 283.382 165.277 283.174 164.305C283.075 163.854 282.662 163.46 282.176 163.564C280.45 163.929 278.124 164.446 277.587 166.381C277.394 167.078 277.329 167.835 277.528 168.491C269.602 169.346 261.629 170.145 253.729 171.168C253.955 167.227 249.285 164.086 245.641 164.849C242.132 165.58 238.845 169.802 240.932 173.108C238.964 173.461 236.996 173.814 235.04 174.228C235.905 167.171 241.655 160.337 241.77 152.878C241.826 149.277 240.155 144.665 241.137 141.22C241.876 138.601 243.728 136.501 245.298 134.288C250.202 137.486 255.306 140.618 260.432 143.812ZM245.451 127.233C246.011 127.772 246.321 128.52 246.418 129.284C246.324 129.348 246.237 129.436 246.177 129.564C245.793 130.282 245.342 130.929 244.861 131.547C244.351 131.716 243.968 132.189 243.917 132.692C242.378 134.445 240.73 136.037 239.842 138.336C238.08 142.866 239.54 148.147 239.268 152.802C238.743 161.778 230.016 170.086 233.704 179.027C233.141 180.188 231.213 179.978 230.352 179.427C229.223 178.696 228.757 177.312 227.647 176.608C227.523 176.526 227.39 176.488 227.244 176.46C228.925 168.314 234.642 161.054 234.711 152.689C234.744 148.78 233.193 145.054 233.819 141.097C234.741 135.251 238.781 130.871 242.637 126.723C242.753 126.606 242.813 126.478 242.85 126.345C243.191 126.329 243.543 126.316 243.889 126.395C244.462 126.505 245.009 126.809 245.451 127.233Z" fill="#173B1A"/>
<path d="M245.587 153.198C245.17 153.245 244.914 153.603 244.829 153.983C244.434 155.783 244.116 157.725 244.249 159.569C244.295 160.172 244.869 160.4 245.364 160.309C247.435 161.654 250.607 160.135 250.872 157.681C251.166 154.836 248.123 152.919 245.587 153.198ZM249.193 157.321C249.283 159.028 247.496 159.65 246.114 159.324C246.213 157.851 246.269 156.417 246.491 154.969C247.759 155.098 249.118 155.967 249.193 157.321Z" fill="#173B1A"/>
<path d="M246.587 139.373C243.873 139.908 241.423 143.477 242.712 146.15C242.834 146.419 243.134 146.558 243.412 146.566C243.853 148.62 245.906 149.996 248.016 149.869C250.833 149.703 252.456 146.859 252.285 144.251C252.081 141.392 249.581 138.775 246.587 139.373ZM250.19 144.358C250.356 145.905 249.578 147.642 247.971 148.054C246.365 148.466 244.508 147.407 244.219 145.766C244.208 145.706 244.174 145.699 244.149 145.648C244.538 144.057 244.505 142.361 246.3 141.578C248.314 140.686 249.989 142.443 250.19 144.358Z" fill="#173B1A"/>
<path d="M254.73 155.887C254.145 156.38 253.794 156.871 253.59 157.624C253.355 158.476 254.532 159.018 254.897 158.156C254.956 157.97 255.065 157.828 255.163 157.684C256.026 158.643 256.96 159.535 257.87 160.433C258.331 160.884 259.205 161.484 259.516 162.045C259.99 162.906 259.626 163.465 259.083 163.919C257.608 161.909 255.8 160.172 253.718 158.767C252.81 158.16 251.797 159.479 252.685 160.129C254.872 161.717 256.62 163.64 258.093 165.906C258.399 166.373 259.078 166.353 259.483 166.07C260.979 165.02 262.557 163.309 261.468 161.409C260.928 160.466 259.898 159.707 259.131 158.976C258.029 157.924 256.941 156.804 255.73 155.894C255.449 155.665 254.997 155.647 254.73 155.887Z" fill="#173B1A"/>
<path d="M179.948 411.939C179.573 411.47 179.07 411.361 178.606 411.469C178.589 408.786 174.057 406.615 171.99 405.854C172.535 404.783 173.078 403.723 173.707 402.702C174.218 401.869 175.494 400.753 175.636 399.778C175.836 398.383 174.15 397.521 173.026 397.432C168.7 397.084 167.605 403.467 167.996 406.806C167.978 406.779 167.971 406.754 167.95 406.739C166.157 404.807 163.498 404.397 161.296 405.661C161.228 405.589 161.158 405.529 161.046 405.507C152.853 403.945 142.299 406.401 139.231 415.211C136.37 423.431 142.188 431.117 148.955 435.049C157.67 440.114 168.524 441.411 176.525 434.383C183.162 428.571 185.639 419.204 179.948 411.939ZM167.168 407.648C167.561 407.968 167.99 407.737 168.107 407.375C168.205 407.65 168.636 407.71 168.679 407.369C168.972 405.433 169.475 403.375 170.243 401.577C170.798 400.275 172.747 398.089 173.991 399.611C172.473 401.613 171.057 403.751 170.051 406.061C169.907 406.383 169.978 406.677 170.148 406.884C170.173 407.297 170.431 407.708 171.013 407.891C172 408.21 174.973 409.286 175.527 410.337C176.531 412.256 173.402 410.299 172.808 409.939C172.391 409.684 171.648 409.913 171.475 410.381C171.246 411.024 171.05 411.673 170.868 412.314C170.262 411.474 169.657 410.623 169.062 409.785C168.714 409.298 167.93 409.193 167.531 409.687C167.197 410.089 166.856 410.465 166.508 410.818C166.764 409.981 166.871 409.187 166.613 408.589C166.19 407.645 164.812 407.122 163.524 406.733C164.729 406.407 165.993 406.675 167.168 407.648ZM174.645 432.481C168.118 438.326 158.609 437.488 151.31 433.477C143.624 429.24 137.841 420.884 143.705 412.382C147.136 407.418 154.778 407.126 160.242 406.587C160.039 407.037 160.103 407.609 160.645 407.819C161.317 408.077 164.256 408.727 164.585 409.315C165.044 410.138 163.559 412.752 163.265 413.546C162.932 414.425 163.81 415.306 164.671 414.773C166.01 413.937 167.135 413.001 168.189 411.889L170.552 415.212C171.036 415.9 172.17 415.7 172.336 414.847C172.498 413.946 172.718 413.115 172.975 412.267C174.373 412.992 176.496 413.822 177.71 413.207C177.744 413.272 177.756 413.332 177.812 413.401C182.795 419.749 180.127 427.576 174.645 432.481Z" fill="#173B1A"/>
<path d="M201.134 496.278C204.455 495.557 207.755 494.762 211.066 494.028C211.931 493.834 212.048 492.75 211.692 492.122C209.995 489.09 206.73 486.57 203.21 486.215C202.788 486.169 202.438 486.287 202.179 486.482C202.032 486.279 201.778 486.148 201.524 486.134C201.107 486.123 200.767 486.314 200.353 486.164C200.036 486.056 199.757 485.815 199.551 485.554C199.325 485.277 199.15 484.917 199.08 484.554C199.1 484.511 199.131 484.471 199.142 484.414C199.234 484.059 199.324 483.716 199.416 483.36C199.521 483.241 199.549 483.095 199.517 482.961C200.545 479.151 201.771 475.765 204.289 472.511C204.692 471.995 204.773 471.09 204.172 470.647C200.94 468.321 196.751 468.652 193.65 471.128C189.984 474.054 189.23 479.036 189.399 483.461C185.908 482.471 182.161 482.387 178.604 483.062C177.721 483.229 176.93 484.066 177.313 485.038C178.161 487.159 179.41 489.137 180.973 490.815C171.499 492.442 165.705 503.171 165.218 512.737C164.735 522.455 167.323 542.019 179.237 544.826C190.784 547.538 204.453 529.407 209.355 521.36C214.599 512.808 214.807 495.894 201.134 496.278ZM180.857 485.63C184.441 485.054 187.903 485.409 191.498 486.28C192.566 486.544 193.13 484.894 192.122 484.443C191.94 484.361 191.742 484.299 191.548 484.215C191.595 484.096 191.632 483.963 191.624 483.822C191.651 480.553 192.069 476.765 194.358 474.213C196.067 472.307 198.931 471.172 201.354 472.083C198.807 475.669 196.899 479.867 196.687 484.277C196.651 485.004 197.167 485.349 197.744 485.379C198.293 487.117 200.413 488.564 201.682 487.726C201.741 488.203 202.072 488.664 202.701 488.844C205.064 489.522 206.961 490.495 208.52 492.195C205.595 493.156 202.667 494.081 199.756 495.09C198.995 495.351 199.223 496.7 200.061 496.524C200.097 496.52 200.146 496.506 200.184 496.49C199.691 496.814 199.484 497.461 199.606 498.033C199.475 498.229 199.373 498.454 199.355 498.73C199.226 501.024 198.567 503.04 197.423 504.916C195.696 502.403 193.968 499.89 192.239 497.388C191.792 496.742 190.973 496.642 190.318 497.016C188.335 498.17 186.297 499.128 184.204 499.946C185.645 498.221 187.165 496.569 188.612 494.81C188.688 494.72 188.728 494.634 188.759 494.535C189.381 493.91 189.484 492.835 188.413 492.348C188.22 492.264 188.053 492.161 187.871 492.08C187.931 491.648 187.714 491.14 187.211 491.031C186.654 490.9 186.117 490.843 185.572 490.772C183.616 489.438 182.015 487.777 180.857 485.63ZM174.313 537.511C164.412 524.606 165.416 496.415 183.596 493.093C184.45 493.678 185.371 494.159 186.329 494.566C183.521 496.435 181.322 499.062 179.345 501.814C178.544 502.941 179.456 504.434 180.849 504.039C184.298 503.076 187.538 501.687 190.657 499.96C192.534 502.665 194.413 505.359 196.29 508.065C196.765 508.739 197.886 508.909 198.431 508.199C200.528 505.494 201.614 502.651 201.907 499.329C226.176 504.946 187.119 554.193 174.313 537.511Z" fill="#173B1A"/>
</svg>
