<svg width="41" height="30" viewBox="0 0 41 30" fill="none" xmlns="http://www.w3.org/2000/svg">
<path d="M10.1333 6.54831C22.2644 -6.04931 36.2617 6.54831 36.2617 6.54831C36.2617 6.54831 22.2644 19.1459 10.1333 6.54831Z" fill="#36C63F"/>
<path d="M27.8938 11.7427C32.954 10.154 36.4454 7.04597 36.5916 6.91441L37 6.54678L36.5916 6.17916C36.4454 6.0476 32.954 2.93946 27.8938 1.35076C24.902 0.41151 21.9897 0.208259 19.2377 0.746761C15.858 1.40801 12.7256 3.19315 9.92432 6.05216L5 6.05216L5 7.04135L9.92432 7.04135C12.7257 9.90036 15.8579 11.6855 19.2377 12.3467C21.9897 12.8852 24.9021 12.682 27.8938 11.7427ZM19.4097 11.3726C16.5163 10.8027 13.806 9.34729 11.3384 7.04135L18.3259 7.04135L20.9805 9.69598L21.6798 8.99654L19.7247 7.04141L25.5294 7.04141L25.5294 6.05222L22.0575 6.05222L24.0127 4.09702L23.3133 3.39765L20.6587 6.05222L15.992 6.05222L17.4806 4.56359L16.7812 3.86421L14.5931 6.05228L11.3384 6.05228C13.806 3.74634 16.5163 2.29089 19.4097 1.72101C21.9942 1.21201 24.7388 1.40183 27.5674 2.28514C31.4272 3.49052 34.4068 5.67972 35.4887 6.54685C34.4067 7.41404 31.4272 9.60311 27.5674 10.8086C24.7389 11.6918 21.9942 11.8816 19.4097 11.3726Z" fill="#009F06"/>
<path opacity="0.3" d="M27.3945 7.04004L27.3945 6.05093L26.4615 6.05093L26.4615 7.04004L27.3945 7.04004Z" fill="white"/>
<path opacity="0.2" d="M29.2617 7.04004L29.2617 6.05093L28.3287 6.05093L28.3287 7.04004L29.2617 7.04004Z" fill="#1A1A1A"/>
<path d="M0.987 29.1868C0.891667 29.1868 0.779 29.1564 0.649 29.0958C0.510333 29.0351 0.393333 28.9138 0.298 28.7318C0.194 28.5584 0.142 28.2941 0.142 27.9388C0.142 27.5661 0.207 27.0764 0.337 26.4698C0.458333 25.8718 0.631667 25.2088 0.857 24.4808C1.07367 23.7441 1.32933 22.9901 1.624 22.2188C1.92733 21.4474 2.248 20.7064 2.586 19.9958C2.93267 19.2764 3.288 18.6308 3.652 18.0588C4.02467 17.4868 4.393 17.0318 4.757 16.6938C5.121 16.3558 5.472 16.1868 5.81 16.1868C6.03533 16.1868 6.18267 16.2561 6.252 16.3948C6.32133 16.5248 6.356 16.6764 6.356 16.8498C6.356 17.2224 6.252 17.6298 6.044 18.0718C5.84467 18.5138 5.576 18.9601 5.238 19.4108C4.9 19.8528 4.51867 20.2731 4.094 20.6718C3.678 21.0704 3.249 21.4128 2.807 21.6988C2.77233 21.7854 2.73767 21.8721 2.703 21.9588C2.66833 22.0454 2.63367 22.1321 2.599 22.2188C2.69433 22.2534 2.768 22.3141 2.82 22.4008C2.88067 22.4874 2.91533 22.5784 2.924 22.6738C2.99333 23.0464 3.06267 23.3801 3.132 23.6748C3.20133 23.9608 3.30533 24.1861 3.444 24.3508C3.59133 24.5154 3.79933 24.5978 4.068 24.5978C4.37133 24.5978 4.64 24.4851 4.874 24.2598C5.108 24.0344 5.34633 23.7181 5.589 23.3108L5.875 23.5188C5.59767 24.0734 5.28567 24.4808 4.939 24.7408C4.59233 24.9921 4.28033 25.1178 4.003 25.1178C3.85567 25.1178 3.69967 25.0874 3.535 25.0268C3.379 24.9661 3.22733 24.8794 3.08 24.7668C3.07133 25.3041 3.00633 25.8328 2.885 26.3528C2.77233 26.8814 2.61633 27.3581 2.417 27.7828C2.21767 28.2074 1.99233 28.5454 1.741 28.7968C1.49833 29.0568 1.247 29.1868 0.987 29.1868ZM1.351 28.3808C1.44633 28.3808 1.546 28.2984 1.65 28.1338C1.76267 27.9691 1.871 27.7524 1.975 27.4838C2.079 27.2151 2.17433 26.9161 2.261 26.5868C2.34767 26.2661 2.417 25.9454 2.469 25.6248C2.521 25.3128 2.547 25.0268 2.547 24.7668C2.547 24.5154 2.51667 24.2944 2.456 24.1038C2.404 23.9044 2.30867 23.6834 2.17 23.4408C1.97067 24.0388 1.793 24.6151 1.637 25.1698C1.481 25.7244 1.35967 26.2271 1.273 26.6778C1.18633 27.1371 1.143 27.5184 1.143 27.8218C1.143 28.1944 1.21233 28.3808 1.351 28.3808ZM3.184 20.7888C3.71267 20.2948 4.16333 19.8138 4.536 19.3458C4.90867 18.8778 5.19033 18.4661 5.381 18.1108C5.58033 17.7468 5.68 17.4911 5.68 17.3438C5.68 17.2744 5.64533 17.2398 5.576 17.2398C5.368 17.2398 5.12967 17.4001 4.861 17.7208C4.59233 18.0328 4.315 18.4574 4.029 18.9948C3.743 19.5321 3.46133 20.1301 3.184 20.7888ZM6.01902 26.1578C5.73302 26.1578 5.48602 26.0624 5.27802 25.8718C5.06135 25.6811 4.95302 25.3951 4.95302 25.0138C4.95302 24.7104 5.02235 24.3811 5.16102 24.0258C5.29968 23.6704 5.49035 23.3194 5.73302 22.9728C5.97568 22.6261 6.25302 22.3141 6.56502 22.0368C6.87702 21.7508 7.21068 21.5211 7.56602 21.3478C7.92135 21.1744 8.27668 21.0878 8.63202 21.0878C9.00468 21.0878 9.32102 21.1831 9.58102 21.3738C9.84102 21.5644 9.97102 21.8158 9.97102 22.1278C9.97102 22.3618 9.88868 22.5308 9.72402 22.6348C9.55935 22.7388 9.36435 22.7691 9.13902 22.7258C9.15635 22.6478 9.16935 22.5698 9.17802 22.4918C9.19535 22.4138 9.20402 22.3314 9.20402 22.2448C9.20402 22.0714 9.16935 21.9154 9.10002 21.7768C9.03068 21.6381 8.88335 21.5688 8.65802 21.5688C8.41535 21.5688 8.16835 21.6511 7.91702 21.8158C7.66568 21.9804 7.42302 22.1971 7.18902 22.4658C6.96368 22.7258 6.76002 23.0161 6.57802 23.3368C6.39602 23.6488 6.25302 23.9564 6.14902 24.2598C6.04502 24.5631 5.99302 24.8361 5.99302 25.0788C5.99302 25.3561 6.09268 25.4948 6.29202 25.4948C6.49135 25.4948 6.71235 25.3994 6.95502 25.2088C7.19768 25.0094 7.44035 24.7624 7.68302 24.4678C7.93435 24.1731 8.17268 23.8741 8.39802 23.5708C8.62335 23.2588 8.81835 22.9944 8.98302 22.7778C9.00902 22.7344 9.04368 22.7128 9.08702 22.7128C9.12168 22.7214 9.18668 22.7431 9.28202 22.7778C9.38602 22.8038 9.48135 22.8471 9.56802 22.9078C9.65468 22.9684 9.69802 23.0464 9.69802 23.1418C9.69802 23.2284 9.65902 23.3411 9.58102 23.4798C9.51168 23.6098 9.42502 23.7571 9.32102 23.9218C9.22568 24.0778 9.13902 24.2381 9.06102 24.4028C8.99168 24.5588 8.95702 24.7104 8.95702 24.8578C8.95702 24.9704 8.98735 25.0788 9.04802 25.1828C9.10868 25.2781 9.20835 25.3258 9.34702 25.3258C9.55502 25.3258 9.84535 25.1741 10.218 24.8708C10.5993 24.5588 10.985 24.0344 11.375 23.2978L11.622 23.5448C11.414 24.0128 11.1627 24.4288 10.868 24.7928C10.582 25.1481 10.2787 25.4254 9.95802 25.6248C9.63735 25.8328 9.31235 25.9368 8.98302 25.9368C8.62768 25.9368 8.36335 25.8241 8.19002 25.5988C8.01668 25.3734 7.92135 25.1308 7.90402 24.8708C7.90402 24.8534 7.90402 24.8404 7.90402 24.8318C7.90402 24.8231 7.90402 24.8144 7.90402 24.8058C7.55735 25.2218 7.23668 25.5511 6.94202 25.7938C6.65602 26.0364 6.34835 26.1578 6.01902 26.1578ZM13.4724 25.8848C13.1517 25.8848 12.8917 25.7981 12.6924 25.6248C12.493 25.4601 12.3934 25.2348 12.3934 24.9488C12.3934 24.7061 12.454 24.4461 12.5754 24.1688C12.6967 23.8914 12.818 23.6184 12.9394 23.3498C13.0694 23.0811 13.1344 22.8428 13.1344 22.6348C13.1344 22.4354 13.0694 22.2708 12.9394 22.1408C12.8094 22.0021 12.6577 21.8894 12.4844 21.8028C12.2937 22.2794 12.077 22.7431 11.8344 23.1938C11.6004 23.6358 11.4097 23.9824 11.2624 24.2338L11.0674 23.8568C11.1887 23.6314 11.349 23.3108 11.5484 22.8948C11.7477 22.4788 11.9384 22.0151 12.1204 21.5038C12.0337 21.4171 11.9904 21.3001 11.9904 21.1528C11.9904 20.9274 12.0597 20.7151 12.1984 20.5158C12.337 20.3164 12.4714 20.2168 12.6014 20.2168C12.7054 20.2168 12.779 20.2774 12.8224 20.3988C12.8744 20.5114 12.9004 20.5894 12.9004 20.6328C12.9004 20.6761 12.8787 20.7541 12.8354 20.8668C12.8007 20.9794 12.7747 21.0618 12.7574 21.1138C12.766 21.2091 12.8397 21.3044 12.9784 21.3998C13.1257 21.4864 13.2904 21.5904 13.4724 21.7118C13.6544 21.8331 13.8147 21.9848 13.9534 22.1668C14.092 22.3488 14.1614 22.5784 14.1614 22.8558C14.1614 23.1071 14.105 23.3628 13.9924 23.6228C13.8797 23.8828 13.767 24.1254 13.6544 24.3508C13.5417 24.5761 13.4854 24.7711 13.4854 24.9358C13.4854 25.0571 13.5157 25.1394 13.5764 25.1828C13.6457 25.2174 13.7237 25.2348 13.8104 25.2348C14.0184 25.2348 14.235 25.1741 14.4604 25.0528C14.6857 24.9228 14.9067 24.7581 15.1234 24.5588C15.34 24.3594 15.5307 24.1514 15.6954 23.9348C15.86 23.7094 15.9857 23.5058 16.0724 23.3238L16.3844 23.5578C16.2197 23.9304 15.9814 24.2988 15.6694 24.6628C15.3574 25.0181 15.0107 25.3128 14.6294 25.5468C14.248 25.7721 13.8624 25.8848 13.4724 25.8848ZM22.589 25.9498C22.251 25.9498 21.9997 25.8501 21.835 25.6508C21.6704 25.4514 21.588 25.2131 21.588 24.9358C21.588 24.7364 21.6184 24.5371 21.679 24.3378C21.7397 24.1384 21.8004 23.9434 21.861 23.7528C21.9217 23.5534 21.952 23.3758 21.952 23.2198C21.952 23.0724 21.9217 22.9728 21.861 22.9208C21.809 22.8601 21.7397 22.8298 21.653 22.8298C21.4537 22.8298 21.2197 22.9814 20.951 23.2848C20.691 23.5881 20.366 24.0301 19.976 24.6108C19.8374 24.8188 19.7074 25.0398 19.586 25.2738C19.4647 25.4991 19.3564 25.6898 19.261 25.8458C19.183 25.8458 19.079 25.8328 18.949 25.8068C18.8277 25.7808 18.7194 25.7418 18.624 25.6898C18.5287 25.6464 18.481 25.5858 18.481 25.5078C18.481 25.4298 18.5244 25.2781 18.611 25.0528C18.6977 24.8274 18.7974 24.5674 18.91 24.2728C19.0227 23.9694 19.1224 23.6748 19.209 23.3888C19.2957 23.0941 19.339 22.8471 19.339 22.6478C19.339 22.5264 19.3174 22.4311 19.274 22.3618C19.2307 22.2924 19.1614 22.2578 19.066 22.2578C18.884 22.2578 18.663 22.3661 18.403 22.5828C18.1517 22.7994 17.883 23.0854 17.597 23.4408C17.3197 23.7874 17.0554 24.1774 16.804 24.6108C16.5614 25.0354 16.362 25.4644 16.206 25.8978C16.1107 25.8978 15.9937 25.8761 15.855 25.8328C15.7164 25.7981 15.595 25.7504 15.491 25.6898C15.387 25.6378 15.335 25.5901 15.335 25.5468C15.335 25.5381 15.3654 25.4168 15.426 25.1828C15.4867 24.9401 15.5604 24.6411 15.647 24.2858C15.7337 23.9304 15.8247 23.5664 15.92 23.1938C16.0154 22.8211 16.0977 22.4961 16.167 22.2188C16.193 22.1234 16.2884 22.0411 16.453 21.9718C16.6177 21.8938 16.7607 21.8548 16.882 21.8548C17.0034 21.8548 17.1074 21.8938 17.194 21.9718C17.2807 22.0498 17.324 22.1538 17.324 22.2838C17.324 22.3704 17.3067 22.4961 17.272 22.6608C17.2374 22.8254 17.194 23.0118 17.142 23.2198C17.324 22.9771 17.5147 22.7388 17.714 22.5048C17.922 22.2621 18.1344 22.0454 18.351 21.8548C18.5764 21.6641 18.7974 21.5124 19.014 21.3998C19.2394 21.2871 19.4604 21.2308 19.677 21.2308C19.9977 21.2308 20.2144 21.3478 20.327 21.5818C20.4397 21.8071 20.496 22.0541 20.496 22.3228C20.496 22.4354 20.4874 22.5481 20.47 22.6608C20.4527 22.7648 20.4267 22.8731 20.392 22.9858C20.366 23.0898 20.327 23.2154 20.275 23.3628C20.4397 23.1201 20.6174 22.8991 20.808 22.6998C21.0074 22.4918 21.2197 22.3271 21.445 22.2058C21.6704 22.0844 21.9087 22.0238 22.16 22.0238C22.498 22.0238 22.732 22.1278 22.862 22.3358C22.992 22.5351 23.057 22.7561 23.057 22.9988C23.057 23.2241 23.018 23.4624 22.94 23.7138C22.8707 23.9564 22.797 24.1904 22.719 24.4158C22.6497 24.6324 22.615 24.8188 22.615 24.9748C22.615 25.0614 22.6367 25.1438 22.68 25.2218C22.7234 25.2911 22.81 25.3258 22.94 25.3258C23.174 25.3258 23.3994 25.2174 23.616 25.0008C23.8327 24.7841 24.032 24.5198 24.214 24.2078C24.4047 23.8871 24.565 23.5838 24.695 23.2978L24.916 23.5708C24.7774 23.9261 24.5954 24.2901 24.37 24.6628C24.1534 25.0268 23.8977 25.3301 23.603 25.5728C23.3084 25.8241 22.9704 25.9498 22.589 25.9498ZM25.1001 26.1578C24.8141 26.1578 24.5671 26.0624 24.3591 25.8718C24.1424 25.6811 24.0341 25.3951 24.0341 25.0138C24.0341 24.7104 24.1034 24.3811 24.2421 24.0258C24.3807 23.6704 24.5714 23.3194 24.8141 22.9728C25.0567 22.6261 25.3341 22.3141 25.6461 22.0368C25.9581 21.7508 26.2917 21.5211 26.6471 21.3478C27.0024 21.1744 27.3577 21.0878 27.7131 21.0878C28.0857 21.0878 28.4021 21.1831 28.6621 21.3738C28.9221 21.5644 29.0521 21.8158 29.0521 22.1278C29.0521 22.3618 28.9697 22.5308 28.8051 22.6348C28.6404 22.7388 28.4454 22.7691 28.2201 22.7258C28.2374 22.6478 28.2504 22.5698 28.2591 22.4918C28.2764 22.4138 28.2851 22.3314 28.2851 22.2448C28.2851 22.0714 28.2504 21.9154 28.1811 21.7768C28.1117 21.6381 27.9644 21.5688 27.7391 21.5688C27.4964 21.5688 27.2494 21.6511 26.9981 21.8158C26.7467 21.9804 26.5041 22.1971 26.2701 22.4658C26.0447 22.7258 25.8411 23.0161 25.6591 23.3368C25.4771 23.6488 25.3341 23.9564 25.2301 24.2598C25.1261 24.5631 25.0741 24.8361 25.0741 25.0788C25.0741 25.3561 25.1737 25.4948 25.3731 25.4948C25.5724 25.4948 25.7934 25.3994 26.0361 25.2088C26.2787 25.0094 26.5214 24.7624 26.7641 24.4678C27.0154 24.1731 27.2537 23.8741 27.4791 23.5708C27.7044 23.2588 27.8994 22.9944 28.0641 22.7778C28.0901 22.7344 28.1247 22.7128 28.1681 22.7128C28.2027 22.7214 28.2677 22.7431 28.3631 22.7778C28.4671 22.8038 28.5624 22.8471 28.6491 22.9078C28.7357 22.9684 28.7791 23.0464 28.7791 23.1418C28.7791 23.2284 28.7401 23.3411 28.6621 23.4798C28.5927 23.6098 28.5061 23.7571 28.4021 23.9218C28.3067 24.0778 28.2201 24.2381 28.1421 24.4028C28.0727 24.5588 28.0381 24.7104 28.0381 24.8578C28.0381 24.9704 28.0684 25.0788 28.1291 25.1828C28.1897 25.2781 28.2894 25.3258 28.4281 25.3258C28.6361 25.3258 28.9264 25.1741 29.2991 24.8708C29.6804 24.5588 30.0661 24.0344 30.4561 23.2978L30.7031 23.5448C30.4951 24.0128 30.2437 24.4288 29.9491 24.7928C29.6631 25.1481 29.3597 25.4254 29.0391 25.6248C28.7184 25.8328 28.3934 25.9368 28.0641 25.9368C27.7087 25.9368 27.4444 25.8241 27.2711 25.5988C27.0977 25.3734 27.0024 25.1308 26.9851 24.8708C26.9851 24.8534 26.9851 24.8404 26.9851 24.8318C26.9851 24.8231 26.9851 24.8144 26.9851 24.8058C26.6384 25.2218 26.3177 25.5511 26.0231 25.7938C25.7371 26.0364 25.4294 26.1578 25.1001 26.1578ZM32.5534 25.8848C32.2328 25.8848 31.9728 25.7981 31.7734 25.6248C31.5741 25.4601 31.4744 25.2348 31.4744 24.9488C31.4744 24.7061 31.5351 24.4461 31.6564 24.1688C31.7778 23.8914 31.8991 23.6184 32.0204 23.3498C32.1504 23.0811 32.2154 22.8428 32.2154 22.6348C32.2154 22.4354 32.1504 22.2708 32.0204 22.1408C31.8904 22.0021 31.7388 21.8894 31.5654 21.8028C31.3748 22.2794 31.1581 22.7431 30.9154 23.1938C30.6814 23.6358 30.4908 23.9824 30.3434 24.2338L30.1484 23.8568C30.2698 23.6314 30.4301 23.3108 30.6294 22.8948C30.8288 22.4788 31.0194 22.0151 31.2014 21.5038C31.1148 21.4171 31.0714 21.3001 31.0714 21.1528C31.0714 20.9274 31.1408 20.7151 31.2794 20.5158C31.4181 20.3164 31.5524 20.2168 31.6824 20.2168C31.7864 20.2168 31.8601 20.2774 31.9034 20.3988C31.9554 20.5114 31.9814 20.5894 31.9814 20.6328C31.9814 20.6761 31.9598 20.7541 31.9164 20.8668C31.8818 20.9794 31.8558 21.0618 31.8384 21.1138C31.8471 21.2091 31.9208 21.3044 32.0594 21.3998C32.2068 21.4864 32.3714 21.5904 32.5534 21.7118C32.7354 21.8331 32.8958 21.9848 33.0344 22.1668C33.1731 22.3488 33.2424 22.5784 33.2424 22.8558C33.2424 23.1071 33.1861 23.3628 33.0734 23.6228C32.9608 23.8828 32.8481 24.1254 32.7354 24.3508C32.6228 24.5761 32.5664 24.7711 32.5664 24.9358C32.5664 25.0571 32.5968 25.1394 32.6574 25.1828C32.7268 25.2174 32.8048 25.2348 32.8914 25.2348C33.0994 25.2348 33.3161 25.1741 33.5414 25.0528C33.7668 24.9228 33.9878 24.7581 34.2044 24.5588C34.4211 24.3594 34.6118 24.1514 34.7764 23.9348C34.9411 23.7094 35.0668 23.5058 35.1534 23.3238L35.4654 23.5578C35.3008 23.9304 35.0624 24.2988 34.7504 24.6628C34.4384 25.0181 34.0918 25.3128 33.7104 25.5468C33.3291 25.7721 32.9434 25.8848 32.5534 25.8848ZM35.4951 29.1868C35.2784 29.1868 35.0748 29.1174 34.8841 28.9788C34.7021 28.8488 34.6111 28.6364 34.6111 28.3418C34.6111 28.0644 34.6934 27.8131 34.8581 27.5878C35.0228 27.3711 35.2351 27.1674 35.4951 26.9768C35.7551 26.7948 36.0324 26.6258 36.3271 26.4698C36.6304 26.3224 36.9208 26.1838 37.1981 26.0538C37.2934 25.8024 37.3974 25.4861 37.5101 25.1048C37.6314 24.7148 37.7354 24.3551 37.8221 24.0258C37.5534 24.3984 37.2674 24.7278 36.9641 25.0138C36.6608 25.2998 36.3228 25.4428 35.9501 25.4428C35.7941 25.4428 35.6294 25.4124 35.4561 25.3518C35.2828 25.2824 35.1354 25.1698 35.0141 25.0138C34.9014 24.8491 34.8451 24.6324 34.8451 24.3638C34.8451 24.1384 34.8841 23.8654 34.9621 23.5448C35.0488 23.2241 35.1528 22.9121 35.2741 22.6088C35.4041 22.2968 35.5384 22.0411 35.6771 21.8418C35.8158 21.6338 35.9371 21.5298 36.0411 21.5298C36.0931 21.5298 36.1668 21.5514 36.2621 21.5948C36.3661 21.6294 36.4658 21.6814 36.5611 21.7508C36.6564 21.8114 36.7171 21.8808 36.7431 21.9588C36.6651 22.0628 36.5784 22.2144 36.4831 22.4138C36.3878 22.6044 36.2968 22.8211 36.2101 23.0638C36.1234 23.2978 36.0498 23.5274 35.9891 23.7528C35.9371 23.9781 35.9111 24.1731 35.9111 24.3378C35.9111 24.4678 35.9371 24.5804 35.9891 24.6758C36.0411 24.7711 36.1408 24.8188 36.2881 24.8188C36.4788 24.8188 36.6738 24.7408 36.8731 24.5848C37.0811 24.4288 37.2804 24.2294 37.4711 23.9868C37.6704 23.7441 37.8481 23.4971 38.0041 23.2458C38.0214 23.1851 38.0388 23.0898 38.0561 22.9598C38.0734 22.8298 38.1038 22.6954 38.1471 22.5568C38.1904 22.4094 38.2641 22.2751 38.3681 22.1538C38.4808 22.0324 38.6368 21.9718 38.8361 21.9718C38.9054 21.9718 38.9704 21.9761 39.0311 21.9848C39.0918 21.9934 39.1654 22.0064 39.2521 22.0238C39.2521 22.1538 39.2044 22.4094 39.1091 22.7908C39.0224 23.1634 38.9054 23.5968 38.7581 24.0908C38.6108 24.5848 38.4461 25.0788 38.2641 25.5728C38.6281 25.4254 39.0051 25.1828 39.3951 24.8448C39.7938 24.4981 40.1144 24.0084 40.3571 23.3758L40.5781 23.5578C40.4481 23.9911 40.2488 24.3681 39.9801 24.6888C39.7201 25.0094 39.4254 25.2824 39.0961 25.5078C38.7668 25.7331 38.4331 25.9194 38.0951 26.0668C37.8611 26.6301 37.6054 27.1501 37.3281 27.6268C37.0594 28.1034 36.7734 28.4804 36.4701 28.7578C36.1668 29.0438 35.8418 29.1868 35.4951 29.1868ZM35.3651 28.7058C35.5298 28.7058 35.7594 28.5324 36.0541 28.1858C36.3488 27.8391 36.6478 27.3191 36.9511 26.6258C36.6738 26.7644 36.3921 26.9248 36.1061 27.1068C35.8288 27.2974 35.5948 27.4968 35.4041 27.7048C35.2134 27.9128 35.1181 28.1251 35.1181 28.3418C35.1181 28.4284 35.1354 28.5108 35.1701 28.5888C35.2134 28.6668 35.2784 28.7058 35.3651 28.7058Z" fill="#555555"/>
</svg>
