<svg width="309" height="440" viewBox="0 0 309 440" fill="none" xmlns="http://www.w3.org/2000/svg">
<path d="M96.2078 48.6746C87.9378 38.9646 72.4878 48.4746 64.7478 54.2946C55.1178 61.5346 47.6278 71.3846 43.7278 82.7646C43.0078 77.4846 41.0878 68.4146 35.6478 73.2646C29.6878 78.5746 31.5178 90.9946 34.4978 97.2146C34.4478 97.2146 34.3978 97.2146 34.3478 97.2146C34.0378 96.9346 33.5678 96.8546 33.1778 97.2446C33.1678 97.2546 33.1678 97.2646 33.1578 97.2646C32.4078 97.3746 31.9978 97.9446 31.9378 98.5746C26.8278 104.145 23.5878 110.985 20.1478 117.705C16.1278 125.555 12.3578 133.535 8.81784 141.615C1.85784 157.465 -4.16216 173.705 -9.36216 190.215C-9.66216 191.165 -8.86216 192.045 -7.94216 192.085C-2.98216 192.265 -0.812162 188.295 2.03784 184.645C5.45784 180.265 8.78784 175.825 12.0178 171.305C19.9078 160.265 27.1978 148.795 33.8678 136.975C36.9778 131.455 39.9478 125.865 42.7778 120.195C44.8278 116.095 48.0278 111.045 47.7578 106.235C47.7278 105.755 47.6678 105.305 47.5878 104.875C53.6678 107.935 62.7878 108.165 67.3978 103.375C69.1278 101.575 69.9278 98.9946 68.3778 96.8146C67.3678 95.3946 65.7678 94.8146 64.0678 94.6346C74.5178 91.8246 83.9878 85.8846 90.9878 77.4846C97.2578 69.9346 103.788 57.5646 96.2078 48.6746ZM43.3578 111.935C42.5378 115.775 39.5578 120.015 37.7478 123.525C33.7978 131.155 29.5878 138.655 25.1378 146.005C20.9178 152.965 16.4678 159.795 11.8078 166.465C9.47784 169.805 7.09784 173.105 4.65784 176.365C2.55784 179.175 -1.50216 186.555 -5.73216 188.575C-2.99216 180.005 -0.0121622 171.525 3.18784 163.115C3.38784 163.985 3.66784 164.825 4.07784 165.595C4.47784 166.345 5.63784 165.825 5.42784 165.025C5.02784 163.525 4.43784 162.135 4.16784 160.605C6.44784 154.715 8.80784 148.855 11.3278 143.055C11.5978 142.435 11.8878 141.825 12.1578 141.205C12.3278 142.265 12.6478 143.335 13.5278 143.925C13.9678 144.225 14.7278 143.945 14.8278 143.395C15.0378 142.215 14.3478 141.115 14.1278 139.955C13.9678 139.125 14.0478 138.215 13.8778 137.385C16.2778 132.085 18.7378 126.805 21.3078 121.585C21.5078 121.185 21.7078 120.765 21.9078 120.355C22.2678 122.345 22.9278 124.315 24.1878 125.545C24.8778 126.225 25.9078 125.525 25.7378 124.645C25.4778 123.335 24.6378 122.145 24.2078 120.875C23.8178 119.735 23.5478 118.555 23.3578 117.365C26.2178 111.415 29.1778 105.275 33.1678 100.095C33.2278 100.095 33.2678 100.125 33.3278 100.125C35.0878 100.105 37.0978 99.8546 38.7778 100.455C42.3578 101.745 44.1078 108.425 43.3578 111.935ZM84.1978 80.2846C76.3778 87.4046 66.9778 91.4246 56.6278 93.1346C55.0178 93.4046 55.3778 96.2246 57.0178 96.0146C57.7078 95.9246 58.3978 95.8146 59.0778 95.7046C59.1278 96.0846 59.4078 96.4346 59.8478 96.4146C61.9978 96.3346 69.4378 96.0746 64.8478 102.005C63.6978 103.485 59.7878 103.905 58.1078 104.035C53.4678 104.385 49.8478 102.705 45.8078 100.715C45.6978 100.665 45.5878 100.645 45.4778 100.625C43.2678 98.3146 39.7178 97.4546 36.1378 97.2646C36.2978 97.0546 36.3778 96.7846 36.2678 96.4846C34.4078 91.0646 33.6878 85.5246 35.2278 79.9246C35.4678 79.0346 35.9078 76.6946 36.6278 76.1846L39.7678 76.3146C39.8678 76.7046 39.9578 77.1046 40.0578 77.4946C41.2778 79.3346 41.2078 83.5846 41.8178 85.8146C42.1078 86.8546 43.7078 86.8546 44.0178 85.9646C44.2178 85.8846 44.3978 85.7446 44.4978 85.5046C48.2878 76.4746 53.3978 68.2146 60.5278 61.4346C67.1278 55.1646 84.6278 41.5746 93.5378 49.9746C102.868 58.7646 90.9678 74.1346 84.1978 80.2846Z" fill="#173B1A"/>
<path d="M137.118 73.5744C137.198 72.9244 137.298 72.2744 137.438 71.6344C138.228 67.8044 140.148 64.5944 141.658 61.0544C142.108 59.9944 140.848 58.7044 139.918 59.7144C138.108 61.6644 136.788 64.0744 135.898 66.6944C132.148 59.3744 123.698 53.5344 115.658 56.9044C114.878 57.2344 114.388 58.0344 114.868 58.8544C118.998 66.0444 126.038 71.1344 134.378 71.9644C134.508 71.9744 134.608 71.9444 134.698 71.9044C134.588 72.7344 134.528 73.5744 134.478 74.4044C120.278 69.5644 105.398 78.2544 103.118 93.2844C100.978 107.364 112.168 119.964 125.968 121.454C139.598 122.924 152.838 112.794 156.138 99.7044C159.308 87.0244 151.418 72.1944 137.118 73.5744ZM134.548 70.5844C134.058 70.4544 133.598 70.3044 133.118 70.1544C131.978 68.6344 130.278 67.4444 128.848 66.2144C127.108 64.7144 125.378 63.2244 123.618 61.7544C123.098 61.3244 122.358 62.0244 122.868 62.5044C124.508 64.0944 126.168 65.6544 127.838 67.2244C128.358 67.7144 128.878 68.2444 129.408 68.7744C124.738 66.6644 120.828 63.4244 118.028 58.9444C121.868 58.0744 125.668 59.2744 128.728 61.9544C131.518 64.3844 132.908 67.6044 134.878 70.5544C134.868 70.6244 134.848 70.6944 134.838 70.7644C134.768 70.6844 134.678 70.6144 134.548 70.5844ZM151.768 102.874C147.288 113.074 135.948 120.254 124.668 118.254C114.038 116.364 105.328 106.924 105.828 95.8844C106.498 81.2244 120.648 72.9444 134.138 75.9944C134.248 76.0144 134.338 76.0144 134.428 76.0044C134.418 78.5244 134.668 81.0144 135.208 83.2544C135.478 84.3844 137.448 84.1744 137.288 82.9744C136.998 80.8344 136.848 78.6944 136.898 76.5544C151.518 75.4044 156.888 91.2344 151.768 102.874Z" fill="#173B1A"/>
<path d="M66.5279 247.085C66.2679 245.935 66.0079 244.795 65.7279 243.655C65.4479 242.485 65.3679 241.485 64.3279 240.755C63.6979 240.305 62.9479 240.685 62.5879 241.245C47.1579 242.845 32.5079 239.385 19.2579 231.335C12.1379 227.015 3.10789 216.145 -5.93211 220.675C-7.71211 219.435 -8.95211 217.755 -9.50211 215.635C-9.89211 214.155 -9.87211 212.595 -10.8621 211.335C-12.3221 209.475 -15.1021 209.255 -17.1121 210.305C-22.8021 213.285 -19.5621 220.675 -15.8321 224.145C-15.8921 224.255 -15.9321 224.385 -15.9121 224.545C-14.5121 240.825 4.07789 250.325 17.9879 254.435C31.9979 258.575 55.5379 261.325 65.9479 248.345C66.3679 248.155 66.6679 247.725 66.5279 247.085ZM19.8979 252.225C5.95789 248.335 -9.64211 240.035 -13.9321 225.255C-13.1221 225.135 -12.4521 224.135 -12.9721 223.345C-14.2321 221.415 -16.2021 219.935 -16.9321 217.675C-17.5821 215.675 -16.3821 210.805 -13.4321 212.795C-12.3621 213.515 -12.3921 215.165 -12.0221 216.315C-11.7421 217.165 -11.3221 217.985 -10.8321 218.735C-9.96211 220.035 -8.86211 221.085 -7.58211 221.915C-7.86211 222.735 -7.01211 223.695 -5.99211 223.235C2.31789 219.515 9.46789 228.445 15.7079 232.495C20.2779 235.465 25.1279 237.965 30.2079 239.935C40.5679 243.955 51.5779 245.515 62.4779 243.115C62.6379 243.605 62.8779 244.085 63.0679 244.575C63.3479 245.285 63.6279 245.995 63.9179 246.705C54.0079 258.125 32.9079 255.855 19.8979 252.225Z" fill="#173B1A"/>
<path d="M44.1781 247.855C24.6381 248.445 7.07807 241.695 -6.23193 227.165C-6.58193 226.785 -7.10193 227.335 -6.79193 227.725C5.43807 242.465 24.9781 250.995 44.1781 248.815C44.7781 248.745 44.8081 247.835 44.1781 247.855Z" fill="#173B1A"/>
<path d="M29.2178 31.6145C29.3878 30.9445 28.5178 30.4645 28.0378 30.9545C27.2678 31.7445 26.4978 32.6644 25.2178 32.3544C23.7378 31.9944 23.3778 30.4045 23.7878 29.1545C24.0378 28.3945 22.9578 27.8445 22.4378 28.3945C21.8978 29.0945 21.1578 29.3845 20.2178 29.2545C18.8378 28.3745 18.7878 27.4444 20.0878 26.4644C20.6478 26.2444 20.4378 25.4044 19.8278 25.5444C18.1278 25.9444 17.3278 27.9745 18.2278 29.4845C19.0678 30.9045 20.6378 31.0345 21.9978 30.5145C22.3578 34.1345 28.1578 35.7245 29.2178 31.6145Z" fill="#173B1A"/>
<path d="M26.7578 47.3243C26.9478 46.6843 26.1078 45.9743 25.5378 46.4143C24.8778 46.9143 24.1978 47.6443 23.2778 47.3643C22.0378 46.9943 22.0478 45.5343 22.7378 44.7243C22.7878 44.6443 22.8578 44.5843 22.9078 44.5043C23.4178 43.5843 22.1678 42.6243 21.4278 43.3943C21.2478 43.5843 21.0878 43.7943 20.9478 44.0143C20.1778 44.6943 18.7578 44.4643 18.4678 43.3243C18.1778 42.2243 19.0078 41.1643 19.9178 40.6843C20.4778 40.3843 20.0778 39.4143 19.4778 39.6443C17.4778 40.4243 16.1478 42.9043 17.4878 44.8543C18.1678 45.8443 19.2978 46.2443 20.3778 46.1343C20.3978 47.0943 20.7978 48.0243 21.6278 48.6743C23.2478 49.9643 26.1378 49.4243 26.7578 47.3243Z" fill="#173B1A"/>
<path d="M18.988 65.8945C19.058 65.8545 19.138 65.8345 19.198 65.7745C37.158 50.1445 45.088 24.8145 42.088 1.57452C41.978 0.744521 41.208 0.234528 40.418 0.644528C30.258 5.97453 20.168 14.2045 13.358 24.1845C13.178 24.0345 12.998 23.8645 12.798 23.7345C12.358 23.3845 11.648 23.2445 11.228 23.7445C8.27795 27.2945 5.31796 30.8245 2.39796 34.3945C2.04796 34.8245 1.94796 35.4945 2.40796 35.9045C3.69796 37.0645 4.90796 38.3245 6.25796 39.4145C4.62796 45.6445 4.42796 52.2345 6.20796 59.0145C6.37796 59.6445 7.35796 59.5045 7.33796 58.8445C6.70796 42.0845 12.118 27.9645 22.298 16.9545C25.548 21.5845 32.488 28.7345 38.658 25.8545C35.518 40.0845 28.128 53.0245 17.518 64.1245C17.458 64.1845 17.438 64.2445 17.398 64.3045C16.798 64.4545 16.278 65.0045 16.478 65.7745C18.198 72.5445 17.498 79.2845 14.528 85.4945C10.808 80.1245 10.048 74.3645 9.93796 67.9145C9.98796 67.8645 10.048 67.8245 10.108 67.7645C11.218 66.6745 9.51795 65.0145 8.38795 66.0645C3.75795 70.3845 -1.86204 72.7145 -8.06204 72.8445C-4.15204 67.1845 0.887955 64.2045 6.72795 60.3545C7.26796 59.9945 6.89795 59.2845 6.30795 59.3645C-1.22205 60.4945 -7.62204 67.1745 -11.322 73.4245C-11.822 74.2645 -11.112 75.1645 -10.242 75.2245C-3.59204 75.6645 2.83796 73.7045 7.98796 69.6345C6.85796 76.3045 9.78796 83.5845 13.888 88.6645C14.388 89.2845 15.448 89.0145 15.788 88.3945C19.678 81.4345 20.748 73.6345 18.988 65.8945ZM4.58796 35.1045C7.07796 32.1645 9.54796 29.2045 12.018 26.2545C9.77796 29.8645 7.98796 33.6845 6.76796 37.6645C6.09796 36.7745 5.34796 35.9245 4.58796 35.1045ZM23.078 16.1245C27.798 11.2145 33.478 6.94453 40.038 3.36453C40.708 10.3945 40.348 17.2145 39.108 23.7645C32.278 25.6945 27.348 20.8645 23.078 16.1245Z" fill="#173B1A"/>
<path d="M34.0779 11.9343C31.9979 11.0143 29.8279 13.3143 30.9479 15.3443C31.2579 15.9143 32.0079 15.4843 31.9179 14.9243C31.7979 14.1943 32.7879 13.2843 33.5179 13.3743C34.2979 13.4543 34.9679 12.3243 34.0779 11.9343Z" fill="#173B1A"/>
<path d="M132.358 186.585C134.558 178.035 136.798 169.935 135.168 161.095C134.918 159.755 133.518 159.725 132.708 160.435C132.738 159.745 132.688 159.025 132.508 158.275C136.058 162.255 142.658 159.835 142.838 154.375C143.028 148.745 137.938 146.474 133.328 147.324C135.398 142.134 135.918 135.365 129.648 133.115C126.558 132.005 123.008 133.834 121.908 136.574C120.448 134.524 119.008 132.074 116.558 132.234C112.988 132.474 111.258 137.805 110.408 141.365C107.138 139.045 103.028 137.124 99.2982 139.394C96.6682 140.995 95.3882 144.034 96.4782 146.764C95.1982 147.164 93.9682 147.754 92.8482 148.534C90.8682 142.784 83.7182 141.444 79.9382 146.444C78.9382 142.564 74.9482 139.894 70.6382 140.694C63.6082 141.994 61.3982 148.865 61.8982 155.125C56.5382 152.765 49.8182 154.965 48.7982 161.615C48.6282 162.715 49.1582 164.965 50.0382 166.924C46.1382 166.114 41.7982 166.754 39.3182 170.164C37.4582 172.724 37.2182 176.104 38.6982 178.734C35.8182 179.364 33.0482 180.875 32.5382 184.055C32.1982 186.135 33.0582 188.345 34.7682 189.305C32.0282 191.905 30.6982 196.564 34.0882 199.224C36.4882 201.104 39.7482 200.555 41.5882 198.585C45.3082 204.525 54.8782 202.895 55.7582 195.145C56.0382 195.415 56.3582 195.635 56.6682 195.865C55.8882 195.665 55.0982 196.624 55.7882 197.354C68.8682 211.154 84.2282 219.114 101.248 227.044C105.798 229.164 110.228 231.554 113.748 235.224C116.748 238.344 118.608 242.265 121.388 245.555C124.928 249.735 130.558 253.484 136.218 251.314C151.298 245.534 135.598 226.185 132.668 218.204C128.808 207.674 129.628 197.235 132.358 186.585ZM100.028 142.215C102.328 140.855 104.458 140.794 106.398 142.034C107.968 142.684 109.238 143.675 110.588 144.685C111.218 145.155 112.338 144.674 112.468 143.914C113.058 140.574 114.648 133.094 119.018 136.264C120.068 137.024 120.758 138.145 121.638 139.095C121.728 139.635 121.918 140.184 122.228 140.724C122.828 141.794 124.168 141.075 124.138 140.055C124.238 139.925 124.308 139.764 124.328 139.604C126.968 134.964 129.328 134.365 131.428 137.845C132.188 139.005 132.438 140.254 132.178 141.604C132.218 144.404 131.108 146.574 129.678 148.944C128.998 150.074 130.338 151.344 131.458 150.724C133.968 149.314 137.688 148.894 139.568 151.824C141.838 155.354 137.038 160.435 133.598 156.555C133.038 155.925 132.318 156.305 132.078 156.895C131.938 156.555 131.788 156.204 131.598 155.854C130.858 154.474 128.828 155.684 129.518 157.074C133.058 164.264 122.898 169.234 119.358 161.974C118.848 160.934 117.058 161.414 117.138 162.574C117.468 167.084 113.238 169.064 110.018 167.424C111.498 165.264 111.338 162.104 108.638 159.884C110.678 157.264 110.758 153.064 108.308 150.014C105.968 147.094 102.608 145.964 99.2682 146.224L100.028 142.215ZM120.308 187.754C114.548 194.834 108.758 182.725 104.908 177.585C105.738 177.065 106.458 176.305 106.988 175.245C107.968 173.285 107.818 171.214 106.788 169.634C107.418 169.484 107.978 169.225 108.478 168.905C112.218 171.765 117.548 170.104 119.078 165.754C120.198 166.884 121.518 167.535 122.888 167.805C122.838 167.895 122.768 167.964 122.728 168.074C120.628 174.094 124.488 182.624 120.308 187.754ZM54.6182 193.395C54.1082 193.465 53.6282 193.804 53.5882 194.454C53.0982 201.075 44.5082 201.665 42.9082 195.375C42.5282 193.895 40.6182 194.404 40.4482 195.704C40.0082 199.124 34.7882 198.224 34.4682 194.734C34.2682 192.514 35.8782 190.704 37.4782 189.454C37.7582 189.244 37.8082 188.964 37.7282 188.704C37.7282 188.384 37.5782 188.084 37.2282 187.914C35.2682 187.024 34.3282 184.845 35.9682 182.835C37.0782 181.465 39.6282 181.145 41.1982 181.055C42.2682 180.995 43.0682 179.585 42.1382 178.775C39.3582 176.335 40.1282 172.034 43.0882 170.014C45.4982 168.364 48.5582 168.505 51.3082 169.095C52.5382 170.695 54.0282 171.245 55.3682 168.905C55.9782 167.825 54.4082 166.934 53.7182 167.944C52.1182 167.504 51.3382 166.494 51.3582 164.944C50.8282 163.624 50.8182 162.285 51.3382 160.935C53.3282 156.405 58.4282 154.964 62.5582 158.164C63.4682 158.864 64.7582 158.245 64.5082 157.025C63.6682 152.915 63.6882 148.215 67.0182 145.085C71.4182 140.945 78.1682 143.225 78.0882 149.435C78.0782 150.545 79.8782 150.854 80.0782 149.704C80.1582 149.254 80.1782 148.814 80.1782 148.384C80.3182 148.334 80.4482 148.254 80.5482 148.104C84.7582 143.244 88.2882 144.014 91.1382 150.414C91.2482 151.334 92.2382 151.834 92.9782 151.174C95.4182 148.994 98.4682 147.804 101.828 148.534C102.688 148.874 103.558 149.204 104.418 149.544C109.098 152.454 108.488 155.975 102.618 160.115C101.198 160.065 101.268 162.135 102.618 162.275C104.368 162.465 105.838 162.095 107.018 161.375C106.078 163.415 105.148 165.464 104.208 167.504C102.778 167.184 102.338 169.104 103.618 169.645C106.468 172.135 105.958 173.695 102.088 174.335C100.118 176.495 98.0882 176.664 96.0082 174.824C95.3182 174.444 94.3782 174.915 94.3982 175.745C94.4882 179.795 91.7882 182.024 88.8882 182.104C88.5182 180.844 87.0482 180.855 86.3682 181.595C85.0082 181.005 83.7682 179.895 82.9782 178.185C82.6982 177.575 81.7582 177.854 81.6582 178.414C81.0882 177.904 80.0682 178.495 80.5582 179.215C84.0782 184.495 76.9282 186.874 73.5782 184.984C70.9982 183.524 69.9782 180.904 69.3682 178.134C69.2082 177.414 68.0182 177.194 67.6982 177.914C66.0682 181.594 61.2682 184.044 57.4682 181.664C53.5782 179.234 54.0782 174.104 56.1482 170.754C56.6082 170.004 55.5682 169.224 54.9482 169.824C51.2982 173.374 51.8982 179.905 56.0182 182.905C58.8782 184.985 62.3682 184.794 65.1682 183.204C65.2382 183.364 65.3382 183.515 65.4982 183.655C68.2582 186.145 69.0582 190.674 66.2582 193.514C63.4282 196.384 58.7182 195.654 56.1082 192.954C55.5982 192.414 54.7582 192.814 54.6182 193.395ZM67.2982 181.835C67.2382 181.785 67.1782 181.775 67.1182 181.745C67.4682 181.415 67.8082 181.065 68.1082 180.685C69.4982 185.005 73.1082 189.385 78.0582 187.965C81.2382 187.055 83.3882 183.755 82.7882 180.715C83.7282 182.055 84.9282 182.945 86.2382 183.465C87.0282 186.365 87.6682 189.294 87.9582 192.294C88.1182 193.944 88.2082 195.634 88.1782 197.294C88.1382 200.264 88.3782 200.724 85.3882 202.294C82.3182 203.904 81.8582 203.324 79.0382 201.754C77.9282 201.134 76.8582 200.444 75.8082 199.724C73.3282 198.024 71.1682 196.074 69.0382 193.984C71.4982 190.274 70.8682 184.655 67.2982 181.835ZM139.238 241.314C137.158 243.754 135.068 246.204 132.988 248.645C130.508 248.545 128.408 247.695 126.688 246.095C121.228 241.985 118.778 234.935 113.418 230.555C108.338 226.405 102.128 224.044 96.1782 221.454C81.8382 215.224 69.0182 206.655 57.3382 196.275C60.4282 198.085 64.5982 198.024 67.4582 195.674C71.5682 200.365 81.8982 210.234 88.0882 205.984C90.6382 204.234 90.9682 200.954 91.0682 198.115C91.2282 193.325 90.5982 188.574 89.4082 183.954C92.6782 183.754 95.7882 181.414 96.4182 177.384C98.3782 178.224 100.678 178.724 102.708 178.384C106.688 183.954 110.658 196.484 119.738 192.264C128.528 188.184 123.428 175.834 125.748 168.895C125.888 168.485 125.828 168.145 125.698 167.845C128.568 167.395 131.208 165.444 132.258 162.694C134.288 177.914 125.228 192.084 126.868 207.484C127.528 213.704 129.348 219.715 132.258 225.245C133.848 228.265 135.928 231.035 137.398 234.125C138.238 235.965 139.738 239.214 139.238 241.314Z" fill="#173B1A"/>
<path d="M208.518 184.644C208.468 184.624 208.428 184.615 208.378 184.595C208.528 181.585 205.298 178.725 202.958 177.275C200.048 175.465 196.638 174.884 193.308 175.514C193.568 174.974 193.848 174.444 194.168 173.914C195.198 172.204 197.818 170.514 198.058 168.534C198.408 165.664 194.348 164.195 192.218 164.625C188.398 165.385 186.098 169.775 184.858 173.085C184.578 173.835 184.378 174.574 184.218 175.314C184.108 175.274 183.998 175.224 183.868 175.224C177.068 174.774 170.498 178.065 166.808 183.715C165.288 183.975 163.788 184.464 162.348 185.254C155.338 189.144 153.698 196.755 155.318 204.095C156.718 210.445 159.268 216.735 161.298 222.905C162.878 227.705 163.908 233.344 166.438 237.784C168.848 242.014 174.518 244.524 177.548 239.474C177.828 239.004 177.178 238.494 176.788 238.884C170.208 245.534 165.808 227.584 164.918 224.824C163.338 219.914 161.748 215.005 160.188 210.085C158.238 203.955 155.778 197.035 160.118 191.275C164.878 184.955 172.288 185.844 177.798 190.164C177.108 190.614 176.428 191.094 175.808 191.644C172.268 192.524 171.798 196.235 171.438 199.745C170.518 208.705 171.138 217.825 173.228 226.595C174.788 233.145 181.118 252.335 190.138 240.365C190.278 240.174 190.398 239.954 190.528 239.754C191.008 244.824 197.188 244.345 200.188 240.905C204.308 236.165 206.638 228.614 209.188 222.944C211.608 217.544 214.308 211.994 215.718 206.224C217.568 198.644 216.598 188.374 208.518 184.644ZM193.108 177.604C196.108 177.174 199.088 177.884 201.628 179.544C202.858 180.344 203.988 181.385 204.838 182.585C205.108 182.975 205.318 183.364 205.538 183.754C203.218 183.394 200.908 183.795 198.918 184.835C198.878 184.765 198.858 184.684 198.798 184.615C196.808 182.254 194.268 181.155 191.398 181.185C191.658 179.915 192.008 178.684 192.448 177.484C192.638 177.584 192.858 177.644 193.108 177.604ZM185.058 184.544C185.548 184.364 185.948 183.944 185.928 183.394C185.828 179.684 186.178 176.124 187.768 172.724C188.388 171.404 189.328 169.564 190.408 168.604C192.308 166.524 193.648 166.284 194.408 167.884C195.138 168.494 194.998 169.054 193.988 169.564C193.048 171.644 191.278 173.364 190.338 175.534C189.398 177.714 188.818 179.944 188.468 182.284C188.308 183.334 189.038 184.114 190.108 183.924C192.798 183.444 194.978 184.354 196.728 186.314C195.708 187.224 194.848 188.355 194.228 189.655C190.268 187.045 185.038 186.844 180.478 188.724C179.968 188.124 179.408 187.584 178.828 187.074C180.898 186.204 182.958 185.324 185.058 184.544ZM177.368 185.974C175.058 184.434 172.368 183.575 169.618 183.495C173.318 179.725 178.268 177.745 183.728 177.965C183.608 178.805 183.508 179.644 183.378 180.504C183.058 182.644 183.158 182.604 181.538 183.784C180.338 184.664 178.788 185.314 177.368 185.974ZM189.158 235.854C188.748 237.784 187.368 238.704 185.028 238.604C182.388 240.854 180.648 240.405 179.798 237.245C177.788 233.445 176.698 228.655 175.788 224.495C175.018 221.025 170.598 195.525 177.008 194.275C177.788 194.125 178.088 193.364 177.988 192.674C178.628 192.294 179.298 191.955 179.968 191.655C180.418 191.675 180.858 191.484 181.148 191.174C183.798 190.204 186.628 189.934 189.518 190.754C196.248 192.684 197.658 198.804 197.278 204.984C196.758 213.544 193.598 222.484 191.018 230.604C190.508 232.214 190.138 234.464 189.158 235.854ZM209.678 214.074C207.798 218.624 205.778 223.125 203.688 227.585C202.728 229.645 201.748 231.694 200.738 233.724L199.528 236.164C198.548 239.064 196.138 239.914 192.288 238.694C192.248 238.284 192.008 238.015 191.718 237.905C195.078 231.875 196.288 223.715 197.848 217.365C199.498 210.665 201.818 202.534 199.128 195.784C198.478 194.154 197.608 192.794 196.578 191.664C200.098 181.214 211.558 188.744 213.188 195.634C214.678 201.914 212.038 208.374 209.678 214.074Z" fill="#173B1A"/>
<path d="M79.0281 320.915C84.9681 318.655 83.8882 309.845 77.8082 308.955C79.1282 306.915 80.0881 304.475 80.9281 302.105C81.9081 302.695 83.1282 302.875 84.4182 302.375C85.7882 301.845 86.8782 300.585 87.1882 299.145C87.6282 297.085 86.1282 295.355 86.1582 293.335C86.1582 293.315 86.1481 293.305 86.1481 293.285C86.2181 293.175 86.2881 293.075 86.3281 292.935C88.2281 286.575 99.3081 282.075 103.958 277.895C107.598 274.625 110.648 270.815 112.158 266.095C115.128 256.815 110.618 248.555 101.618 245.295C92.4382 241.975 82.0482 245.075 76.2282 252.955C73.1582 257.105 71.9282 262.085 71.6582 267.175C71.3082 273.835 74.4282 282.515 72.6682 289.045C70.7682 290.995 67.4381 292.405 68.6081 295.585C69.3881 297.705 71.3982 297.905 73.2382 297.285C72.7482 298.325 72.2982 299.385 71.9082 300.475C71.6382 301.225 71.2982 302.035 71.0781 302.855C69.3981 301.765 67.4781 300.975 65.4681 301.715C63.4181 302.465 62.0082 304.635 61.9782 306.785C61.9182 311.555 66.2782 313.335 70.1882 312.695C69.0482 317.725 73.3281 323.085 79.0281 320.915ZM75.7982 298.095C75.5382 297.445 75.8482 296.505 75.9882 295.845C76.0082 295.745 76.0082 295.645 75.9882 295.555C76.0382 295.505 76.0882 295.455 76.1282 295.405C76.8682 294.545 75.7982 293.455 74.8682 293.975C73.9482 294.495 72.5481 295.965 71.3881 295.475C69.0581 294.475 71.9482 292.215 72.7382 291.475C72.9182 291.305 73.0882 291.125 73.2382 290.945C73.3582 290.915 73.4782 290.845 73.5882 290.715C77.5482 285.775 74.6382 277.015 74.5082 271.235C74.3681 264.765 75.2481 258.175 79.7481 253.195C85.1181 247.235 94.0481 245.155 101.498 248.275C117.548 255.005 108.068 271.515 98.4581 278.765C93.3781 282.605 85.4982 285.715 83.8382 292.435C83.7282 292.865 83.8382 293.205 84.0482 293.455C83.8382 294.855 84.4381 295.935 84.8181 297.295C85.5181 299.805 83.0582 300.755 81.7282 299.865C81.7482 299.805 81.7681 299.745 81.7881 299.695C81.9981 299.125 81.4281 298.655 80.9981 298.805C80.9281 298.545 80.8981 298.265 80.9281 297.935C81.0481 296.655 79.4482 295.985 78.7582 297.185C78.2582 298.055 76.5882 300.115 75.7982 298.095ZM73.1982 311.405C73.7082 310.605 72.6782 309.365 71.7982 309.805C69.6382 310.875 66.6882 311.385 65.0582 308.855C63.6082 305.575 64.7682 303.865 68.5482 303.735C69.3382 304.005 70.1182 304.315 70.8782 304.645C70.8882 304.705 70.8781 304.775 70.8881 304.835C70.9881 305.565 71.8582 305.715 72.2382 305.115C72.9982 303.935 73.0781 302.355 73.4681 301.025C73.6481 300.395 73.8681 299.785 74.0781 299.175C74.2182 299.835 74.5382 300.425 75.1582 300.885C76.6382 301.955 78.0582 301.345 79.1982 300.285C79.3482 300.565 79.5281 300.825 79.7181 301.075C79.1881 302.175 78.6682 303.275 78.1282 304.365C77.3482 305.935 76.3581 307.455 75.8181 309.125C75.7181 309.435 75.8581 309.705 76.0781 309.885C75.9881 310.385 76.2081 310.915 76.8981 311.035C81.7781 311.885 82.0681 318.675 76.8581 319.135C72.5981 319.475 71.2382 314.465 73.1982 311.405Z" fill="#173B1A"/>
<path d="M186.108 260.785C181.048 255.805 174.188 254.515 167.618 256.875C164.898 257.855 162.458 259.655 159.578 260.215C155.188 261.065 151.838 259.335 148.138 257.515C144.568 255.765 141.378 254.355 137.358 254.265C136.608 254.245 136.228 254.795 136.208 255.375C122.478 257.635 120.048 276.655 126.928 287.285C136.438 301.965 157.028 306.785 172.778 300.275C187.238 294.295 199.728 274.205 186.108 260.785ZM179.048 293.515C166.768 302.855 148.738 302.555 136.458 293.355C123.648 283.755 120.158 261.195 138.558 256.785C144.038 257.445 148.248 261.135 153.558 262.425C157.588 263.405 160.938 262.335 164.688 260.825C174.078 257.045 184.748 257.905 188.328 269.265C191.238 278.525 186.358 287.955 179.048 293.515Z" fill="#173B1A"/>
<path d="M178.288 276.915C177.628 270.265 170.758 264.655 164.068 266.905C163.708 267.025 163.488 267.295 163.388 267.595C158.038 267.775 154.058 272.695 154.348 278.265C154.698 285.075 161.178 290.525 167.958 289.685C174.188 288.915 178.908 283.175 178.288 276.915ZM168.678 286.895C163.988 288.085 158.718 284.945 157.248 280.385C155.508 274.985 158.758 270.005 163.898 268.965C164.028 269.025 164.178 269.055 164.358 269.055C169.648 268.915 174.568 270.595 175.658 276.495C176.548 281.265 173.308 285.715 168.678 286.895Z" fill="#173B1A"/>
<path d="M-5.66215 263.535C-5.88215 263.775 -5.91215 264.055 -5.84215 264.295C-10.2521 269.215 -12.8221 276.115 -11.1521 282.685C-10.2821 286.085 -8.86215 288.905 -8.89215 292.505C-8.92215 295.455 -9.75215 298.175 -10.3721 301.025C-11.1821 304.805 -11.6221 307.815 -10.2421 311.365C-10.2321 311.445 -10.2221 311.535 -10.1921 311.625C-9.53215 313.365 -7.06215 314.885 -5.21215 314.775C-3.59215 314.685 -2.44215 313.645 -2.29215 312.155C-1.98215 312.035 -1.76215 311.725 -1.93215 311.355C-2.46215 310.235 -2.75215 309.085 -2.89215 307.915C13.9879 304.655 30.5779 298.075 46.8979 292.795C47.5878 292.575 47.8378 291.525 47.2178 291.075C33.4478 280.935 15.7379 275.655 -0.00214863 269.205C0.0378513 269.075 0.067852 268.945 0.107852 268.815C0.227852 268.785 0.337851 268.725 0.397851 268.575C1.08785 266.915 0.747852 265.045 -0.622148 263.825C-1.85215 262.735 -4.43215 262.195 -5.66215 263.535ZM3.01785 304.865C1.42785 302.625 3.32785 299.475 5.79785 298.875C8.41785 298.235 9.81785 300.095 10.7379 302.125C8.13785 303.005 5.56785 303.905 3.01785 304.865ZM36.6978 293.985C35.5279 294.355 34.3479 294.715 33.1679 295.075C32.8479 294.505 32.9879 293.705 33.4278 293.205C33.9879 292.565 34.7279 292.225 35.5079 291.955C35.7779 292.645 36.1079 293.305 36.5679 293.875C36.6079 293.925 36.6578 293.945 36.6978 293.985ZM17.3679 278.325C17.3479 278.345 17.3379 278.355 17.3179 278.385C16.9079 279.095 16.4979 279.795 16.0879 280.505C15.8579 280.895 15.3079 282.345 14.7579 282.365C14.4479 282.375 13.9679 281.885 13.6779 281.765C13.6179 281.735 13.5579 281.735 13.4979 281.705C13.9379 280.245 14.5179 278.845 15.2579 277.505C15.9679 277.775 16.6679 278.055 17.3679 278.325ZM13.7779 276.935C12.8679 278.615 12.1779 280.375 11.7079 282.225C11.5879 282.675 12.0479 283.275 12.5479 283.175C13.6679 282.945 14.3979 284.545 15.6779 283.785C16.3078 283.415 16.5579 282.585 16.8379 281.955C17.3079 280.915 17.7879 279.885 18.2579 278.845C18.2779 278.795 18.2879 278.745 18.2979 278.695C27.3979 282.285 36.3878 286.225 44.3078 291.525C42.3078 292.195 40.2779 292.835 38.2579 293.485C38.2979 293.285 38.2479 293.065 38.0679 292.855C37.5079 292.195 37.0378 291.545 36.6978 290.745C36.5378 290.375 36.1179 290.105 35.7178 290.275C34.2979 290.875 32.3879 291.705 32.2479 293.455C32.1979 294.085 32.2679 294.745 32.5479 295.275C25.8879 297.325 19.1779 299.335 12.5679 301.525C12.1079 298.105 7.57785 296.185 4.57785 297.445C1.68785 298.655 -0.432149 302.825 1.90785 305.315C0.277851 305.945 -1.35215 306.575 -2.96215 307.255C-3.39215 301.055 0.407852 294.235 -0.732148 287.815C-1.28215 284.715 -3.48215 281.035 -3.21215 277.915C-3.01215 275.545 -1.77215 273.435 -0.792148 271.275C3.94785 273.205 8.84785 275.045 13.7779 276.935ZM-1.83215 265.195C-1.26215 265.565 -0.872149 266.155 -0.662148 266.795C-0.732148 266.865 -0.792149 266.955 -0.822148 267.075C-1.03215 267.755 -1.31215 268.385 -1.62215 268.995C-2.03215 269.225 -2.28215 269.695 -2.24215 270.135C-3.27215 271.895 -4.42215 273.535 -4.80215 275.655C-5.56215 279.835 -3.43215 284.125 -2.89215 288.165C-1.85215 295.955 -7.96215 304.535 -3.31215 311.595C-3.60215 312.685 -5.29215 312.825 -6.12215 312.495C-7.21215 312.055 -7.84215 310.945 -8.91215 310.525C-9.03215 310.475 -9.15215 310.465 -9.28215 310.465C-9.19215 303.195 -5.49215 296.015 -6.82215 288.825C-7.44215 285.465 -9.39215 282.525 -9.51215 279.025C-9.69215 273.855 -6.95215 269.425 -4.33215 265.225C-4.25215 265.105 -4.22215 264.985 -4.21215 264.865C-3.92215 264.795 -3.62215 264.725 -3.31215 264.735C-2.80215 264.735 -2.28215 264.905 -1.83215 265.195Z" fill="#173B1A"/>
<path d="M2.59764 287.455C2.24764 287.565 2.08764 287.915 2.07764 288.255C2.03764 289.865 2.08764 291.585 2.50764 293.145C2.64764 293.655 3.17764 293.755 3.58764 293.595C5.58764 294.405 8.05764 292.575 7.87764 290.425C7.65764 287.935 4.72764 286.795 2.59764 287.455ZM6.37764 290.395C6.73764 291.845 5.30764 292.675 4.06764 292.625C3.90764 291.345 3.71764 290.105 3.66764 288.825C4.77764 288.725 6.08764 289.245 6.37764 290.395Z" fill="#173B1A"/>
<path d="M1.15777 275.425C-1.08223 276.335 -2.59223 279.805 -1.04223 281.885C-0.892231 282.095 -0.612231 282.165 -0.372231 282.125C0.347769 283.815 2.33777 284.655 4.12777 284.195C6.51777 283.585 7.43777 280.875 6.85777 278.665C6.20777 276.245 3.62777 274.415 1.15777 275.425ZM5.07777 279.105C5.47777 280.405 5.09777 282.025 3.78777 282.645C2.47777 283.265 0.707768 282.665 0.187768 281.305C0.167768 281.255 0.137768 281.255 0.107768 281.215C0.177768 279.785 -0.132232 278.335 1.27777 277.365C2.85777 276.265 4.58777 277.495 5.07777 279.105Z" fill="#173B1A"/>
<path d="M10.8879 288.245C10.4679 288.765 10.2479 289.245 10.1979 289.925C10.1379 290.695 11.2379 290.965 11.4079 290.165C11.4279 289.995 11.4979 289.855 11.5579 289.715C12.4579 290.395 13.4079 291.005 14.3379 291.625C14.8079 291.935 15.6579 292.305 16.0179 292.735C16.5679 293.395 16.3479 293.935 15.9579 294.415C14.3579 292.935 12.5179 291.745 10.4979 290.885C9.61787 290.515 8.96787 291.815 9.83787 292.225C11.9779 293.225 13.7979 294.585 15.4379 296.285C15.7779 296.635 16.3579 296.505 16.6579 296.195C17.7679 295.045 18.8379 293.315 17.5879 291.865C16.9679 291.145 15.9579 290.665 15.1779 290.165C14.0579 289.445 12.9379 288.665 11.7479 288.085C11.4679 287.935 11.0779 287.995 10.8879 288.245Z" fill="#173B1A"/>
<path d="M21.6279 284.815C19.8779 286.395 19.0479 290.135 21.0879 291.835C21.5679 294.195 24.9679 294.715 27.0079 293.725C29.8679 292.345 31.1679 288.755 29.2879 286.045C27.5979 283.605 23.9279 282.725 21.6279 284.815ZM26.6679 286.135C28.3579 287.285 28.8079 289.325 27.5779 290.995C27.0379 291.725 26.2679 292.295 25.3979 292.565C24.3879 292.885 22.9979 292.725 22.2479 291.905C22.3579 291.765 22.3979 291.585 22.2979 291.355C21.6579 289.875 21.1879 288.555 22.0579 287.025C23.0479 285.315 25.1079 285.085 26.6679 286.135Z" fill="#173B1A"/>
<path d="M12.188 338.695C10.998 336.065 9.08795 335.335 7.50795 333.205C4.63795 329.355 6.87795 326.195 5.39795 322.375C1.81795 313.095 -14.242 315.305 -16.582 324.265C-16.622 324.425 -16.632 324.575 -16.602 324.715C-21.502 330.985 -20.652 341.575 -15.642 347.435C-9.59205 354.515 4.00795 357.135 10.878 349.655C13.648 346.635 13.848 342.345 12.188 338.695ZM3.55795 351.245C-3.72205 353.235 -12.182 349.895 -15.812 343.235C-19.892 335.745 -16.542 328.475 -12.512 321.975C-12.402 321.805 -12.502 321.625 -12.642 321.545C-7.61205 316.255 2.55795 318.275 3.68795 326.885C3.98795 329.155 3.25795 330.885 4.47795 333.025C5.64795 335.105 8.11795 336.195 9.42795 338.215C12.938 343.645 9.27795 349.685 3.55795 351.245Z" fill="#173B1A"/>
<path d="M52.8079 324.994C52.7079 321.014 49.8279 317.364 46.6079 315.354C46.3979 315.224 46.1879 315.404 46.1779 315.604C40.1679 312.754 32.2379 314.774 31.8479 322.874C31.5579 328.764 34.9179 327.304 29.0679 335.484C27.6779 337.434 26.2579 338.534 25.5379 340.964C24.3579 344.974 25.5179 349.354 28.4779 352.254C35.2779 358.904 47.1479 355.044 52.3679 348.134C57.3879 341.484 56.3179 332.444 52.8079 324.994ZM35.6779 353.104C31.6579 353.354 28.8979 351.334 27.3779 347.054C26.1879 342.264 27.7779 338.454 32.1379 335.634C32.7579 334.934 33.8179 334.454 34.1679 333.554C35.3479 330.474 34.4479 332.414 34.9179 329.294C34.8179 328.494 34.6679 327.704 34.4679 326.914C33.9879 316.424 38.3479 313.694 47.5379 318.724C47.5579 318.744 47.5779 318.744 47.6079 318.754C51.2479 324.304 53.6079 330.674 53.3079 337.414C52.8979 346.594 44.9779 354.404 35.6779 353.104Z" fill="#173B1A"/>
<path d="M128.488 313.855C128.308 312.445 127.398 310.735 126.028 310.105C131.408 299.535 125.248 284.605 111.788 285.965C101.158 287.045 92.9179 303.015 100.828 311.265C99.6679 311.885 98.6879 312.725 98.4679 314.145C98.2379 315.585 98.8379 317.075 99.9779 317.975C100.868 318.675 102.008 318.825 103.078 318.585C103.708 325.325 104.938 331.975 106.288 338.605C107.548 344.755 108.278 352.405 111.108 358.025C111.248 358.295 111.638 358.545 111.948 358.505C116.338 357.975 116.698 350.505 117.668 347.155C120.318 338.015 122.248 328.745 123.728 319.345C124.668 319.375 125.618 319.075 126.438 318.485C127.908 317.455 128.718 315.635 128.488 313.855ZM118.328 337.255C117.548 340.425 115.568 353.175 112.778 353.495C109.998 353.815 105.658 325.765 104.258 318.145C104.538 317.985 104.818 317.815 105.048 317.595C105.708 318.895 107.018 319.945 108.408 320.275C110.458 320.765 113.158 319.795 114.628 318.055C115.278 319.075 116.548 319.715 117.828 319.555C118.748 319.445 119.898 318.735 120.698 317.805C120.918 318.115 121.208 318.405 121.558 318.645C121.728 318.765 121.908 318.865 122.088 318.955C121.058 325.105 119.808 331.205 118.328 337.255ZM126.108 315.925C125.648 316.635 124.738 317.315 123.878 317.375C122.918 317.445 121.478 316.745 121.708 315.575C121.748 315.355 121.668 315.155 121.538 314.995C121.508 314.905 121.478 314.815 121.438 314.725C121.288 314.425 120.848 314.315 120.568 314.495C119.548 315.135 119.468 316.605 118.438 317.335C117.398 318.075 115.558 317.615 115.608 316.155C115.618 316.115 115.638 316.085 115.648 316.055C115.788 315.305 115.008 314.905 114.438 315.355C112.898 316.565 111.918 318.285 109.728 318.405C107.848 318.515 106.548 317.175 106.108 315.525C106.138 315.195 106.118 314.855 106.028 314.495C105.988 314.355 105.908 314.255 105.828 314.185C105.818 314.175 105.818 314.165 105.808 314.155C105.798 314.145 105.778 314.135 105.768 314.125C105.598 313.975 105.348 313.955 105.168 314.115C104.998 314.185 104.838 314.305 104.778 314.495C104.548 315.165 104.028 315.885 103.398 316.325C103.238 316.345 103.098 316.425 103.008 316.545C102.358 316.845 101.648 316.825 101.008 316.125C99.6979 314.665 100.618 313.225 101.828 312.195C101.838 312.205 101.838 312.205 101.848 312.215C102.228 312.525 102.818 312.135 102.558 311.675C102.538 311.645 102.528 311.605 102.508 311.575C102.658 311.255 102.458 310.885 102.128 310.815C98.0279 302.565 100.298 290.205 110.758 288.035C123.518 285.385 129.228 300.225 123.948 309.825C123.558 310.535 124.088 311.185 124.688 311.305C125.318 311.905 125.968 312.295 126.338 313.135C126.738 314.055 126.668 315.075 126.108 315.925Z" fill="#173B1A"/>
<path d="M114.898 344.465C114.628 343.215 113.738 342.035 113.038 340.975C112.308 339.875 111.508 338.835 110.658 337.825C110.238 337.335 109.358 337.995 109.758 338.525C110.558 339.595 111.308 340.705 112.008 341.845C112.648 342.895 113.108 344.115 113.918 345.045C114.328 345.515 115.018 344.995 114.898 344.465Z" fill="#173B1A"/>
<path d="M116.208 337.335C115.418 336.035 114.328 334.915 113.448 333.665C112.568 332.415 111.738 331.125 110.978 329.795C110.658 329.245 109.848 329.725 110.128 330.295C111.428 332.935 112.998 336.105 115.238 338.085C115.738 338.535 116.588 337.965 116.208 337.335Z" fill="#173B1A"/>
<path d="M117.928 329.675C116.648 327.445 114.958 325.385 113.438 323.305C112.978 322.685 111.948 323.255 112.388 323.925C113.828 326.125 115.208 328.465 116.888 330.485C117.368 331.075 118.288 330.315 117.928 329.675Z" fill="#173B1A"/>
<path d="M308.528 452.085C308.268 450.935 308.008 449.795 307.728 448.655C307.448 447.485 307.368 446.485 306.328 445.755C305.698 445.305 304.948 445.675 304.588 446.245C289.158 447.845 274.508 444.385 261.258 436.335C254.138 432.015 245.108 421.145 236.068 425.675C234.288 424.435 233.048 422.755 232.498 420.635C232.108 419.155 232.128 417.595 231.138 416.335C229.678 414.475 226.898 414.255 224.888 415.305C219.198 418.285 222.438 425.675 226.168 429.145C226.108 429.255 226.068 429.385 226.088 429.545C227.488 445.825 246.078 455.325 259.988 459.435C273.998 463.575 297.538 466.325 307.948 453.345C308.368 453.155 308.668 452.725 308.528 452.085ZM261.898 457.225C247.958 453.335 232.358 445.035 228.068 430.255C228.878 430.135 229.548 429.135 229.028 428.345C227.768 426.415 225.798 424.935 225.068 422.675C224.418 420.675 225.618 415.805 228.568 417.795C229.638 418.515 229.608 420.165 229.978 421.315C230.258 422.165 230.678 422.985 231.168 423.735C232.038 425.035 233.138 426.085 234.418 426.915C234.138 427.735 234.988 428.695 236.008 428.235C244.318 424.515 251.468 433.445 257.708 437.495C262.278 440.465 267.128 442.965 272.208 444.935C282.568 448.955 293.578 450.515 304.478 448.115C304.638 448.605 304.878 449.085 305.068 449.575C305.348 450.285 305.628 450.995 305.918 451.705C296.008 463.125 274.908 460.865 261.898 457.225Z" fill="#173B1A"/>
<path d="M286.178 452.855C266.638 453.445 249.078 446.695 235.768 432.165C235.418 431.785 234.898 432.335 235.208 432.725C247.438 447.465 266.978 455.995 286.178 453.815C286.778 453.745 286.808 452.835 286.178 452.855Z" fill="#173B1A"/>
<path d="M103.748 383.634C103.378 376.034 100.048 368.624 95.4878 362.634C93.1678 359.574 90.3978 356.614 86.8878 354.914C82.1478 352.624 76.2678 353.844 71.9878 350.464C71.3978 349.994 70.6878 350.144 70.2278 350.524C66.8978 350.364 65.2478 356.234 63.8078 358.534C59.2778 365.784 55.7978 372.944 55.7278 381.704C55.6278 395.414 64.9978 407.934 79.0378 409.584C94.0078 411.354 104.438 397.764 103.748 383.634ZM87.0578 406.284C74.4578 410.144 61.6778 400.164 58.9778 388.114C57.3778 380.964 58.6678 373.304 61.7078 366.714C62.4678 365.054 67.8678 354.444 70.7278 352.664C73.4978 354.774 76.2878 355.244 79.7778 355.844C87.4278 357.164 92.1678 361.834 95.9778 368.374C103.068 380.554 103.418 401.274 87.0578 406.284Z" fill="#173B1A"/>
<path d="M67.2079 370.994C64.6079 372.034 63.7279 375.804 66.0679 377.624C66.7679 378.164 67.7179 377.304 67.0679 376.624C65.8279 375.324 66.0279 372.914 67.6179 371.964C68.1179 371.674 67.7879 370.764 67.2079 370.994Z" fill="#173B1A"/>
<path d="M71.4576 381.485C69.3776 379.695 66.2276 382.285 66.8276 384.705C67.0176 385.485 68.1276 385.135 68.0076 384.385C67.8876 383.675 68.3676 383.055 68.9476 382.715C69.5576 382.355 70.1576 382.375 70.8176 382.595C71.4276 382.795 71.9476 381.915 71.4576 381.485Z" fill="#173B1A"/>
<path d="M113.418 382.915C114.938 389.445 121.148 393.855 127.548 392.785C127.298 398.545 131.508 403.235 137.348 403.565C137.628 414.025 150.308 414.145 156.518 407.745C158.598 408.735 160.918 409.175 163.268 408.995C167.408 408.675 170.418 404.675 174.148 404.635C177.038 404.605 179.688 407.065 183.188 406.705C191.108 405.895 195.648 399.315 195.718 391.955C199.388 391.695 202.018 389.895 203.548 387.495C203.638 387.485 203.708 387.505 203.798 387.485C208.108 386.395 211.548 383.425 212.268 378.805C212.498 377.335 211.918 376.175 212.018 374.765C212.228 371.675 213.358 371.515 214.988 369.545C216.618 367.575 218.288 366.415 219.108 363.825C219.808 361.605 219.798 359.155 219.098 356.935C218.568 355.265 216.548 353.315 216.508 351.775C216.468 350.595 218.758 347.605 219.028 346.085C219.548 343.085 219.008 339.935 218.118 337.075C216.798 332.865 214.088 328.085 209.848 326.235C207.808 325.355 205.978 325.225 203.848 325.895C202.658 326.275 201.608 327.535 200.448 327.845C194.418 329.435 196.598 327.555 193.938 325.855C184.628 319.905 174.078 317.555 165.168 325.015C161.318 324.715 159.978 322.305 157.458 318.695C157.438 318.245 157.168 317.835 156.738 317.685C156.718 317.665 156.708 317.635 156.688 317.615C156.298 317.075 155.538 317.365 155.308 317.865C152.718 318.625 150.348 320.295 147.998 321.575C145.028 323.185 142.068 324.805 139.128 326.455C138.308 326.915 138.038 328.265 138.978 328.795C141.098 329.975 142.818 331.595 144.388 333.375C134.548 337.695 126.588 346.005 123.318 356.355C122.548 358.785 122.168 361.395 122.208 363.935C116.288 368.055 111.688 375.515 113.418 382.915ZM194.408 389.195C193.418 389.145 192.868 389.955 192.938 390.855C193.598 399.725 186.438 405.305 178.308 403.155C176.938 402.795 174.458 401.165 172.758 401.325C171.538 401.445 170.938 402.375 170.018 402.995C166.018 405.665 161.598 406.495 157.978 405.045C157.858 404.925 157.698 404.845 157.518 404.845C155.058 403.705 152.998 401.465 151.788 397.935C151.548 397.245 150.548 397.025 149.958 397.325C146.298 399.785 143.818 398.805 142.518 394.395C140.448 393.195 139.428 391.765 139.438 390.095C143.678 391.775 148.848 390.945 152.348 386.455C154.348 390.005 157.708 392.305 162.068 392.895C164.828 393.265 167.568 392.715 170.118 391.665C173.928 390.105 176.728 385.805 180.308 384.595C185.228 382.935 189.488 385.565 193.348 380.195C194.648 378.385 195.208 376.375 195.218 374.365C205.688 375.565 204.558 389.665 194.408 389.195ZM184.668 323.525C188.318 324.645 190.728 326.735 193.488 329.215C194.318 329.965 194.648 330.775 195.728 331.275C198.988 332.765 200.468 330.095 203.238 329.195C215.108 325.365 220.058 344.755 213.258 351.145C212.778 351.605 212.588 352.535 213.138 353.035C216.168 355.235 217.308 358.535 216.568 362.925C215.288 365.825 213.318 367.805 210.658 368.865C210.348 369.365 209.528 369.595 209.188 370.145C208.778 370.815 208.768 372.355 208.708 372.785C208.728 373.645 208.958 374.475 209.388 375.255C210.088 379.675 208.578 382.675 204.868 384.275C206.058 378.975 203.028 372.875 195.298 372.705C195.218 372.705 195.158 372.725 195.098 372.735C194.858 371.085 194.268 369.475 193.378 368.005C198.808 366.465 202.158 360.915 201.648 355.075C201.008 347.705 194.618 342.915 188.498 339.765C190.768 334.845 187.338 330.295 182.448 328.015C178.588 326.215 173.118 324.845 168.628 324.915C173.538 322.425 179.208 321.855 184.668 323.525ZM130.718 347.985C134.818 342.285 140.338 338.335 146.708 335.585C146.848 335.555 146.968 335.495 147.078 335.405C148.648 334.705 147.658 332.545 146.148 332.715C144.938 330.985 143.538 329.465 142.018 327.985C144.448 326.725 146.878 325.465 149.298 324.185C151.618 322.955 154.298 321.935 156.348 320.255C157.958 322.965 159.568 325.675 161.158 328.395C161.558 329.075 162.278 329.315 163.018 329.015C167.798 327.065 172.328 327.955 176.998 329.285C180.528 330.285 189.948 332.835 185.338 339.595C184.768 340.435 185.248 341.365 186.068 341.755C190.188 343.725 194.568 346.265 196.868 350.365C200.078 356.105 198.418 365.035 190.608 365.595C189.468 365.675 189.158 367.225 189.808 367.965C196.018 375.115 188.958 384.245 180.478 380.755C180.058 380.585 179.378 380.685 179.068 381.035C173.318 387.565 158.408 396.935 153.898 383.395C153.568 382.415 152.058 381.735 151.418 382.895C146.358 392.215 132.458 387.745 135.168 376.855C135.378 376.015 134.918 375.115 133.978 375.045C119.118 373.965 125.558 355.155 130.718 347.985ZM122.508 367.135C123.428 372.265 126.448 376.565 132.278 377.565C131.608 382.635 133.878 386.685 137.238 388.935C134.658 395.805 140.388 400.915 147.168 401.155C148.938 401.215 148.858 400.585 150.038 401.165C150.378 401.325 152.438 404.745 152.648 404.965C153.278 405.625 153.968 406.195 154.698 406.695C149.138 410.125 139.148 413.485 139.998 402.355C140.068 401.415 139.258 400.905 138.428 400.965C132.408 400.615 129.728 397.445 130.388 391.455C130.598 390.595 129.928 389.335 128.848 389.695C120.528 392.455 114.168 383.735 116.348 376.235C117.428 372.555 119.858 369.745 122.508 367.135Z" fill="#173B1A"/>
<path d="M52.6679 398.344C46.5579 388.674 37.1679 389.745 27.2579 386.985C27.1479 386.955 27.0479 386.954 26.9579 386.954C24.0679 383.654 24.2879 378.994 22.4579 375.034C21.0679 372.034 18.8479 369.564 16.1579 367.664C9.62791 363.054 1.34791 362.704 -6.01209 365.414C-22.5621 371.524 -31.3221 388.804 -27.7921 405.784C-20.8521 439.154 36.7779 456.104 53.5779 421.564C57.1979 414.144 57.1379 405.424 52.6679 398.344ZM42.4979 430.694C25.8979 442.724 -0.00209427 438.114 -14.3721 424.664C-29.7321 410.304 -30.3221 384.674 -12.6121 371.944C-3.15209 365.144 12.0279 363.294 19.2279 374.444C22.4079 379.364 21.3879 386.184 26.9379 389.344C27.2679 389.534 27.6279 389.444 27.8979 389.244C37.8879 392.684 48.3679 391.454 52.6679 403.844C56.1979 414.044 50.8079 424.674 42.4979 430.694Z" fill="#173B1A"/>
<path d="M50.3779 402.924C47.2179 394.394 34.5279 390.364 26.1979 390.384C26.1879 390.374 26.1879 390.364 26.1779 390.354C18.3279 384.394 20.0779 372.344 9.53789 368.944C1.54789 366.364 -6.47211 370.044 -11.9221 375.934C-18.0821 382.604 -23.3621 392.894 -22.5221 402.204C-21.6921 411.404 -15.5521 419.314 -8.58211 424.934C6.22789 436.894 31.1679 442.274 44.6679 425.244C48.8379 419.974 52.8979 409.744 50.3779 402.924ZM48.8479 411.624C46.8579 420.624 41.6579 427.904 33.1679 431.704C17.2279 438.834 -2.32211 430.884 -13.0821 418.144C-19.0721 411.054 -22.2221 402.634 -19.7121 393.404C-17.4921 385.214 -11.2421 375.404 -3.46211 371.624C6.01789 367.004 14.5779 371.494 18.5079 380.564C20.2179 384.514 21.6179 388.064 25.0479 390.614C24.8279 390.934 24.9879 391.484 25.4979 391.534C36.3779 392.604 51.9779 397.484 48.8479 411.624Z" fill="#173B1A"/>
<path d="M39.7581 407.574C37.5681 402.544 31.3781 400.594 26.4981 402.704C26.1181 402.864 26.0081 403.204 26.0581 403.544C23.0981 404.684 21.2281 408.954 21.3081 412.274C21.4581 418.434 26.2581 422.564 32.3581 421.044C38.3981 419.534 42.3881 413.604 39.7581 407.574ZM34.5481 417.734C30.5181 420.034 25.2881 419.444 23.8681 414.534C22.7081 410.544 24.6081 402.774 30.2981 404.724C30.6281 404.834 30.7981 404.354 30.5281 404.184C30.3381 404.064 30.1581 403.984 29.9781 403.894C32.6681 403.774 35.3281 404.664 36.9681 407.054C39.4081 410.624 38.3181 415.584 34.5481 417.734Z" fill="#173B1A"/>
<path d="M34.9981 409.234C34.1181 407.844 31.0581 406.264 29.6181 407.654C29.1581 407.604 28.7081 407.594 28.3981 407.744C28.0181 407.924 27.6781 408.484 27.4881 408.854C26.9681 409.844 26.8981 411.134 27.2081 412.204C27.9281 414.634 30.3981 415.894 32.7681 414.964C35.0281 414.074 36.3881 411.434 34.9981 409.234ZM31.8681 413.344C30.4081 413.794 29.1581 412.884 28.7781 411.464C28.5981 410.784 28.6181 410.084 28.8481 409.424C28.9381 409.164 29.0681 408.994 29.2381 408.874C29.3581 409.114 29.5981 409.294 29.8981 409.284C30.5481 409.274 31.0681 408.914 31.7381 409.044C32.3981 409.164 33.0481 409.594 33.4081 410.154C34.2681 411.484 33.1981 412.934 31.8681 413.344Z" fill="#173B1A"/>
<path d="M248.588 385.325C249.038 383.975 248.958 382.045 247.988 380.875C257.408 373.675 258.308 357.545 245.588 352.955C235.538 349.325 221.198 360.165 224.768 371.035C223.448 371.095 222.208 371.435 221.398 372.615C220.578 373.815 220.468 375.415 221.098 376.715C221.598 377.725 222.568 378.365 223.628 378.605C221.278 384.955 219.518 391.485 217.868 398.045C216.348 404.135 213.688 411.345 213.818 417.645C213.828 417.955 214.068 418.345 214.368 418.445C218.558 419.865 222.108 413.285 224.438 410.685C230.778 403.585 236.528 396.065 241.918 388.235C242.758 388.665 243.738 388.815 244.738 388.635C246.508 388.325 248.018 387.025 248.588 385.325ZM229.308 402.035C227.238 404.555 219.938 415.195 217.288 414.285C214.638 413.375 222.858 386.205 224.888 378.725C225.208 378.705 225.538 378.665 225.838 378.575C225.868 380.025 226.598 381.545 227.708 382.445C229.348 383.775 232.198 384.065 234.278 383.135C234.428 384.335 235.288 385.455 236.518 385.875C237.398 386.175 238.738 386.035 239.858 385.535C239.928 385.915 240.058 386.295 240.268 386.665C240.368 386.845 240.488 387.015 240.608 387.175C237.018 392.255 233.268 397.215 229.308 402.035ZM245.548 386.165C244.828 386.605 243.718 386.825 242.918 386.505C242.018 386.155 241.028 384.905 241.738 383.945C241.868 383.765 241.888 383.545 241.838 383.345C241.848 383.255 241.858 383.155 241.858 383.065C241.848 382.725 241.498 382.445 241.168 382.485C239.968 382.625 239.258 383.905 238.028 384.125C236.778 384.345 235.308 383.135 235.988 381.845C236.008 381.815 236.048 381.795 236.068 381.765C236.518 381.155 235.988 380.455 235.288 380.605C233.378 381.025 231.748 382.155 229.728 381.325C227.988 380.605 227.398 378.835 227.708 377.165C227.878 376.885 228.008 376.565 228.088 376.205C228.118 376.065 228.088 375.945 228.038 375.835C228.038 375.825 228.038 375.815 228.028 375.795C228.018 375.785 228.008 375.765 227.998 375.755C227.918 375.545 227.698 375.415 227.458 375.485C227.268 375.475 227.088 375.515 226.938 375.655C226.448 376.155 225.658 376.585 224.898 376.715C224.748 376.665 224.588 376.675 224.458 376.745C223.748 376.735 223.108 376.415 222.838 375.505C222.288 373.625 223.738 372.715 225.278 372.315C225.278 372.325 225.288 372.335 225.288 372.335C225.488 372.775 226.198 372.685 226.158 372.145C226.158 372.105 226.158 372.065 226.158 372.025C226.428 371.795 226.418 371.385 226.138 371.175C226.008 361.965 233.398 351.805 243.778 354.365C256.428 357.485 255.158 373.335 246.248 379.715C245.588 380.185 245.788 381.005 246.278 381.365C246.588 382.175 247.008 382.815 246.978 383.735C246.918 384.745 246.418 385.635 245.548 386.165Z" fill="#173B1A"/>
<path d="M223.098 407.055C223.398 405.815 223.098 404.355 222.928 403.105C222.748 401.795 222.478 400.505 222.138 399.235C221.978 398.615 220.898 398.825 221.018 399.475C221.278 400.785 221.478 402.115 221.608 403.445C221.728 404.665 221.618 405.975 221.948 407.155C222.128 407.745 222.978 407.585 223.098 407.055Z" fill="#173B1A"/>
<path d="M227.358 401.185C227.208 399.675 226.708 398.185 226.458 396.685C226.208 395.175 226.018 393.655 225.898 392.125C225.848 391.485 224.908 391.575 224.918 392.205C224.948 395.155 224.988 398.685 226.158 401.435C226.418 402.065 227.428 401.915 227.358 401.185Z" fill="#173B1A"/>
<path d="M232.218 395.025C232.028 392.455 231.398 389.865 230.918 387.345C230.778 386.585 229.598 386.655 229.698 387.445C230.048 390.055 230.278 392.754 230.918 395.304C231.118 396.044 232.278 395.755 232.218 395.025Z" fill="#173B1A"/>
<path d="M132.828 465.395C135.028 456.845 137.268 448.745 135.638 439.905C135.388 438.565 133.988 438.535 133.178 439.245C133.208 438.555 133.158 437.835 132.978 437.085C136.528 441.065 143.128 438.645 143.308 433.185C143.498 427.555 138.408 425.285 133.798 426.135C135.868 420.945 136.388 414.174 130.118 411.924C127.028 410.814 123.478 412.645 122.378 415.385C120.918 413.335 119.478 410.885 117.028 411.045C113.458 411.285 111.728 416.614 110.878 420.174C107.608 417.854 103.498 415.935 99.7679 418.205C97.1379 419.805 95.8579 422.845 96.9479 425.575C95.6679 425.975 94.4379 426.565 93.3179 427.345C91.3379 421.595 84.1879 420.255 80.4079 425.255C79.4079 421.375 75.4179 418.705 71.1079 419.505C64.0779 420.805 61.8679 427.675 62.3679 433.935C57.0079 431.575 50.2879 433.774 49.2679 440.424C49.0979 441.524 49.6279 443.775 50.5079 445.735C46.6079 444.925 42.2679 445.565 39.7879 448.975C37.9279 451.535 37.6879 454.915 39.1679 457.545C36.2879 458.175 33.5179 459.685 33.0079 462.865C32.6679 464.945 33.5279 467.155 35.2379 468.115C32.4979 470.715 31.1679 475.375 34.5579 478.035C36.9579 479.915 40.2179 479.365 42.0579 477.395C45.7779 483.335 55.3479 481.705 56.2279 473.945C56.5079 474.215 56.8279 474.435 57.1379 474.665C56.3579 474.465 55.5679 475.425 56.2579 476.155C69.3379 489.955 84.6979 497.915 101.718 505.845C106.268 507.965 110.698 510.355 114.218 514.025C117.218 517.145 119.078 521.065 121.858 524.355C125.398 528.535 131.028 532.285 136.688 530.115C151.768 524.335 136.068 504.985 133.138 497.005C129.278 486.485 130.098 476.045 132.828 465.395ZM100.498 421.035C102.798 419.675 104.928 419.615 106.868 420.855C108.438 421.505 109.708 422.495 111.058 423.505C111.688 423.975 112.808 423.495 112.938 422.735C113.528 419.395 115.118 411.915 119.488 415.085C120.538 415.845 121.228 416.965 122.108 417.915C122.198 418.455 122.388 419.005 122.698 419.545C123.298 420.615 124.638 419.895 124.608 418.875C124.708 418.745 124.778 418.584 124.798 418.424C127.438 413.774 129.808 413.185 131.898 416.665C132.658 417.825 132.908 419.074 132.648 420.424C132.688 423.224 131.578 425.395 130.148 427.765C129.468 428.895 130.808 430.165 131.928 429.545C134.438 428.135 138.158 427.715 140.038 430.645C142.308 434.175 137.508 439.255 134.068 435.375C133.508 434.745 132.788 435.115 132.548 435.715C132.408 435.375 132.258 435.024 132.068 434.674C131.328 433.295 129.298 434.505 129.988 435.895C133.528 443.085 123.368 448.055 119.828 440.795C119.318 439.755 117.528 440.235 117.608 441.395C117.938 445.905 113.708 447.885 110.488 446.245C111.968 444.085 111.808 440.925 109.108 438.705C111.148 436.085 111.228 431.885 108.778 428.835C106.438 425.915 103.078 424.785 99.7379 425.045L100.498 421.035ZM120.778 466.575C115.018 473.655 109.228 461.545 105.378 456.405C106.208 455.885 106.928 455.125 107.458 454.065C108.438 452.105 108.288 450.035 107.258 448.455C107.888 448.305 108.448 448.045 108.948 447.725C112.688 450.585 118.018 448.925 119.548 444.575C120.668 445.705 121.988 446.355 123.358 446.625C123.308 446.715 123.238 446.785 123.198 446.895C121.098 452.905 124.948 461.435 120.778 466.575ZM55.0879 472.205C54.5779 472.275 54.0979 472.615 54.0579 473.265C53.5679 479.885 44.9779 480.475 43.3779 474.185C42.9979 472.705 41.0879 473.215 40.9179 474.515C40.4879 477.935 35.2579 477.035 34.9379 473.545C34.7379 471.325 36.3479 469.515 37.9479 468.265C38.2279 468.055 38.2779 467.775 38.1979 467.515C38.1979 467.195 38.0479 466.895 37.6979 466.725C35.7379 465.835 34.7979 463.655 36.4379 461.645C37.5479 460.275 40.0979 459.955 41.6679 459.865C42.7379 459.805 43.5379 458.395 42.6079 457.585C39.8279 455.145 40.5979 450.845 43.5579 448.825C45.9679 447.175 49.0279 447.315 51.7779 447.905C53.0079 449.505 54.4979 450.055 55.8379 447.715C56.4479 446.635 54.8779 445.745 54.1879 446.755C52.5879 446.315 51.8079 445.305 51.8279 443.755C51.2979 442.435 51.2879 441.095 51.8079 439.745C53.7979 435.215 58.8979 433.775 63.0279 436.975C63.9379 437.675 65.2279 437.055 64.9779 435.835C64.1379 431.725 64.1579 427.025 67.4879 423.895C71.8879 419.755 78.6379 422.035 78.5579 428.245C78.5479 429.355 80.3479 429.665 80.5479 428.515C80.6279 428.065 80.6479 427.625 80.6479 427.195C80.7879 427.145 80.9179 427.065 81.0179 426.915C85.2279 422.055 88.7579 422.825 91.6079 429.225C91.7179 430.145 92.7079 430.645 93.4479 429.985C95.8879 427.805 98.9379 426.615 102.298 427.345C103.158 427.685 104.028 428.015 104.888 428.355C109.568 431.265 108.958 434.785 103.088 438.924C101.668 438.875 101.738 440.945 103.088 441.085C104.838 441.275 106.308 440.905 107.488 440.185C106.548 442.225 105.618 444.275 104.678 446.315C103.248 445.995 102.808 447.915 104.088 448.455C106.938 450.945 106.428 452.505 102.558 453.145C100.588 455.305 98.5579 455.475 96.4779 453.635C95.7879 453.255 94.8479 453.725 94.8679 454.555C94.9579 458.605 92.2579 460.835 89.3579 460.915C88.9879 459.655 87.5179 459.665 86.8379 460.405C85.4779 459.815 84.2379 458.705 83.4479 456.995C83.1679 456.385 82.2279 456.665 82.1279 457.225C81.5579 456.715 80.5379 457.305 81.0279 458.025C84.5479 463.305 77.3979 465.685 74.0479 463.795C71.4679 462.335 70.4479 459.715 69.8379 456.945C69.6779 456.225 68.4879 456.005 68.1679 456.725C66.5379 460.405 61.7379 462.855 57.9379 460.475C54.0479 458.045 54.5479 452.915 56.6179 449.565C57.0779 448.815 56.0379 448.035 55.4179 448.635C51.7679 452.185 52.3679 458.715 56.4879 461.715C59.3479 463.795 62.8379 463.605 65.6379 462.015C65.7079 462.175 65.8079 462.325 65.9679 462.465C68.7279 464.955 69.5279 469.485 66.7279 472.325C63.8979 475.195 59.1879 474.465 56.5779 471.765C56.0679 471.235 55.2179 471.625 55.0879 472.205ZM67.7579 460.655C67.6979 460.605 67.6379 460.595 67.5779 460.565C67.9279 460.235 68.2679 459.885 68.5679 459.505C69.9579 463.825 73.5679 468.205 78.5179 466.785C81.6979 465.875 83.8479 462.575 83.2479 459.535C84.1879 460.875 85.3879 461.765 86.6979 462.285C87.4879 465.185 88.1279 468.115 88.4179 471.115C88.5779 472.765 88.6679 474.455 88.6379 476.115C88.5979 479.085 88.8379 479.545 85.8479 481.115C82.7779 482.725 82.3179 482.145 79.4979 480.575C78.3879 479.955 77.3179 479.265 76.2679 478.545C73.7879 476.845 71.6279 474.895 69.4979 472.805C71.9579 469.095 71.3279 463.475 67.7579 460.655ZM139.698 520.135C137.618 522.575 135.528 525.025 133.438 527.465C130.958 527.365 128.858 526.515 127.138 524.915C121.678 520.805 119.228 513.755 113.868 509.375C108.788 505.225 102.578 502.865 96.6279 500.285C82.2879 494.055 69.4679 485.485 57.7879 475.105C60.8779 476.915 65.0479 476.855 67.9079 474.505C72.0179 479.195 82.3479 489.065 88.5379 484.815C91.0879 483.065 91.4179 479.785 91.5179 476.945C91.6779 472.155 91.0479 467.405 89.8579 462.785C93.1279 462.585 96.2379 460.245 96.8679 456.215C98.8279 457.055 101.128 457.555 103.158 457.215C107.138 462.785 111.108 475.315 120.188 471.095C128.978 467.015 123.878 454.665 126.198 447.725C126.338 447.315 126.278 446.974 126.148 446.674C129.018 446.224 131.658 444.275 132.708 441.525C134.728 456.745 125.678 470.915 127.318 486.325C127.978 492.545 129.798 498.555 132.708 504.085C134.298 507.105 136.378 509.875 137.848 512.965C138.708 514.785 140.208 518.035 139.698 520.135Z" fill="#173B1A"/>
<path d="M141.358 440.345C141.378 440.665 141.558 440.885 141.788 441.005C142.268 447.595 145.458 454.235 151.358 457.585C154.408 459.315 157.428 460.245 159.998 462.765C162.108 464.825 163.478 467.315 165.118 469.745C167.278 472.955 169.148 475.355 172.658 476.815C172.718 476.865 172.798 476.915 172.888 476.955C174.598 477.695 177.398 476.965 178.608 475.555C179.668 474.325 179.718 472.775 178.748 471.625C178.878 471.315 178.808 470.945 178.418 470.815C177.238 470.425 176.218 469.835 175.268 469.125C184.628 454.705 191.388 438.185 198.908 422.765C199.228 422.115 198.648 421.205 197.888 421.335C181.028 424.235 164.938 433.335 149.378 440.205C149.308 440.085 149.238 439.975 149.168 439.855C149.228 439.755 149.258 439.625 149.198 439.475C148.478 437.825 146.898 436.775 145.068 436.915C143.428 437.045 141.248 438.535 141.358 440.345ZM177.158 462.765C174.438 462.355 173.488 458.805 174.768 456.605C176.128 454.275 178.438 454.555 180.538 455.305C179.368 457.775 178.228 460.255 177.158 462.765ZM192.668 430.945C192.118 432.045 191.568 433.145 191.008 434.245C190.378 434.075 189.898 433.425 189.838 432.765C189.768 431.915 190.028 431.145 190.378 430.395C191.058 430.675 191.758 430.905 192.498 430.965C192.568 430.965 192.618 430.945 192.668 430.945ZM167.988 434.015C167.988 434.045 167.988 434.065 167.998 434.085C168.218 434.865 168.448 435.655 168.678 436.435C168.798 436.865 169.468 438.275 169.098 438.685C168.898 438.915 168.208 438.925 167.918 439.045C167.858 439.075 167.808 439.105 167.748 439.135C166.998 437.805 166.398 436.415 165.938 434.955C166.618 434.645 167.298 434.335 167.988 434.015ZM164.488 435.635C165.068 437.455 165.858 439.165 166.868 440.795C167.118 441.195 167.858 441.275 168.128 440.845C168.738 439.875 170.388 440.465 170.738 439.015C170.908 438.305 170.478 437.545 170.228 436.915C169.808 435.855 169.388 434.795 168.968 433.735C168.948 433.685 168.918 433.645 168.888 433.605C177.788 429.535 186.858 425.795 196.168 423.765C195.268 425.675 194.318 427.575 193.378 429.485C193.258 429.315 193.068 429.195 192.798 429.185C191.938 429.135 191.138 429.015 190.328 428.705C189.958 428.565 189.468 428.685 189.308 429.085C188.758 430.525 188.028 432.475 189.198 433.795C189.618 434.275 190.148 434.675 190.718 434.835C187.578 441.055 184.368 447.275 181.358 453.565C178.578 451.525 174.048 453.465 172.878 456.485C171.748 459.405 173.278 463.825 176.698 463.865C176.018 465.475 175.348 467.095 174.718 468.715C169.948 464.715 167.678 457.265 162.258 453.625C159.648 451.875 155.468 450.905 153.408 448.545C151.848 446.755 151.178 444.405 150.298 442.195C154.988 440.135 159.718 437.875 164.488 435.635ZM145.208 438.745C145.878 438.585 146.558 438.715 147.178 439.015C147.188 439.115 147.208 439.215 147.268 439.325C147.618 439.945 147.868 440.585 148.088 441.235C147.968 441.685 148.128 442.195 148.478 442.475C149.028 444.435 149.418 446.405 150.678 448.145C153.158 451.595 157.728 453.035 161.018 455.455C167.348 460.105 169.298 470.455 177.608 472.005C178.188 472.965 177.118 474.285 176.308 474.645C175.228 475.125 173.998 474.815 172.948 475.285C172.828 475.335 172.738 475.415 172.648 475.505C167.468 470.405 164.868 462.745 158.768 458.725C155.918 456.845 152.448 456.205 149.838 453.865C145.988 450.405 144.698 445.365 143.488 440.565C143.448 440.425 143.388 440.315 143.308 440.235C143.458 439.975 143.618 439.715 143.838 439.495C144.208 439.115 144.688 438.865 145.208 438.745Z" fill="#173B1A"/>
<path d="M175.608 435.445C175.538 437.805 177.658 440.995 180.288 440.705C182.318 441.995 185.048 439.915 185.758 437.755C186.748 434.735 185.068 431.315 181.808 430.785C178.878 430.305 175.708 432.335 175.608 435.445ZM180.058 432.725C182.058 432.305 183.838 433.395 184.188 435.435C184.338 436.325 184.218 437.285 183.808 438.095C183.338 439.045 182.258 439.935 181.148 439.905C181.128 439.735 181.018 439.575 180.788 439.485C179.278 438.925 177.998 438.345 177.498 436.655C176.958 434.775 178.218 433.125 180.058 432.725Z" fill="#173B1A"/>
</svg>
