<svg xmlns="http://www.w3.org/2000/svg" ><defs><clipPath id="clip0_460_43091"><path fill="#fff" transform="translate(0 .5)" d="M0 0h32v32H0z"/></clipPath><clipPath id="clip0_460_43041"><path fill="#fff" d="M0 0h20v20H0z"/></clipPath><clipPath id="clip0_460_43081"><path fill="#fff" transform="translate(0 .5)" d="M0 0h32v32H0z"/></clipPath></defs><symbol id="icon__app-store" viewBox="0 0 28 29"><g fill="none"><path d="M25.425 22.066a15.228 15.228 0 01-1.505 2.706c-.793 1.13-1.44 1.91-1.94 2.344-.774.712-1.604 1.077-2.492 1.097-.638 0-1.407-.181-2.302-.55-.899-.365-1.724-.547-2.479-.547-.792 0-1.64.182-2.549.548-.909.368-1.642.56-2.202.579-.851.036-1.7-.339-2.549-1.127-.54-.472-1.217-1.28-2.027-2.427-.87-1.223-1.585-2.642-2.145-4.26-.6-1.747-.901-3.44-.901-5.077 0-1.877.405-3.495 1.217-4.851a7.146 7.146 0 012.55-2.58 6.86 6.86 0 013.448-.973c.677 0 1.564.21 2.667.62 1.1.413 1.806.622 2.115.622.231 0 1.016-.245 2.345-.732 1.258-.453 2.32-.64 3.188-.566 2.356.19 4.126 1.119 5.303 2.792-2.107 1.276-3.149 3.064-3.128 5.358.019 1.786.667 3.273 1.94 4.454a6.371 6.371 0 001.94 1.272c-.15.438-.315.87-.494 1.298zM20.022.806c0 1.4-.512 2.707-1.531 3.917-1.231 1.44-2.72 2.27-4.333 2.14a4.36 4.36 0 01-.033-.532c0-1.344.585-2.782 1.624-3.959.52-.595 1.179-1.09 1.98-1.485.798-.39 1.553-.605 2.264-.642.02.187.029.374.029.56z" fill="#fff"/></g></symbol><symbol id="icon__apple-pay" viewBox="0 0 45 32"><g fill="none"><path fill-rule="evenodd" clip-rule="evenodd" d="M11.889 10.778c-.378.465-.982.833-1.587.78-.075-.63.22-1.299.567-1.712.378-.479 1.039-.82 1.574-.846.063.656-.183 1.299-.554 1.778zm.547.905c-.532-.032-1.018.167-1.41.327-.253.104-.467.191-.63.191-.182 0-.405-.092-.655-.196-.327-.135-.702-.29-1.094-.283-.9.013-1.738.545-2.197 1.39-.945 1.693-.246 4.2.667 5.577.447.682.982 1.43 1.687 1.404.31-.013.533-.111.764-.213.266-.118.542-.24.973-.24.417 0 .68.119.934.233.241.108.473.213.816.206.73-.013 1.19-.682 1.637-1.364a6.11 6.11 0 00.727-1.555l.004-.013-.018-.009c-.161-.077-1.393-.664-1.405-2.24-.012-1.324.977-1.995 1.133-2.1l.019-.013c-.63-.971-1.612-1.076-1.952-1.102zm5.056 8.324V9.781h3.682c1.902 0 3.23 1.364 3.23 3.358 0 1.995-1.354 3.372-3.28 3.372h-2.109v3.496h-1.523zm1.523-8.888h1.756c1.322 0 2.078.735 2.078 2.027 0 1.292-.756 2.034-2.084 2.034h-1.75v-4.06zm10.419 7.662c-.403.8-1.29 1.305-2.248 1.305-1.416 0-2.404-.879-2.404-2.204 0-1.312.956-2.066 2.725-2.178l1.901-.118v-.564c0-.833-.522-1.286-1.454-1.286-.768 0-1.328.413-1.441 1.043H25.14c.044-1.325 1.24-2.29 2.858-2.29 1.744 0 2.877.952 2.877 2.428v5.09h-1.41v-1.226h-.031zm-1.84.092c-.811 0-1.328-.407-1.328-1.03 0-.643.498-1.017 1.448-1.076l1.694-.111v.577c0 .957-.78 1.64-1.813 1.64zm7.959 1.534c-.611 1.791-1.31 2.381-2.795 2.381-.114 0-.492-.013-.58-.039v-1.226c.095.013.328.026.447.026.674 0 1.052-.296 1.285-1.063l.138-.453-2.581-7.445h1.593l1.794 6.042h.031l1.794-6.042h1.549l-2.675 7.82z" fill="#fff"/></g></symbol><symbol id="icon__apple" viewBox="0 0 24 24"><g fill="none"><path d="M19.353 7.303c-1.746-1.374-4.22-.994-6.178-.509a4.87 4.87 0 01-.963.13 8.044 8.044 0 00-.194-.775l1.515-.226a4.401 4.401 0 003.725-3.725l.224-1.5a.402.402 0 00.023-.162l.08-.536-2.198.327a4.402 4.402 0 00-3.726 3.726l-.131.885c-.45-.863-1.096-1.617-1.988-2.093a.406.406 0 10-.382.716c1.238.66 1.921 1.995 2.22 3.337a4.803 4.803 0 01-.563-.103c-1.96-.485-4.433-.866-6.178.508-1.563 1.23-2.314 3.667-2.295 7.446.014 2.793 1.622 6.014 3.91 7.834 1.512 1.202 3.137 1.653 4.698 1.3a4.77 4.77 0 012.088 0c.345.078.693.117 1.042.117 1.23 0 2.477-.48 3.654-1.417 2.289-1.82 3.896-5.042 3.911-7.834.02-3.78-.73-6.216-2.294-7.446zm-5.94-2.182l-.356.053 3.451-3.45-.053.355a3.593 3.593 0 01-3.042 3.042zm2.093-3.991l.528-.079L12.385 4.7l.079-.528a3.594 3.594 0 013.042-3.042zm1.726 20.819c-.915.728-2.352 1.518-4.014 1.143a5.58 5.58 0 00-2.444 0c-1.658.375-3.1-.415-4.014-1.143-2.076-1.652-3.592-4.681-3.605-7.204-.018-3.514.632-5.74 1.986-6.805 1.146-.902 2.838-1.012 5.482-.358.294.072.593.112.894.138.023.207.039.412.045.61.007.22.187.393.405.393h.013a.405.405 0 00.392-.418 8.42 8.42 0 00-.04-.576 5.71 5.71 0 001.037-.147c2.644-.653 4.335-.543 5.482.359 1.355 1.065 2.004 3.291 1.986 6.804-.013 2.522-1.53 5.552-3.605 7.204z" fill="currentColor"/><path d="M8.02 8.186c-2.012 0-3.649 1.819-3.649 4.054a.405.405 0 10.811 0c0-1.788 1.274-3.244 2.838-3.244a.405.405 0 100-.81zm5.142.118c-.33.33-.767.51-1.231.51a1.73 1.73 0 01-1.231-.51.405.405 0 10-.573.574 2.537 2.537 0 001.804.748c.68 0 1.322-.266 1.804-.748a.405.405 0 10-.573-.574z" fill="currentColor"/></g></symbol><symbol id="icon__arrow" viewBox="0 0 24 24"><g fill="none"><path fill-rule="evenodd" clip-rule="evenodd" d="M14.23 5.219a.75.75 0 00-1.06 1.061l4.764 4.744H4.75a.75.75 0 000 1.5h13.183l-4.762 4.743a.75.75 0 101.058 1.062l6.029-6.003a.748.748 0 00.021-1.085L14.23 5.22z" fill="currentColor"/></g></symbol><symbol id="icon__cart" viewBox="0 0 32 32"><g fill="none"><path d="M10.083 12.917h-4.25L3 28.5h25.5l-2.833-15.583h-4.25m-11.334 0v-4.25A5.667 5.667 0 0115.75 3v0a5.667 5.667 0 015.667 5.667v4.25m-11.334 0h11.334m-11.334 0v4.25m11.334-4.25v4.25" stroke="currentColor" stroke-linecap="round" stroke-linejoin="round"/></g></symbol><symbol id="icon__check" viewBox="0 0 16 16"><g fill="none"><path d="M13.334 4L6 11.333 2.667 8" stroke="#fff" stroke-linecap="round" stroke-linejoin="round"/></g></symbol><symbol id="icon__chevron-down" viewBox="0 0 12 12"><g fill="none"><path d="M10 4L6 8 2 4" stroke="currentColor" stroke-linecap="round" stroke-linejoin="round"/></g></symbol><symbol id="icon__close-btn" viewBox="0 0 10 10"><g fill="none"><path d="M9 1L1 9m8 0L1 1" stroke="#666" stroke-linecap="round" stroke-linejoin="round"/></g></symbol><symbol id="icon__close" viewBox="0 0 25 25"><g fill="none"><path d="M18.75 6.25l-12.5 12.5m0-12.5l12.5 12.5" stroke="#1A1A1A" stroke-linecap="round" stroke-linejoin="round"/></g></symbol><symbol id="icon__coffee" viewBox="0 0 24 24"><g fill="none"><path d="M19.911 2.618H19.7v-.361c0-.763-.62-1.383-1.347-1.383h-.002L5.66 0c-.763 0-1.384.621-1.384 1.384v1.234h-.211c-.846 0-1.534.688-1.534 1.534v1.957c0 .845.688 1.533 1.534 1.533h.048l1.484 14.974c0 .763.62 1.384 1.384 1.384h10.037a1.4 1.4 0 00.538-.108c.496-.208.845-.691.843-1.226l1.488-15.024h.025c.845 0 1.533-.688 1.533-1.534V4.152c0-.846-.689-1.534-1.534-1.534zM5.3 1.384c0-.2.162-.362.326-.363l12.69.874c.2 0 .362.162.362.362v.361H5.3V1.384zm13.144 10.324l-2.745.49a4.829 4.829 0 00-3.693-1.7 4.828 4.828 0 00-3.694 1.7l-2.755-.49-.414-4.066h13.716l-.415 4.066zm-.09 1.054l-.397 4.016-2.684-.494-.19.252a3.821 3.821 0 01-3.077 1.543 3.821 3.821 0 01-3.076-1.543l-.19-.252-2.695.495-.397-4.017 3.092.55.19-.25a3.822 3.822 0 013.076-1.542c1.218 0 2.34.562 3.076 1.542l.19.251 3.082-.55zm-1.336 10.215H6.981a.334.334 0 01-.14-.03c-.128-.057-.222-.196-.224-.381l-.007-.067-.458-4.701 2.16-.397a4.828 4.828 0 003.693 1.7 4.83 4.83 0 003.692-1.7l2.15.396-.468 4.82a.367.367 0 01-.362.36zM20.422 6.11c0 .282-.23.511-.51.511H4.064a.512.512 0 01-.511-.511V4.152c0-.282.23-.512.51-.512H19.91c.282 0 .511.23.511.512v1.957z" fill="currentColor"/><path d="M11.988 12.268c-1.55 0-2.811 1.147-2.811 2.556 0 1.41 1.26 2.556 2.811 2.556 1.55 0 2.812-1.147 2.812-2.556 0-1.41-1.262-2.556-2.812-2.556zm0 4.09c-.986 0-1.789-.689-1.789-1.534 0-.845.803-1.534 1.79-1.534.986 0 1.788.689 1.788 1.534 0 .845-.803 1.534-1.789 1.534z" fill="currentColor"/></g></symbol><symbol id="icon__cross" viewBox="0 0 25 25"><g fill="none"><path d="M18.75 6.25l-12.5 12.5m0-12.5l12.5 12.5" stroke="currentColor" stroke-linecap="round" stroke-linejoin="round"/></g></symbol><symbol id="icon__cupcake" viewBox="0 0 24 24"><g fill="none"><path d="M12.172 9.218a.457.457 0 00.561.322l1.974-.534a.457.457 0 10-.239-.883l-1.974.535a.457.457 0 00-.322.56zm-7.177 2.47l1.372.457a.458.458 0 00.29-.868l-1.372-.457a.457.457 0 10-.29.868zm4.977-.807l.028.001c.24 0 .441-.187.456-.43l.038-.645a.457.457 0 10-.913-.055l-.038.646a.456.456 0 00.429.483zm8.108 1.966a.456.456 0 10.646-.647l-.457-.457a.457.457 0 10-.646.647l.457.457zm-4.156-1.104a.457.457 0 10-.646.646l.457.458a.456.456 0 00.647 0 .457.457 0 000-.647l-.458-.457zm-1.538-7.029a.457.457 0 00.888-.221l-.458-1.83a.458.458 0 00-.887.222l.457 1.83zm-2.082 2.749a.456.456 0 00.647 0 .457.457 0 000-.647l-.457-.457a.457.457 0 10-.647.647l.457.457z" fill="currentColor"/><path d="M23.756 14.51a3.67 3.67 0 00-1.247-.809 4.547 4.547 0 00-3.303-4.656 3.434 3.434 0 00-3.18-4.294c.038-.214.057-.429.057-.646C16.083 1.842 14.475 0 12.499 0h-.521c-1.976 0-3.584 1.841-3.584 4.105 0 .216.019.432.056.646a3.434 3.434 0 00-3.223 4.194 4.57 4.57 0 00-3.745 4.493 4 4 0 00.01.265c-.453.178-.88.444-1.246.805L0 14.75l4.388 8.068c.277.683.952 1.14 1.69 1.14h11.844c.738 0 1.414-.457 1.69-1.14L24 14.751l-.244-.242zm-21.36-1.04v-.031c0-1.94 1.52-3.543 3.459-3.649a.457.457 0 00.397-.634A2.518 2.518 0 018.57 5.664c.051 0 .173.005.409.046a.46.46 0 00.507-.607 2.917 2.917 0 01-.179-.998c0-1.76 1.198-3.19 2.67-3.19h.52c1.472 0 2.67 1.43 2.67 3.19 0 .337-.06.673-.18 1a.457.457 0 00.513.606 2.3 2.3 0 01.387-.048 2.518 2.518 0 012.515 2.516c0 .351-.072.693-.215 1.016a.458.458 0 00.345.637 3.639 3.639 0 013.072 3.607v.03c-.04-.005-.082-.005-.123-.01a2.977 2.977 0 00-.338-.015 3.454 3.454 0 00-.568.045c-.037.006-.075.011-.112.018a3.512 3.512 0 00-.245.055l-.092.024a3.881 3.881 0 00-.26.085l-.072.026c-.09.036-.18.075-.268.118l-.057.027a3.113 3.113 0 00-.275.155l-.037.02a3.79 3.79 0 00-.296.209c-.087-.069-.182-.12-.274-.18a3.685 3.685 0 00-4.277.18 3.696 3.696 0 00-4.552 0 3.753 3.753 0 00-4.595.001 3.634 3.634 0 00-.497-.323c-.012-.007-.023-.014-.036-.02a3.656 3.656 0 00-.517-.226l-.063-.023a3.775 3.775 0 00-.525-.132l-.092-.016a3.797 3.797 0 00-.523-.043c-.016 0-.031-.004-.047-.004-.028 0-.056.005-.084.005a3.766 3.766 0 00-.29.018c-.032.004-.063.002-.094.006zm16.4 8.935l-.026.054a.914.914 0 01-.848.584H6.079a.915.915 0 01-.85-.584l-4.086-7.522a2.803 2.803 0 011.362-.557c.034-.005.069-.005.103-.008.116-.01.231-.014.347-.01a2.845 2.845 0 01.477.056c.037.008.076.012.113.021.14.034.276.08.41.136.041.017.08.038.12.057.099.047.196.1.29.159.04.025.082.05.12.078.123.087.242.18.352.287l.006.005.32.315.322-.315c.065-.064.14-.112.209-.169 1.098-.889 2.72-.841 3.745.169l.323.317.32-.32a2.753 2.753 0 011.89-.797c.022 0 .043-.006.064-.006.024 0 .047.006.072.007a2.76 2.76 0 011.447.445c.154.1.299.218.433.352l.323.321.322-.32a2.776 2.776 0 013.905 0l.323.319.323-.32a2.787 2.787 0 01.763-.527c.04-.019.077-.04.117-.057.133-.055.268-.1.407-.135.039-.01.079-.014.118-.022a2.816 2.816 0 01.81-.045c.037.003.072.003.107.007.483.061.952.245 1.354.557l-4.064 7.469z" fill="currentColor"/><path d="M6.039 16.52a.458.458 0 00-.883.24l1.372 5.031a.457.457 0 10.883-.24L6.039 16.52zm12.484-.322a.457.457 0 00-.561.321l-1.372 5.03a.457.457 0 00.882.242l1.372-5.031a.458.458 0 00-.32-.562zm-4.194-.014a.458.458 0 00-.497.414l-.457 5.03a.457.457 0 10.91.084l.458-5.03a.458.458 0 00-.414-.498zm-4.657 0a.458.458 0 00-.414.497l.457 5.03a.457.457 0 10.911-.082l-.457-5.03a.458.458 0 00-.497-.415z" fill="currentColor"/></g></symbol><symbol id="icon__cutlery" viewBox="0 0 24 24"><g fill="none"><path d="M9.565 14.237a.407.407 0 11-.813 0 .407.407 0 01.813 0zm0 1.627a.407.407 0 11-.813 0 .407.407 0 01.813 0zm5.7-1.627a.407.407 0 11-.813 0 .407.407 0 01.813 0zm0 1.627a.407.407 0 11-.813 0 .407.407 0 01.813 0z" fill="#CCC"/><path d="M10.786 0a.406.406 0 00-.407.407v5.288c0 .53-.341.977-.813 1.145V.407a.406.406 0 10-.814 0V6.84a1.219 1.219 0 01-.813-1.145V.407a.406.406 0 10-.814 0v5.288c0 .982.7 1.804 1.627 1.993v4.166c-.7.182-1.22.814-1.22 1.57v8.949c0 .897.73 1.627 1.627 1.627s1.627-.73 1.627-1.627v-8.95c0-.755-.52-1.387-1.22-1.569V7.688a2.037 2.037 0 001.627-1.993V.407A.406.406 0 0010.786 0zm-.813 13.424v8.949a.815.815 0 01-1.628 0v-8.95a.814.814 0 011.628 0zM16.05.684C15.592.224 14.936 0 14.044 0a.406.406 0 00-.407.407v11.796c0 .045.012.085.026.125-.266.29-.433.672-.433 1.096v8.949c0 .897.73 1.627 1.627 1.627a1.63 1.63 0 001.628-1.627v-8.95c0-.52-.25-.98-.633-1.278 1.038-1.344 1.04-3.332 1.04-6.222l.002-.898c.01-1.94.018-3.474-.844-4.34zm-.379 21.689a.815.815 0 01-1.627 0v-8.95a.814.814 0 011.627 0v8.95zm.41-17.352l-.003.902c0 2.861-.002 4.777-1.013 5.895-.069-.01-.137-.021-.207-.021a1.61 1.61 0 00-.407.057V.838c.451.05.79.187 1.022.42.624.627.617 2.01.607 3.763z" fill="#CCC"/></g></symbol><symbol id="icon__dashboard" viewBox="0 0 24 24"><g fill="none"><path d="M21 21h-8v-6h8v6zm-10 0H3V11h8v10zm10-8h-8V3h8v10zM11 9H3V3h8v6z" fill="#1A1A1A"/></g></symbol><symbol id="icon__delivery-truck" viewBox="0 0 40 40"><g fill="none"><path d="M32.702 26.304c-.977 0-1.906.383-2.606 1.075a3.64 3.64 0 00-1.092 2.59c0 .978.383 1.89 1.092 2.59a3.708 3.708 0 002.606 1.076c2.004 0 3.633-1.646 3.633-3.666s-1.63-3.665-3.633-3.665zm0 5.702c-1.124 0-2.069-.929-2.069-2.037 0-1.107.945-2.036 2.07-2.036 1.107 0 2.003.912 2.003 2.036s-.896 2.037-2.004 2.037zm.945-17.911a.79.79 0 00-.546-.212h-4.178a.817.817 0 00-.815.815v6.678c0 .448.367.815.815.815h6.63a.817.817 0 00.814-.814v-4.472a.815.815 0 00-.268-.603l-2.452-2.207zm1.091 6.467h-5v-5.058h3.045l1.955 1.76v3.298zm-21.926 5.742c-.977 0-1.906.383-2.606 1.075a3.64 3.64 0 00-1.092 2.59c0 .978.383 1.89 1.092 2.59a3.708 3.708 0 002.606 1.076c2.004 0 3.633-1.646 3.633-3.666s-1.63-3.665-3.633-3.665zm0 5.702c-1.124 0-2.069-.929-2.069-2.037 0-1.107.945-2.036 2.07-2.036 1.107 0 2.003.912 2.003 2.036s-.896 2.037-2.004 2.037zm-5.433-4.7H5.742V25.14a.817.817 0 00-.814-.815.817.817 0 00-.815.815v2.98c0 .448.367.815.815.815h2.451a.817.817 0 00.815-.814.817.817 0 00-.815-.815zm4.13-4.439a.817.817 0 00-.815-.815H.814a.817.817 0 00-.814.815c0 .448.367.814.814.814h9.88a.812.812 0 00.815-.814zm-9.041-2.94l9.88.057a.822.822 0 00.822-.807.807.807 0 00-.806-.822l-9.88-.057h-.008a.81.81 0 00-.814.806.807.807 0 00.806.823zm1.662-3.698h9.88a.817.817 0 00.814-.815.817.817 0 00-.815-.814H4.13a.817.817 0 00-.814.814c0 .448.367.815.815.815zm35.569-1.1l-5.832-4.83a.802.802 0 00-.521-.187h-6.858V7.18a.817.817 0 00-.815-.815H4.928a.817.817 0 00-.815.815v5.962c0 .448.367.814.815.814a.817.817 0 00.814-.814V7.994h19.125v19.312h-6.68a.817.817 0 00-.814.814c0 .448.367.815.815.815h9.945a.817.817 0 00.814-.814.817.817 0 00-.814-.815h-1.637V11.741h6.564l5.311 4.398-.057 11.15h-.847a.817.817 0 00-.815.815c0 .448.367.815.815.815h1.653a.81.81 0 00.815-.807L40 15.765a.86.86 0 00-.301-.636z" fill="currentColor"/></g></symbol><symbol id="icon__discover" viewBox="0 0 45 32"><g fill="none"><path fill-rule="evenodd" clip-rule="evenodd" d="M38.903 12.058c1.384 0 2.145.64 2.145 1.85.069.924-.554 1.706-1.384 1.848l1.868 2.631h-1.453l-1.59-2.56h-.14v2.56h-1.175v-6.329h1.73zm-.553 2.916h.346c.761 0 1.107-.356 1.107-.995 0-.57-.346-.925-1.107-.925h-.346v1.92zm-5.257 3.413h3.32V17.32H34.27v-1.706h2.075v-1.067H34.27v-1.422h2.144v-1.067h-3.32v6.329zm-3.459-2.062l-1.59-4.267h-1.246l2.56 6.471h.622l2.56-6.47h-1.245l-1.66 4.266zm-14.042-1.067c0 1.778 1.383 3.27 3.112 3.27.554 0 1.038-.141 1.522-.355v-1.422c-.346.427-.83.711-1.383.711-1.107 0-2.006-.853-2.006-1.99v-.143c-.07-1.138.83-2.133 1.937-2.204.553 0 1.106.284 1.452.71v-1.421c-.415-.285-.968-.356-1.452-.356-1.799-.142-3.182 1.351-3.182 3.2zm-2.144-.782c-.692-.284-.9-.427-.9-.782.07-.427.415-.782.83-.711.346 0 .692.213.969.497l.622-.853c-.484-.427-1.106-.71-1.729-.71-.968-.072-1.799.71-1.868 1.706v.07c0 .854.346 1.352 1.453 1.707.277.072.553.214.83.356a.752.752 0 01.346.64c0 .498-.415.924-.83.924h-.07c-.553 0-1.037-.355-1.244-.853l-.761.782c.415.783 1.245 1.21 2.075 1.21 1.107.07 2.006-.783 2.075-1.92v-.214c-.07-.853-.415-1.28-1.798-1.849zm-4.013 3.911h1.176v-6.329H9.435v6.329zm-5.464-6.329h2.075c1.66.071 2.974 1.494 2.905 3.2 0 .925-.415 1.778-1.107 2.418-.622.498-1.383.782-2.144.711H3.97v-6.329zm1.522 5.262c.553.071 1.176-.142 1.59-.498.416-.426.623-.995.623-1.635 0-.57-.207-1.138-.622-1.565-.415-.355-1.038-.569-1.591-.497h-.346v4.195h.346z" fill="#fff"/><path d="M20.572 15.183c0-1.849 1.453-3.27 3.182-3.27 1.799 0 3.182 1.492 3.251 3.341-.069 1.85-1.452 3.342-3.25 3.271-1.8-.07-3.183-1.564-3.183-3.342zM44 23l-25 8h21.03A3.97 3.97 0 0044 27.03V23z" fill="#FD6020"/></g></symbol><symbol id="icon__email" viewBox="0 0 24 24"><g fill="none"><path d="M4 4h16c1.1 0 2 .9 2 2v12c0 1.1-.9 2-2 2H4c-1.1 0-2-.9-2-2V6c0-1.1.9-2 2-2z" stroke="#00B307" stroke-linecap="round" stroke-linejoin="round"/><path d="M22 6l-10 7L2 6" stroke="#00B307" stroke-linecap="round" stroke-linejoin="round"/></g></symbol><symbol id="icon__eye" viewBox="0 0 20 20"><g fill="none"><path d="M10 3.541c-6.25 0-8.75 6.46-8.75 6.46s2.5 6.457 8.75 6.457S18.75 10 18.75 10 16.25 3.541 10 3.541v0z" stroke="currentColor" stroke-linecap="round" stroke-linejoin="round"/><path d="M10 13.125a3.125 3.125 0 100-6.25 3.125 3.125 0 000 6.25v0z" stroke="currentColor" stroke-linecap="round" stroke-linejoin="round"/></g></symbol><symbol id="icon__facebook" viewBox="0 0 18 18"><g fill="none"><path d="M11.998 2.989h1.644V.127A21.241 21.241 0 0011.247 0c-2.37 0-3.992 1.49-3.992 4.23v2.52H4.64v3.2h2.614V18h3.206V9.95h2.509l.397-3.2H10.46V4.547c0-.924.25-1.557 1.538-1.557z" fill="currentColor"/></g></symbol><symbol id="icon__filter" viewBox="0 0 22 22"><g fill="none"><path fill-rule="evenodd" clip-rule="evenodd" d="M4.75 3.5a3.25 3.25 0 100 6.5 3.25 3.25 0 000-6.5zm0-1.5a4.751 4.751 0 014.691 4h8.309a.75.75 0 010 1.5H9.441A4.751 4.751 0 114.75 2zm-1 13a.75.75 0 000 1.5h8.309a4.751 4.751 0 100-1.5H3.75zm9.75.75a3.25 3.25 0 106.5 0 3.25 3.25 0 00-6.5 0z" fill="currentColor"/></g></symbol><symbol id="icon__fish" viewBox="0 0 24 24"><g fill="none"><path d="M4.631 16.294a1.518 1.518 0 00-2.142 0 1.507 1.507 0 00-.444 1.072A1.51 1.51 0 003.56 18.88a1.51 1.51 0 001.071-.443c.286-.286.444-.667.444-1.072 0-.404-.157-.785-.444-1.071zm-.714 1.429a.504.504 0 110-.714.504.504 0 010 .714z" fill="currentColor"/><path d="M23.938 6.913a1.163 1.163 0 00-.662-.833c-.227-.101-.312-.334-.426-.704-.116-.38-.326-1.082-1.121-1.014-.27.027-.506-.05-.668-.211-.16-.161-.236-.399-.21-.667.053-.574-.126-1.098-.504-1.476-.356-.356-.844-.528-1.405-.51a4.664 4.664 0 01-.018-.096c-.073-.382-.222-1.17-1.32-1.317-.194-.062-.726-.19-1.167.08-.21.13-.473.396-.528.974l-.011 3.163H10.74c-.803 0-1.582.098-2.335.268a8.605 8.605 0 00-1.354-2.858l-.25-.346-.383.19c-.096.047-2.358 1.188-2.982 3.15-.253.793-.205 1.6.14 2.404C1.472 9.05.142 11.82.142 14.9V24H9.17c2.85 0 5.529-1.11 7.544-3.126.245-.244.475-.5.693-.763.222.018.452.031.7.031 1.425 0 3.236-.349 5.037-1.654l.346-.25-.19-.383c-.058-.118-1.356-2.677-3.568-3.084.063-.474.108-.954.107-1.44V8.203l3.19.03.041-.007c.23-.035.436-.145.598-.318l.002-.001a1.13 1.13 0 00.268-.995zM4.397 6.417a2.285 2.285 0 01.002-1.4c.358-1.13 1.492-1.965 2.092-2.339.434.676.753 1.398.954 2.155-.457.15-.896.335-1.324.543-.103.05-.209.097-.31.15-.142.075-.278.157-.415.238a9.896 9.896 0 00-.418.254c-.124.08-.245.165-.365.25-.072.051-.147.096-.216.149zm15.157 9.344c1.273.238 2.218 1.516 2.623 2.165a7.44 7.44 0 01-4.056 1.206 10.537 10.537 0 001.41-3.289l.023-.082zm3.375-8.539l-4.1-.037v6.146a9.83 9.83 0 01-.159 1.722l-.013.071a9.16 9.16 0 01-.148.65 9.684 9.684 0 01-1.734 3.5l-.195.25a9.597 9.597 0 01-7.41 3.468H1.15V14.9a9.57 9.57 0 013.411-7.323A9.494 9.494 0 017.18 6.005l.022-.008c.313-.124.635-.232.965-.324a9.55 9.55 0 012.575-.361h6.163l.013-4.122c.01-.108.038-.157.05-.164.05-.032.225-.019.342.024l.126.031c.41.046.431.162.496.508.052.274.191.998 1.035.922.268-.026.505.05.668.21.16.162.236.4.21.668-.052.574.126 1.098.504 1.476.367.366.875.542 1.433.507.034.073.075.204.104.3.126.411.316 1.034.981 1.331.048.021.074.073.082.114.005.02.01.072-.02.105h.001zm.069.077v-.014l.301.28-.301-.266z" fill="currentColor"/><path d="M3.56 12.574v1.01a7.08 7.08 0 017.072 7.072h1.01c0-4.456-3.625-8.082-8.081-8.082z" fill="currentColor"/><path d="M5.205 10.93v1.01a7.08 7.08 0 017.071 7.072h1.01c0-4.456-3.625-8.081-8.08-8.081z" fill="currentColor"/><path d="M6.775 9.36v1.01a7.08 7.08 0 017.072 7.072h1.01c0-4.457-3.625-8.082-8.082-8.082z" fill="currentColor"/><path d="M8.42 7.716v1.01a7.08 7.08 0 017.071 7.071h1.01c0-4.456-3.625-8.081-8.081-8.081z" fill="currentColor"/></g></symbol><symbol id="icon__food" viewBox="0 0 24 24"><g fill="none"><path d="M7.293 8.333a.399.399 0 00.566 0 .4.4 0 000-.565 1.044 1.044 0 010-1.474c.348-.348.54-.81.54-1.302s-.192-.955-.54-1.303a.4.4 0 10-.566.566c.197.196.306.458.306.736 0 .279-.108.54-.306.737a1.844 1.844 0 000 2.605zm8.8 0a.399.399 0 00.566 0 .4.4 0 000-.565 1.043 1.043 0 010-1.474c.348-.348.54-.81.54-1.302s-.192-.955-.54-1.303a.4.4 0 10-.566.566c.197.196.306.458.306.736 0 .279-.109.54-.306.737a1.844 1.844 0 000 2.605zm-4.4-2.4a.4.4 0 10.565-.565 1.044 1.044 0 010-1.474c.349-.348.54-.81.54-1.303 0-.491-.191-.954-.54-1.302a.4.4 0 10-.565.566c.197.196.306.458.306.736 0 .279-.109.54-.306.737a1.844 1.844 0 000 2.605zm-1.602 5.522a.42.42 0 00.089-.01 8.049 8.049 0 011.768-.195h.005a.4.4 0 100-.8h-.005a8.86 8.86 0 00-1.944.215.4.4 0 00.087.79zM3.88 18.044a.4.4 0 00.465-.321c.417-2.28 1.79-4.308 3.676-5.425a.4.4 0 00-.408-.688c-2.082 1.233-3.597 3.464-4.054 5.968a.4.4 0 00.322.466z" fill="currentColor"/><path d="M22.203 17.5a10.425 10.425 0 00-8.267-8.458c.007-.064.017-.128.017-.192 0-1.103-.897-2-2-2s-2 .897-2 2c0 .064.01.128.017.192A10.425 10.425 0 001.703 17.5c-.835.473-1.75 1.17-1.75 1.95 0 2.034 6.205 3.4 12 3.4s12-1.366 12-3.4c0-.78-.914-1.477-1.75-1.95zM10.756 8.92a1.202 1.202 0 011.198-1.269 1.202 1.202 0 011.197 1.268l-.056-.005a10.315 10.315 0 00-.415-.035c-.051-.004-.102-.01-.153-.012a10.416 10.416 0 00-1.146 0l-.153.012c-.14.01-.278.02-.416.035l-.056.005zm-.243.838a9.69 9.69 0 01.647-.072l.133-.01a9.798 9.798 0 012.1.082 9.621 9.621 0 018.108 8.513l.014.133c.016.177.028.354.033.531a42.687 42.687 0 01-19.19 0 9.94 9.94 0 01.033-.531c.004-.045.01-.089.015-.133a9.62 9.62 0 018.107-8.512zm1.44 12.292c-6.838 0-11.2-1.707-11.2-2.6 0-.153.19-.49.826-.93-.002.022-.001.044-.003.067-.013.22-.023.44-.023.663v.316l.307.074a43.313 43.313 0 0010.093 1.188 43.29 43.29 0 0010.093-1.188l.307-.074v-.316c0-.223-.01-.443-.023-.663l-.003-.068c.636.44.826.778.826.931 0 .893-4.361 2.6-11.2 2.6z" fill="currentColor"/></g></symbol><symbol id="icon__google-play" viewBox="0 0 24 25"><g fill="none"><path d="M15.065 11.73L4.72 1.354l13.164 7.558-2.818 2.818zM2.018.745C1.408 1.065 1 1.645 1 2.4v20.688c0 .756.408 1.337 1.018 1.656L14.05 12.742 2.018.745zm19.935 10.577l-2.761-1.599-3.08 3.024 3.08 3.024 2.818-1.598c.843-.67.843-2.18-.057-2.851zM4.72 24.14l13.164-7.558-2.818-2.817L4.72 24.14z" fill="#fff"/></g></symbol><symbol id="icon__headphones" viewBox="0 0 40 40"><g fill="none"><path d="M30.997 18.168v-1.23c0-2.945-1.042-5.68-2.931-7.711C26.128 7.143 23.466 6 20.563 6h-1.015c-2.904 0-5.566 1.143-7.503 3.227-1.889 2.03-2.93 4.766-2.93 7.71v1.231A4.415 4.415 0 005 22.565v1.922a4.41 4.41 0 004.403 4.404h2.481a.81.81 0 00.807-.807v-9.123a.81.81 0 00-.807-.806h-1.156v-1.217c0-5.318 3.791-9.325 8.813-9.325h1.015c5.029 0 8.814 4.007 8.814 9.325v1.217h-1.157a.81.81 0 00-.806.806v9.116a.81.81 0 00.806.807h1.13c-.33 4.208-3.227 5.183-4.572 5.405a2.837 2.837 0 00-2.695-1.956h-2.017c-1.56 0-2.83 1.27-2.83 2.83A2.84 2.84 0 0020.059 38h2.023c1.305 0 2.4-.887 2.73-2.084a7.63 7.63 0 002.736-.934c1.459-.854 3.187-2.595 3.415-6.105a4.408 4.408 0 004.134-4.396v-1.923a4.392 4.392 0 00-4.1-4.39zM11.09 27.271H9.417c-1.54 0-2.79-1.25-2.79-2.79v-1.923c0-1.54 1.25-2.79 2.79-2.79h1.674v7.503zm10.991 9.116H20.06a1.217 1.217 0 110-2.434h2.023a1.217 1.217 0 110 2.434zm11.41-11.907c0 1.54-1.25 2.79-2.79 2.79h-1.674v-7.503H30.7c1.54 0 2.79 1.25 2.79 2.79v1.923z" fill="currentColor"/></g></symbol><symbol id="icon__heart-lined" viewBox="0 0 20 20"><g fill="none"><path d="M10 17.545C-6.667 8.333 5-1.667 10 4.657c5-6.324 16.667 3.676 0 12.888z" stroke="currentColor"/></g></symbol><symbol id="icon__heart-stroke" viewBox="0 0 32 33"><g fill="none"><path d="M16 28.572C-10.668 13.833 8-2.167 16 7.951c8-10.118 26.667 5.882 0 20.621z" stroke="#1A1A1A"/></g></symbol><symbol id="icon__heart" viewBox="0 0 32 32"><path d="M16 7.45c8-10.117 26.666 5.883 0 20.622-26.666-14.739-8-30.739 0-20.621z" stroke="currentColor"/></symbol><symbol id="icon__home" viewBox="0 0 24 24"><g fill="none"><path d="M4 10l8-7 8 7v10h-5v-4a3 3 0 00-6 0v4H4V10z" stroke="currentColor" stroke-linecap="round" stroke-linejoin="round"/></g></symbol><symbol id="icon__ice-cream" viewBox="0 0 24 24"><g fill="none"><path d="M12.211 0h-.453a5.858 5.858 0 00-5.852 5.851v11.971a2.04 2.04 0 002.038 2.038h2.503v2.899c0 .684.557 1.24 1.242 1.24h.413c.685 0 1.242-.556 1.242-1.24v-2.9h2.68a2.04 2.04 0 002.038-2.037V5.852A5.858 5.858 0 0012.212 0zm.306 22.758a.414.414 0 01-.414.414h-.414a.414.414 0 01-.414-.414v-2.896h1.242v2.896zm4.718-4.936c0 .667-.543 1.21-1.21 1.21h-8.08c-.667 0-1.21-.543-1.21-1.21V5.852A5.03 5.03 0 0111.757.826h.454a5.03 5.03 0 015.024 5.024v11.97z" fill="currentColor"/><path d="M15.417 8.816a.413.413 0 00-.413.414v2.04a.72.72 0 01-1.44 0V9.23a.413.413 0 10-.828 0v2.04a1.55 1.55 0 001.548 1.548 1.55 1.55 0 001.547-1.547V9.23a.413.413 0 00-.414-.414zm-3.937 5.689a.413.413 0 00-.413.413v1.134a.72.72 0 01-1.44 0V14.92a.413.413 0 10-.828 0v1.133c0 .854.694 1.547 1.547 1.547a1.55 1.55 0 001.548-1.547V14.92a.414.414 0 00-.414-.414zm-1.309-6.239c.854 0 1.548-.694 1.548-1.547V5.585a.413.413 0 10-.828 0V6.72a.72.72 0 01-1.44 0V5.585a.413.413 0 10-.827 0V6.72c0 .854.694 1.547 1.547 1.547z" fill="currentColor"/></g></symbol><symbol id="icon__instagram" viewBox="0 0 18 18"><g fill="none"><path d="M17.982 5.292c-.043-.956-.197-1.614-.418-2.184a4.39 4.39 0 00-1.041-1.596A4.432 4.432 0 0014.93.475c-.574-.222-1.227-.377-2.184-.419C11.783.011 11.476 0 9.033 0c-2.444 0-2.75.01-3.71.053C4.367.095 3.71.25 3.14.47a4.397 4.397 0 00-1.597 1.041c-.457.45-.812.995-1.037 1.593C.284 3.678.13 4.332.088 5.288.042 6.252.03 6.558.03 9.002s.011 2.75.053 3.71c.042.956.197 1.613.419 2.183a4.437 4.437 0 001.04 1.596c.45.458.995.813 1.593 1.038.573.221 1.227.376 2.184.418.96.043 1.266.053 3.71.053s2.75-.01 3.71-.053c.955-.042 1.614-.197 2.183-.418a4.603 4.603 0 002.634-2.634c.221-.573.376-1.227.418-2.184.043-.96.052-1.265.052-3.71 0-2.443-.003-2.749-.045-3.709zm-1.62 7.35c-.04.878-.187 1.353-.31 1.67a2.987 2.987 0 01-1.71 1.708c-.316.123-.794.271-1.67.31-.95.042-1.234.052-3.636.052-2.401 0-2.69-.01-3.636-.052-.879-.039-1.353-.187-1.67-.31a2.775 2.775 0 01-1.034-.671 2.79 2.79 0 01-.67-1.034c-.124-.316-.272-.795-.31-1.67-.043-.95-.053-1.235-.053-3.636 0-2.402.01-2.69.053-3.636.038-.88.186-1.354.31-1.67.143-.39.371-.746.674-1.034a2.796 2.796 0 011.034-.672c.317-.123.794-.27 1.67-.31.95-.041 1.235-.052 3.636-.052 2.405 0 2.69.01 3.636.053.879.039 1.353.186 1.67.31.39.143.746.372 1.034.67.299.293.527.644.672 1.035.123.316.27.794.31 1.67.041.95.052 1.234.052 3.636 0 2.401-.01 2.683-.053 3.632z" fill="currentColor"/><path d="M9.033 4.378a4.625 4.625 0 000 9.248 4.625 4.625 0 000-9.248zm0 7.623a3 3 0 110-6 3 3 0 010 6zm5.887-7.806a1.08 1.08 0 11-2.16 0 1.08 1.08 0 012.16 0z" fill="currentColor"/></g></symbol><symbol id="icon__leaf" viewBox="0 0 32 33"><g fill="none"><g clip-path="url(#clip0_460_43091)"><path d="M31.976 1.371a.486.486 0 00-.442-.334c-1.02-.042-3.806-.035-7.652.948-3.58.916-6.939 2.42-9.715 4.352a.486.486 0 00.556.798c2.68-1.866 5.932-3.321 9.4-4.208a31.78 31.78 0 013.906-.74c-.52.224-1.079.487-1.66.796-3.929 2.086-6.124 4.753-7.337 6.896a9.905 9.905 0 01-.203-1.903.486.486 0 00-.972 0c0 .215.017 2.007.56 3.112a204.591 204.591 0 00-2.125 4.74c-.288.657-.57 1.304-.852 1.937a7.771 7.771 0 01-.856-4.27.486.486 0 00-.969-.078c-.227 2.805.888 4.763 1.34 5.431-.848 1.874-1.684 3.6-2.565 5.074-.453-1.027-1.164-2.983-1.164-5.162a.486.486 0 00-.972 0c0 2.89 1.118 5.347 1.52 6.137-.962 1.438-1.99 2.563-3.15 3.247-3.536-3.84-3.881-11.045 2.296-17.717a22.878 22.878 0 012.29-2.151.486.486 0 10-.615-.752 23.88 23.88 0 00-2.388 2.243c-6.516 7.037-6.149 14.708-2.413 18.91-3.253 2.19-7.279 2.326-7.321 2.327a.486.486 0 00.026.972c.186-.005 4.48-.146 7.998-2.603 1.066.87 2.738 1.399 4.765 1.399 2.295 0 5.045-.678 7.886-2.308 2.632-1.51 4.519-3.82 5.608-6.866.933-2.608 1.248-5.746.91-9.075-.602-5.934 1.64-8.611 4.152-10.621a.487.487 0 00.158-.53zm-4.293 3.975c-.956 2.001-1.278 4.381-.984 7.275.323 3.186.026 6.177-.858 8.65-1.01 2.822-2.751 4.958-5.177 6.35-3.06 1.756-5.63 2.154-7.246 2.178-1.652.026-3.082-.326-4.04-.98.798-.517 1.53-1.211 2.219-2.05h.124c.478 0 1.367-.02 2.416-.142 2.098-.245 3.753-.763 4.917-1.54a.486.486 0 00-.539-.808c-1.794 1.196-4.683 1.455-6.174 1.507.946-1.349 1.816-2.968 2.675-4.76.845-.003 3.088-.185 5.22-1.886a.486.486 0 00-.605-.76 7.738 7.738 0 01-4.147 1.65c.56-1.213 1.12-2.493 1.698-3.812.298-.68.6-1.371.91-2.067l.105.002c.733 0 2.191-.18 3.794-1.367a.486.486 0 10-.578-.78c-.99.732-1.9 1.007-2.49 1.11-.142.024-.273.04-.391.05.283-.629.572-1.26.869-1.89 1.81-3.84 5.022-6.155 7.398-7.42a21.986 21.986 0 012.789-1.243 10.597 10.597 0 00-1.905 2.733z" fill="#00B307"/></g></g></symbol><symbol id="icon__link" viewBox="0 0 20 20"><g fill="none"><path d="M5.833 6.667A3.336 3.336 0 002.5 10a3.333 3.333 0 003.333 3.333H7.5A.833.833 0 017.5 15H5.833a4.999 4.999 0 01-3.535-8.536A4.999 4.999 0 015.833 5H7.5a.833.833 0 010 1.667H5.833zm5.833-.834A.833.833 0 0112.5 5h1.666a5 5 0 110 10H12.5a.833.833 0 110-1.667h1.666a3.333 3.333 0 100-6.666H12.5a.833.833 0 01-.834-.834zM5.833 10a.834.834 0 01.833-.833h6.667a.833.833 0 010 1.666H6.666A.833.833 0 015.833 10z" fill="currentColor"/></g></symbol><symbol id="icon__list-checkbox" viewBox="0 0 20 20"><g fill="none"><g clip-path="url(#clip0_460_43041)"><rect width="20" height="20" rx="10" fill="#00B307"/><path d="M14.417 7.125l-5.729 5.73-2.604-2.605" stroke="#fff" stroke-linecap="round" stroke-linejoin="round"/></g></g></symbol><symbol id="icon__lock" viewBox="0 0 11 11"><g fill="none"><path d="M8.708 5.042H2.292a.917.917 0 00-.917.917v3.208c0 .506.41.917.917.917h6.416c.507 0 .917-.41.917-.917V5.959a.917.917 0 00-.917-.917zm-5.5 0V3.209a2.292 2.292 0 114.584 0v1.833" stroke="#fff" stroke-linecap="round" stroke-linejoin="round"/></g></symbol><symbol id="icon__logout" viewBox="0 0 25 24"><g fill="none"><path d="M19.168 21h-9a2 2 0 01-2-2v-4h2v4h9V5h-9v4h-2V5a2 2 0 012-2h9a2 2 0 012 2v14a2 2 0 01-2 2zm-7-5v-3h-9v-2h9V8l5 4-5 4z" fill="#CCC"/></g></symbol><symbol id="icon__map-pin" viewBox="0 0 17 20"><g fill="none"><path d="M16 8.364C16 14.09 8.5 19 8.5 19S1 14.09 1 8.364c0-1.953.79-3.826 2.197-5.207A7.571 7.571 0 018.5 1c1.99 0 3.897.776 5.303 2.157A7.296 7.296 0 0116 8.364z" stroke="currentColor" stroke-linecap="round" stroke-linejoin="round"/><path d="M8.5 10.818c1.38 0 2.5-1.099 2.5-2.454 0-1.356-1.12-2.455-2.5-2.455S6 7.008 6 8.364c0 1.355 1.12 2.454 2.5 2.454z" stroke="currentColor" stroke-linecap="round" stroke-linejoin="round"/></g></symbol><symbol id="icon__mastercard" viewBox="0 0 45 32"><g fill="none"><path fill-rule="evenodd" clip-rule="evenodd" d="M28.616 24.735c4.957 0 8.975-3.97 8.975-8.868C37.59 10.97 33.573 7 28.616 7a9.003 9.003 0 00-5.82 2.118A9.003 9.003 0 0016.973 7C12.018 7 8 10.97 8 15.867c0 4.898 4.018 8.868 8.974 8.868a9.003 9.003 0 005.822-2.118 9.002 9.002 0 005.82 2.118z" fill="#ED0006"/><path fill-rule="evenodd" clip-rule="evenodd" d="M22.795 22.616a8.806 8.806 0 003.153-6.749 8.806 8.806 0 00-3.153-6.749A9.003 9.003 0 0128.617 7c4.956 0 8.974 3.97 8.974 8.867 0 4.898-4.018 8.868-8.974 8.868a9.003 9.003 0 01-5.822-2.119z" fill="#F9A000"/><path fill-rule="evenodd" clip-rule="evenodd" d="M22.795 22.617a8.805 8.805 0 003.153-6.75 8.805 8.805 0 00-3.153-6.749 8.805 8.805 0 00-3.153 6.75 8.805 8.805 0 003.153 6.749z" fill="#FF5E00"/></g></symbol><symbol id="icon__meat" viewBox="0 0 24 24"><g fill="none"><path d="M4.821 12.387a1.32 1.32 0 00-1.317 1.317 1.32 1.32 0 001.317 1.318 1.319 1.319 0 000-2.635zm0 1.756a.44.44 0 110-.878.44.44 0 010 .878z" fill="#CCC"/><path d="M23.639 2.768a2.16 2.16 0 00-1.133-.865.264.264 0 01-.175-.176 2.157 2.157 0 00-.865-1.132 2.21 2.21 0 00-2.579.114 2.171 2.171 0 00-.821 1.815c.025.523-.134.983-.446 1.295l-2.702 2.702-.484.008a2.832 2.832 0 00-1.974.826c-1.695 1.696-3.945 2.743-6.505 3.026a6.746 6.746 0 00-4.034 1.953C-.561 14.84-.65 18.997 1.724 21.6a6.682 6.682 0 004.986 2.204 6.672 6.672 0 004.757-1.973 6.686 6.686 0 001.864-3.565c.43-2.398 1.646-4.654 3.516-6.524.121-.122.231-.258.346-.428l.458-.684h-1.342a1.95 1.95 0 00.375-.286l3.731-3.73c.312-.312.764-.467 1.296-.446a2.18 2.18 0 001.815-.821 2.211 2.211 0 00.113-2.58zM12.466 18.11a5.813 5.813 0 01-1.62 3.1 5.798 5.798 0 01-4.278 1.713 5.81 5.81 0 01-4.196-1.915C.31 18.745.386 15.13 2.544 12.95a5.784 5.784 0 013.507-1.697c2.76-.306 5.19-1.44 7.029-3.278.21-.208.46-.364.736-.46l-.876 2.92 1.542-.514v1.586h1.37c-1.787 1.92-2.953 4.192-3.386 6.603zM22.84 4.798a1.293 1.293 0 01-1.088.493c-.778-.036-1.47.212-1.959.702l-3.73 3.73c-.189.19-.438.297-.703.311v-1.33l-1.092.364.28-.935 3.693-3.692c.49-.49.739-1.185.702-1.959a1.3 1.3 0 01.493-1.088 1.338 1.338 0 011.544-.067c.22.145.38.348.479.584a2.272 2.272 0 00-1.16.69.44.44 0 00.653.586 1.39 1.39 0 011.004-.461.434.434 0 00.17-.038c.036.016.069.037.107.05.277.09.51.269.674.516a1.34 1.34 0 01-.067 1.544z" fill="#CCC"/><path d="M11.658 16.439a.434.434 0 00-.51.355 5.2 5.2 0 01-.428 1.335.439.439 0 00.794.377c.236-.497.404-1.02.5-1.558a.44.44 0 00-.356-.51zm-1.685 2.863a6.281 6.281 0 01-3.761 2.168.439.439 0 10.144.866 7.17 7.17 0 004.294-2.475.438.438 0 10-.677-.559z" fill="#CCC"/></g></symbol><symbol id="icon__minus" viewBox="0 0 16 16"><g fill="none"><path d="M3.333 8h9.333" stroke="currentColor" stroke-linecap="round" stroke-linejoin="round"/></g></symbol><symbol id="icon__order-history" viewBox="0 0 25 24"><g fill="none"><path d="M4.168 20v-7h7l-3.217 3.22A5.916 5.916 0 0012.168 18a6 6 0 005.648-4h.018c.114-.325.201-.66.259-1h2.012a8 8 0 01-7.937 7h-.01a7.943 7.943 0 01-5.653-2.34L4.168 20zm2.074-9H4.23a8 8 0 017.933-7h.005a7.94 7.94 0 015.654 2.34L20.168 4v7h-7l3.222-3.22A5.917 5.917 0 0012.168 6a6 6 0 00-5.648 4h-.018c-.115.325-.202.66-.259 1h-.001z" fill="#CCC"/></g></symbol><symbol id="icon__package" viewBox="0 0 40 40"><g fill="none"><path d="M34.447 11.544a.839.839 0 00-.081-.358.783.783 0 00-.547-.432L20.06 4.08a.816.816 0 00-.709 0L5.459 10.815a.813.813 0 00-.459.702V28.45c0 .31.176.595.46.73l13.892 6.733c.007 0 .007 0 .014.007.02.007.04.014.06.027.007 0 .014.007.027.007l.061.02c.007 0 .014.007.02.007.02.007.048.007.068.013h.02c.027 0 .061.007.088.007.027 0 .06 0 .088-.007h.02a.28.28 0 00.068-.013c.006 0 .013-.007.02-.007l.06-.02c.007 0 .014-.007.028-.007.02-.007.04-.014.06-.027.007 0 .007 0 .014-.007l13.933-6.754a.817.817 0 00.46-.73V11.565c-.014-.006-.014-.013-.014-.02zM19.703 5.71l12.05 5.842-4.438 2.154-12.05-5.842 4.438-2.154zm0 11.684L7.654 11.551l5.755-2.79 12.049 5.843-5.755 2.789zm-13.082-4.54l12.272 5.95v15.082L6.62 27.936V12.854zm13.893 21.032V18.805l5.76-2.797v3.945c0 .445.366.81.811.81.446 0 .81-.365.81-.81v-4.735l4.931-2.39v15.08l-12.312 5.978z" fill="currentColor"/></g></symbol><symbol id="icon__parcel" viewBox="0 0 38 40"><g fill="none"><path d="M37.416 8.826L19.255.058a.586.586 0 00-.51 0L.584 8.826a.586.586 0 00-.332.527v21.293c0 .225.13.43.332.528l18.161 8.768a.587.587 0 00.51 0l18.161-8.768a.586.586 0 00.332-.528V9.354a.586.586 0 00-.332-.528zM19 1.236l16.814 8.117-4.874 2.354a.578.578 0 00-.1-.063L14.142 3.582 19 1.237zm-6.182 3.009l16.79 8.105-3.44 1.66L9.386 5.908l3.432-1.663zM30 13.46v6.137l-3.212 1.55v-6.136L30 13.462zm6.576 16.818l-16.99 8.201V18.49l4.053-1.957a.586.586 0 10-.51-1.055L19 17.471l-1.625-.785a.586.586 0 10-.51 1.055l1.549.748V38.48l-16.99-8.2V10.287l12.938 6.246a.583.583 0 00.782-.273.586.586 0 00-.273-.783L2.186 9.354l5.82-2.81 17.602 8.497.008.01v7.031a.586.586 0 00.84.528l4.385-2.117a.586.586 0 00.33-.527v-7.07l5.405-2.609V30.28z" fill="#1A1A1A"/></g></symbol><symbol id="icon__phone" viewBox="0 0 28 28"><g fill="none"><path d="M17.436 4.375a8.767 8.767 0 016.189 6.189M16.53 7.757a5.26 5.26 0 013.713 3.713m-10.128 2.182a9.225 9.225 0 004.27 4.252.865.865 0 00.857-.065l2.74-1.826a.876.876 0 01.829-.077l5.123 2.197a.872.872 0 01.525.907 5.252 5.252 0 01-5.209 4.585A14.875 14.875 0 014.375 8.75 5.25 5.25 0 018.96 3.542a.872.872 0 01.907.525l2.198 5.127a.875.875 0 01-.072.823l-1.82 2.78a.867.867 0 00-.058.855v0z" stroke="#1A1A1A" stroke-linecap="round" stroke-linejoin="round"/></g></symbol><symbol id="icon__pie" viewBox="0 0 24 24"><g fill="none"><path d="M8.568 8.424a.423.423 0 00-.594.088l-1.01 1.366c-.14.188-.1.454.089.594l1.365 1.01a.425.425 0 00.594-.089l1.01-1.366a.424.424 0 00-.088-.594l-1.366-1.01zm.014 2.123l-.683-.505.505-.683.683.505-.505.682zm12.799-.914L19.715 9.3a.423.423 0 00-.5.334l-.332 1.665a.425.425 0 00.334.5l1.666.332a.424.424 0 00.499-.333l.332-1.666a.424.424 0 00-.333-.5zm-.749 1.582l-.833-.166.167-.833.832.167-.166.832zm-4.262-.813a.424.424 0 00-.523-.293l-1.635.461a.423.423 0 00-.293.524l.461 1.635a.425.425 0 00.524.293l1.635-.461a.423.423 0 00.293-.524l-.462-1.635zm-1.288 1.687l-.23-.818.817-.23.23.817-.817.231z" fill="currentColor"/><path d="M24 11.586c0-.623-.362-1.178-1.076-1.653a2.339 2.339 0 00-2.327-2.529c-.354 0-.695.08-1.01.235a2.335 2.335 0 00-1.963-1.084c-.443 0-.87.125-1.24.358a2.337 2.337 0 00-1.539-.774l-1.054-1.252a.424.424 0 00-.288-.15.372.372 0 00-.195.033.437.437 0 00-.115.065l-.76.64-.292.245a2.52 2.52 0 00-1.965.661 2.298 2.298 0 00-1.046-.25 2.33 2.33 0 00-1.734.782 2.313 2.313 0 00-2.966.422l-1.927-.712a.423.423 0 00-.545.25l-.467 1.263A2.311 2.311 0 00.849 9.74c0 .111.01.222.03.34-.584.441-.879.946-.879 1.506 0 1.607 1.305 2.923 2.977 3.028l.95.91c.513.491.743.787 1.09 1.237.115.15.241.312.393.503 1.138 1.424 2.273 2.031 3.799 2.031h5.768c1.525 0 2.661-.608 3.798-2.031.151-.19.278-.353.393-.502.348-.45.577-.747 1.09-1.239l.95-.91C22.814 14.507 24 13.24 24 11.585zM13.415 5.758l.547.65-.65.546-.547-.649.65-.547zm-9.263 2.38l-.571 1.546-1.546-.572.572-1.546 1.545.572zm15.52 6.773c-.56.535-.818.869-1.176 1.331-.113.146-.236.306-.384.491-.971 1.217-1.88 1.713-3.135 1.713H9.209c-1.255 0-2.164-.496-3.135-1.713-.149-.185-.272-.346-.385-.491-.357-.463-.616-.797-1.174-1.332l-.4-.382c.133-.028.26-.063.385-.103.036-.01.07-.024.105-.036.093-.031.183-.066.27-.104.034-.014.068-.028.1-.043.229-.107.439-.233.627-.375.028-.02.053-.043.08-.064.067-.055.132-.112.193-.17l.072-.07c.078-.082.152-.166.217-.254.58.784 1.696 1.316 2.973 1.316s2.393-.532 2.973-1.316c.58.784 1.695 1.316 2.972 1.316 1.273 0 2.385-.528 2.967-1.307.064.088.137.172.215.253l.067.066c.062.061.128.12.197.175l.07.058c.188.143.399.268.628.374.029.014.06.026.09.039a3.9 3.9 0 00.283.109c.03.01.06.021.091.03.124.04.252.076.384.104l-.403.385zm1.338-1.137c-1.395-.007-2.53-.768-2.53-1.698a.424.424 0 10-.85 0c0 .92-1.167 1.698-2.548 1.698s-2.548-.777-2.548-1.698a.424.424 0 10-.85 0c0 .92-1.166 1.698-2.547 1.698-1.381 0-2.548-.777-2.548-1.698a.424.424 0 10-.85 0c0 .92-1.167 1.698-2.58 1.698-1.274 0-2.31-.981-2.31-2.188 0-.326.248-.65.736-.965a.425.425 0 00.179-.473 1.716 1.716 0 01-.052-.25l1.973.73a.425.425 0 00.546-.25l.866-2.343a.421.421 0 00.022-.182c.275-.28.644-.448 1.04-.448.383 0 .748.148 1.028.417a.426.426 0 00.663-.093A1.47 1.47 0 0110 7.267a.425.425 0 00.58-.076 1.687 1.687 0 011.29-.633l1.067 1.268a.423.423 0 00.598.052l1.062-.893c.019-.002.036-.005.055-.005.531 0 1.01.28 1.282.75a.424.424 0 00.662.092 1.475 1.475 0 012.421.57.425.425 0 00.665.189c.269-.214.586-.327.916-.327a1.488 1.488 0 011.45 1.802c-.04.18.043.366.203.458.598.346.901.706.901 1.072-.001 1.242-.923 2.182-2.142 2.188z" fill="currentColor"/></g></symbol><symbol id="icon__pinterest" viewBox="0 0 18 18"><g fill="none"><path d="M9.244 0C4.312 0 1.688 3.161 1.688 6.609c0 1.598.893 3.592 2.323 4.224.217.098.335.056.384-.145.043-.153.23-.89.32-1.238a.318.318 0 00-.075-.312c-.475-.55-.852-1.55-.852-2.488 0-2.404 1.911-4.739 5.164-4.739 2.813 0 4.78 1.828 4.78 4.441 0 2.953-1.562 4.996-3.593 4.996-1.124 0-1.961-.882-1.696-1.973.32-1.3.95-2.697.95-3.634 0-.84-.475-1.536-1.445-1.536-1.143 0-2.072 1.133-2.072 2.654 0 .967.342 1.62.342 1.62s-1.132 4.572-1.342 5.426c-.355 1.445.048 3.786.083 3.988.021.111.146.146.216.055.111-.146 1.48-2.098 1.863-3.51l.712-2.598c.377.68 1.465 1.251 2.624 1.251 3.447 0 5.938-3.03 5.938-6.79C16.3 2.697 13.216 0 9.245 0z" fill="currentColor"/></g></symbol><symbol id="icon__play-button" viewBox="0 0 84 84"><g fill="none"><circle cx="42" cy="42" r="40.75" stroke="currentColor"/><path d="M34 30v24l20-12-20-12z" fill="currentColor"/></g></symbol><symbol id="icon__play" viewBox="0 0 14 18"><g fill="none"><path d="M0 0v18l14-9L0 0z" fill="currentColor"/></g></symbol><symbol id="icon__plus" viewBox="0 0 14 14"><g fill="none"><path d="M2.334 7h9.333M7.001 2.333v9.334-9.334z" stroke="currentColor" stroke-linecap="round" stroke-linejoin="round"/></g></symbol><symbol id="icon__potatoes" viewBox="0 0 24 24"><g fill="none"><path d="M23.841 8.316c-.997-3.81-3.547-3.143-7.771-2.038-.636.167-1.51.27-2.434.38-.77.091-1.587.19-2.38.335-.283-.29-.578-.604-.885-.935-1.15-1.237-2.454-2.64-3.825-3.348-2.112-1.092-3.83-.702-5.403 1.23-1.964 2.408-1.344 6.352 1.45 9.455a7.85 7.85 0 00-.1.532c-.26 1.762.44 3.548 1.97 5.03 1.49 1.443 3.603 2.428 5.948 2.774.605.09 1.206.134 1.798.134 1.706 0 3.33-.366 4.699-1.072 1.892-.976 3.077-2.484 3.337-4.247.063-.422.085-.805.075-1.156 2.79-1.838 4.171-4.59 3.521-7.074zM2.895 12.41C.683 9.706.215 6.464 1.82 4.492 2.652 3.473 3.456 2.98 4.374 2.98c.54 0 1.122.172 1.77.507C7.38 4.127 8.63 5.47 9.73 6.654l.481.515c-.654.163-1.201.355-1.658.583-1.202.6-1.941 1.376-2.251 2.368-.025.002-.047.007-.072.01-.392.04-.751.11-1.08.213l-.03.01c-.696.225-1.252.597-1.675 1.127l-.023.03c-.091.116-.176.24-.255.371l-.038.06a4.254 4.254 0 00-.209.42l-.025.05zm16.484 4.007c-.218 1.476-1.238 2.753-2.872 3.596-1.683.868-3.803 1.17-5.968.85-2.165-.319-4.107-1.22-5.467-2.537-1.322-1.28-1.93-2.797-1.712-4.273.036-.244.082-.47.136-.683.046-.181.1-.35.161-.51l.02-.054c.063-.155.132-.3.208-.433l.025-.042c.08-.135.168-.261.265-.374l.01-.01a2.38 2.38 0 01.334-.32l.002-.002c.117-.09.244-.17.38-.242l.045-.024c.132-.066.273-.123.423-.172l.069-.022c.152-.046.312-.085.483-.114l.067-.01c.18-.03.368-.052.57-.064.093-.006.197-.002.297-.002a6.696 6.696 0 01.72.038l.162.016.133.015c.118.016.239.037.359.057.07.012.137.022.207.035.11.02.221.044.332.068.078.017.155.032.234.05.167.037.335.078.503.12l.054.014c.577.147 1.154.316 1.703.477.922.269 1.793.523 2.503.628 2.285.337 3.74.6 4.607 1.072l.017.01c.668.37.98.867 1.044 1.627l.018.209c.007.286-.014.617-.072 1.006zm.799-1.987l-.009-.023a2.631 2.631 0 00-.148-.376 2.5 2.5 0 00-.133-.246l-.044-.064a2.67 2.67 0 00-.678-.69L19.122 13c-.047-.033-.087-.069-.137-.1-.052-.031-.11-.058-.164-.088l-.003-.001a5.537 5.537 0 00-1.017-.424c-.058-.019-.114-.038-.174-.056-.061-.018-.126-.035-.19-.052a12.2 12.2 0 00-.435-.112l-.049-.012c-.881-.205-1.908-.359-3.06-.529a7.612 7.612 0 01-.521-.098l-.008-.001c-.552-.122-1.191-.31-1.858-.504-1.271-.372-2.672-.78-3.961-.895l-.173-.017c.286-.626.837-1.13 1.696-1.558 1.244-.62 3.065-.836 4.672-1.027.955-.113 1.857-.22 2.552-.402 4.602-1.204 5.96-1.424 6.703 1.413.527 2.015-.57 4.276-2.817 5.893z" fill="#CCC"/><path d="M6.109 14.229a.438.438 0 00-.85.212l.438 1.75a.437.437 0 10.85-.212l-.438-1.75zm9.629-5.689a.438.438 0 10-.85.212l.438 1.75a.438.438 0 00.85-.212l-.438-1.75zm-2.419 9.68l-1.5 1.003a.438.438 0 10.487.728l1.5-1.004a.438.438 0 00-.487-.728zM4.372 6.458a.435.435 0 00.243-.074L6.114 5.38a.438.438 0 00-.487-.728l-1.5 1.004a.438.438 0 00.245.802zm8.873 9.056a.438.438 0 00.115-.86l-1.74-.478a.437.437 0 10-.232.844l1.74.478a.424.424 0 00.117.016zM4.147 9.609A.437.437 0 004.38 8.8l-1.526-.963a.438.438 0 00-.467.74l1.526.963a.433.433 0 00.233.068zm17.023.463l-1.337 1.213a.438.438 0 00.588.649l1.336-1.213a.438.438 0 00-.588-.649z" fill="#CCC"/></g></symbol><symbol id="icon__price-tag" viewBox="0 0 32 33"><g fill="none"><g clip-path="url(#clip0_460_43081)" fill="currentColor"><path d="M28.067 24.75c.259 0 .469-.21.469-.469v-11.25c0-.56-.218-1.132-.614-1.611l-3.477-4.212a2.748 2.748 0 00-.619-.555 4.46 4.46 0 00.022-.434V.969a.469.469 0 00-.937 0l-.001 5.317a2.321 2.321 0 00-.405-.036h-6.063c-.427 0-.845.12-1.22.34a.477.477 0 00-.048.02l-4.569 2.226a2.45 2.45 0 00-1.147 1.216l-1.89 4.792a.469.469 0 00.873.344l1.885-4.783c.142-.317.39-.576.694-.729L13.435 8.5l-2.41 2.92c-.36.437-.552.994-.552 1.611V29.22c0 .188.017.373.047.553l-4.83-2.14a2.173 2.173 0 01-1.102-2.863l.006-.014 3.055-7.593a.469.469 0 10-.87-.35l-3.052 7.586a3.112 3.112 0 001.583 4.09l5.664 2.51.021.008a3.204 3.204 0 002.697 1.494h11.563c1.778 0 3.28-1.503 3.28-3.281v-2.75a.469.469 0 00-.937 0v2.75c0 1.27-1.073 2.344-2.343 2.344H13.692c-1.258 0-2.281-1.052-2.281-2.344V13.03c0-.402.113-.744.337-1.014l3.476-4.213c.324-.392.768-.616 1.218-.616h6.063c.088 0 .176.009.263.025a3.53 3.53 0 01-2.002 2.254 1.47 1.47 0 10.196.932 4.467 4.467 0 002.642-2.725c.041.041.08.085.118.13l3.477 4.213c.257.312.4.672.4 1.014v11.25c0 .26.21.47.468.47zm-8.562-14a.532.532 0 11.001-1.064.532.532 0 01-.001 1.064z"/><path d="M15.442 25.438c.12 0 .24-.046.332-.138l8-8a.469.469 0 10-.663-.663l-8 8c-.299.279-.07.815.331.8zm.999-4.938c1.12 0 2.032-.911 2.032-2.031s-.912-2.032-2.032-2.032h-.062a2.032 2.032 0 00-.001 4.063h.063zm-1.156-2.031c0-.603.49-1.094 1.094-1.094h.062a1.095 1.095 0 010 2.188h-.062a1.096 1.096 0 01-1.094-1.094zm7.219 6.969h.062c1.12 0 2.032-.912 2.032-2.032s-.912-2.031-2.032-2.031h-.062c-1.12 0-2.031.911-2.031 2.031s.91 2.032 2.03 2.032zm0-3.125h.062a1.094 1.094 0 010 2.187h-.062a1.095 1.095 0 010-2.188z"/></g></g></symbol><symbol id="icon__quote" viewBox="0 0 40 40"><g fill="none"><path fill-rule="evenodd" clip-rule="evenodd" d="M29.778 4c-4.233 0-7.672 3.27-7.672 7.303 0 4.03 3.439 7.303 7.672 7.303 7.273 0 3.058 12.681-6.114 14.002a1.879 1.879 0 00-1.114.57 1.623 1.623 0 00-.444 1.103c0 1.037 1.003 1.857 2.113 1.7 16.671-2.338 22.6-31.979 5.559-31.979V4zM7.674 4C3.436 4 0 7.268 0 11.303 0 15.33 3.436 18.6 7.674 18.6c7.27 0 3.056 12.686-6.117 14.007a1.88 1.88 0 00-1.112.569A1.622 1.622 0 000 34.278c0 1.037 1.002 1.857 2.11 1.7C18.787 33.64 24.715 4 7.674 4z" fill="#00B307"/></g></symbol><symbol id="icon__salad" viewBox="0 0 24 24"><g fill="none"><path d="M23.738 11.486a.963.963 0 00-.7-.305h-.08c.357-.613.55-1.31.55-2.027a4.056 4.056 0 00-2.434-3.712 4.056 4.056 0 00-4.05-3.989 4.056 4.056 0 00-4.05 3.987 1.11 1.11 0 00-1.161.44l-.101.143a.3.3 0 01-.37.1l-.159-.074a1.109 1.109 0 00-1.571.906l-.016.175a.996.996 0 01-.07.243.298.298 0 01-.168-.243l-.016-.174a1.083 1.083 0 00-.474-.802l1.276-1.81a1.61 1.61 0 00.27-1.21 1.61 1.61 0 00-.662-1.05 1.623 1.623 0 00-2.259.393L5.158 5.79a1.61 1.61 0 00-.182.354.25.25 0 01-.12-.022l-.158-.073a1.111 1.111 0 00-1.571.906l-.016.175a.299.299 0 01-.271.27l-.174.016a1.112 1.112 0 00-.907 1.572l.073.158a.297.297 0 01-.099.37l-.143.101c-.295.208-.47.548-.47.908 0 .24.084.467.223.656H.962a.963.963 0 00-.96 1.033c.24 3.545 2.495 5.325 5.808 6.908.37.176.675.47.86.827.181.35.152.8-.078 1.184a.912.912 0 00-.013.93.911.911 0 00.802.467h9.238a.912.912 0 00.802-.468.916.916 0 00-.017-.936c-.226-.377-.255-.827-.074-1.176a1.88 1.88 0 01.86-.828c3.312-1.582 5.568-3.362 5.808-6.908a.977.977 0 00-.26-.728zm-1.04-2.332c0 .738-.253 1.451-.716 2.027h-2.12V9.56a.405.405 0 10-.811 0v1.621H17.62a1.25 1.25 0 00.086-.14l.004-.006a1.125 1.125 0 00.096-.275 1.11 1.11 0 00.028-.235c0-.36-.176-.7-.47-.906l-.093-.067c.032-.002.063-.007.095-.01a3.444 3.444 0 00.383-.05c.046-.009.093-.017.139-.027.084-.018.167-.04.25-.064l.11-.03c.116-.038.229-.079.34-.125.03-.013.06-.029.09-.043.08-.036.16-.073.237-.114.043-.023.085-.049.128-.073a3.99 3.99 0 00.476-.323c.044-.034.087-.067.128-.103.05-.043.098-.087.145-.132.041-.038.083-.076.122-.116.045-.045.087-.094.13-.142.08-.09.156-.184.229-.281.025-.035.052-.068.077-.104.044-.063.085-.13.125-.195.02-.033.042-.066.061-.1a4.023 4.023 0 00.263-.55l.02-.055c.073-.197.135-.4.178-.61a3.244 3.244 0 011.702 2.85zm-5.674-6.89a3.247 3.247 0 013.243 3.243c0 .06-.005.12-.01.181v.004a3.22 3.22 0 01-.302 1.194l-.005.01c-.04.085-.084.166-.13.246l-.017.029c-.043.072-.09.143-.14.211l-.03.045a3.184 3.184 0 01-.146.181c-.015.019-.03.038-.047.056a3.098 3.098 0 01-.149.155l-.064.062c-.048.046-.1.088-.15.131l-.08.065a4.24 4.24 0 01-.153.11c-.032.02-.062.043-.095.063-.05.032-.103.06-.155.09l-.108.06c-.05.025-.104.048-.156.071-.04.018-.08.037-.12.053-.052.02-.105.037-.157.055-.045.015-.088.03-.133.043-.051.015-.104.026-.156.039-.048.01-.096.023-.145.032-.05.01-.102.016-.153.023-.053.007-.105.015-.157.02-.01 0-.02 0-.031.002l.001-.016c.014-.074.018-.148.016-.222 0-.024-.003-.047-.005-.07a1.15 1.15 0 00-.028-.173c-.006-.023-.01-.046-.018-.068a1.093 1.093 0 00-.094-.222 1.11 1.11 0 00-.86-.55l-.176-.016a.299.299 0 01-.242-.169l.866-.865a.405.405 0 10-.573-.573l-.579.578a1.1 1.1 0 00-.308-.276 1.107 1.107 0 00-.258-.107c-.03-.009-.06-.01-.091-.015a1.062 1.062 0 00-.183-.024c-.007 0-.015-.003-.023-.003-.046 0-.092.009-.138.015-.029.003-.058.003-.086.01a1.11 1.11 0 00-.242.077l-.158.074a.276.276 0 01-.127.024h-.007a.293.293 0 01-.124-.037 3.208 3.208 0 01-.06-.603 3.246 3.246 0 013.243-3.243zm-6.62 4.94l.015-.175a.293.293 0 01.149-.232.292.292 0 01.274-.012l.16.074a1.11 1.11 0 001.372-.368l.101-.144a.308.308 0 01.49 0l.1.143c.207.293.534.456.875.466h.011c.05 0 .099 0 .148-.006.023-.002.046-.007.069-.011.033-.006.066-.011.099-.02.058-.016.116-.036.172-.062l.158-.073a.296.296 0 01.423.244l.016.174a1.11 1.11 0 001.005 1.005l.174.016a.294.294 0 01.233.148.297.297 0 01.012.275l-.075.16-.007.021a1.107 1.107 0 00.135 1.115c.015.02.03.037.046.055.02.023.039.046.06.067.042.041.086.08.135.114l.144.102a.299.299 0 010 .489l-.145.101-.003.004c-.053.037-.101.08-.146.126-.018.018-.034.039-.05.058a1.09 1.09 0 00-.07.09c-.007.011-.018.021-.026.034h-5.324c.033-.045.061-.092.087-.141l.004-.006a1.135 1.135 0 00.096-.274c.017-.076.028-.155.028-.234v-.001c0-.052-.01-.102-.018-.152-.005-.038-.004-.076-.014-.113a1.103 1.103 0 00-.153-.335 1.108 1.108 0 00-.285-.307l-.143-.101a.298.298 0 01-.1-.37l.075-.158c.036-.078.06-.16.078-.242.005-.025.005-.05.008-.075.008-.058.014-.116.013-.174 0-.03-.005-.06-.009-.091a1.112 1.112 0 00-.025-.155c-.009-.034-.02-.065-.031-.098-.01-.026-.015-.054-.026-.08-.008-.017-.02-.028-.027-.043-.01-.021-.016-.043-.027-.063-.021-.037-.05-.068-.076-.102-.021-.028-.04-.058-.064-.084a1.085 1.085 0 00-.163-.145c-.017-.013-.03-.031-.048-.043.041-.123.077-.259.09-.392zm-2.248-4.26a.811.811 0 011.326.933L7.9 6.121l-.753 1.07a.81.81 0 01-1.13.196s0-.002-.002-.002a.807.807 0 01-.15-.144c-.012-.013-.022-.027-.033-.041a.82.82 0 01-.096-.17l-.006-.012a.82.82 0 01-.047-.2l-.004-.053a.804.804 0 01.142-.508l2.335-3.313zM2.2 10.87l-.144-.101a.295.295 0 01-.126-.245c0-.098.046-.187.126-.244l.143-.101a1.11 1.11 0 00.369-1.374l-.074-.158a.297.297 0 01.012-.276.295.295 0 01.233-.148l.173-.015a1.11 1.11 0 001.006-1.005l.016-.175a.295.295 0 01.148-.232.296.296 0 01.275-.012l.16.074c.115.054.238.085.363.095l.006.025c.002.008 0 .015.002.022.008.046.025.089.037.133.014.053.024.106.043.157.022.06.053.115.082.172.02.038.034.078.057.114.04.064.088.123.137.181.02.025.037.052.059.076a1.615 1.615 0 00.499.358c.028.013.056.023.084.034a1.503 1.503 0 00.495.11c.026.002.052.006.078.007l.02.001a1.612 1.612 0 001.33-.687l.597-.846c.067.045.12.118.129.218l.015.174a1.11 1.11 0 001.006 1.005l.174.016a.293.293 0 01.104.035c.015.008.031.015.045.026.022.016.04.037.057.06.01.013.022.026.03.042.02.038.033.078.035.12v.005a.294.294 0 01-.027.134l-.074.16a1.105 1.105 0 00-.098.567l.001.008a1.105 1.105 0 00.464.798l.1.069.044.032a.3.3 0 01.094.384c-.006.012-.019.019-.027.03-.02.028-.038.056-.067.076l-.005.004-.139.097c-.055.04-.106.085-.153.133-.015.015-.027.032-.04.048a1.17 1.17 0 00-.087.111l-.014.019H2.495a1.111 1.111 0 00-.295-.311zm15.64 7.52a2.705 2.705 0 00-1.23 1.187c-.31.598-.271 1.351.104 1.974a.105.105 0 010 .112.106.106 0 01-.096.057H7.38a.106.106 0 01-.097-.057c-.014-.026-.026-.066.006-.12.371-.615.41-1.369.1-1.967a2.699 2.699 0 00-1.23-1.186C3.015 16.889 1.024 15.323.81 12.16a.16.16 0 01.043-.12.144.144 0 01.108-.048h22.076c.052 0 .088.025.109.047a.16.16 0 01.042.12c-.215 3.164-2.206 4.73-5.349 6.231z" fill="currentColor"/><path d="M14.997 18.882h-3.53a.405.405 0 100 .811h3.53a.405.405 0 100-.81zm-6.08.811h1.373a.405.405 0 100-.81H8.917a.405.405 0 100 .81zm6.08.405h-6.08a.405.405 0 100 .811h6.08a.405.405 0 100-.81zM16.165 5.22a.404.404 0 00.573 0 .405.405 0 000-.573L15.592 3.5a.405.405 0 10-.574.573l1.147 1.146zm2.292 2.292a.404.404 0 10.573-.573l-1.147-1.146a.405.405 0 10-.573.573l1.147 1.146zm-.859-2.173c.104 0 .207-.04.286-.119l1.147-1.146a.405.405 0 10-.573-.573L17.31 4.647a.405.405 0 00.287.692zm2.263 3.411c0 .223.181.404.405.404h1.622a.405.405 0 100-.81h-1.622a.405.405 0 00-.405.405zm-7.498.202c.104 0 .208-.04.287-.119l.608-.608a.405.405 0 10-.573-.573l-.608.608a.405.405 0 00.286.692zm1.942.894a.404.404 0 10.574-.573l-.406-.405a.405.405 0 10-.573.573l.405.405zm-1.621-.167l-.405.405a.405.405 0 10.573.573l.406-.405a.405.405 0 10-.573-.573z" fill="currentColor"/></g></symbol><symbol id="icon__search" viewBox="0 0 20 21"><g fill="none"><path d="M9.167 16.333A6.667 6.667 0 109.167 3a6.667 6.667 0 000 13.333zM17.5 18l-3.625-3.625" stroke="#1A1A1A" stroke-linecap="round" stroke-linejoin="round"/></g></symbol><symbol id="icon__secure" viewBox="0 0 65 32"><g fill="none"><path fill-rule="evenodd" clip-rule="evenodd" d="M12.555 7.208v1.376h.458c.76 0 1.375.615 1.375 1.375v3.208c0 .76-.616 1.375-1.375 1.375H6.596c-.76 0-1.375-.616-1.375-1.375V9.959c0-.76.616-1.375 1.375-1.375h.459V7.209a2.75 2.75 0 115.5 0zm-2.75-1.833A1.833 1.833 0 007.97 7.208v1.376h3.667V7.209a1.833 1.833 0 00-1.833-1.834zM13.013 9.5c.253 0 .458.205.458.459v3.208a.458.458 0 01-.458.458H6.596a.458.458 0 01-.458-.458V9.959c0-.254.205-.459.458-.459h6.417zm41.705.86a5.89 5.89 0 00.032-.605c0-.55-.12-1.041-.362-1.474a2.544 2.544 0 00-1.012-1.034c-.44-.25-.947-.374-1.518-.374-.587 0-1.108.128-1.563.385-.447.25-.795.609-1.044 1.078-.25.47-.374 1.016-.374 1.639s.128 1.173.384 1.65c.257.47.61.832 1.056 1.089.455.257.968.385 1.54.385.72 0 1.32-.18 1.804-.539.484-.367.807-.84.968-1.419h-1.078a1.62 1.62 0 01-.616.814c-.285.198-.645.297-1.078.297-.527 0-.978-.165-1.352-.495-.367-.337-.569-.803-.605-1.397h4.818zm-1.255-1.793c.17.271.254.598.254.979H49.91c.05-.572.252-1.02.605-1.342a1.87 1.87 0 011.297-.484c.352 0 .671.073.957.22.294.14.525.348.694.627z" fill="#fff"/><path d="M46.148 7.95a1.93 1.93 0 01.748-.802c.33-.19.73-.286 1.199-.286v1.034h-.264c-1.122 0-1.683.608-1.683 1.826V13h-1.001V6.972h1.001v.979zM43.457 13V6.972h-1.001v3.311c0 .63-.154 1.111-.462 1.441-.308.33-.73.495-1.265.495-.521 0-.932-.157-1.232-.473-.301-.322-.451-.78-.451-1.375V6.972h-.99v3.531c0 .557.106 1.03.319 1.42.22.388.517.681.89.88.375.19.796.285 1.266.285.41 0 .784-.084 1.122-.253a1.98 1.98 0 00.803-.726V13h1zM31.055 9.975c0-.623.125-1.166.374-1.628.25-.47.594-.832 1.034-1.089a3.017 3.017 0 011.53-.385c.74 0 1.349.18 1.825.539.484.36.803.858.957 1.496h-1.078a1.54 1.54 0 00-.605-.869c-.293-.213-.66-.319-1.1-.319-.572 0-1.034.198-1.386.594-.352.389-.528.942-.528 1.661 0 .726.176 1.287.528 1.683.352.396.814.594 1.386.594.44 0 .807-.103 1.1-.308.294-.205.495-.499.605-.88h1.078a2.678 2.678 0 01-.968 1.485c-.484.367-1.089.55-1.815.55-.572 0-1.081-.128-1.529-.385a2.692 2.692 0 01-1.034-1.089c-.25-.47-.374-1.02-.374-1.65z" fill="#fff"/><path fill-rule="evenodd" clip-rule="evenodd" d="M30.075 10.36a5.89 5.89 0 00.033-.605c0-.55-.121-1.041-.363-1.474a2.544 2.544 0 00-1.012-1.034c-.44-.25-.946-.374-1.518-.374-.587 0-1.107.128-1.562.385a2.6 2.6 0 00-1.045 1.078c-.25.47-.374 1.016-.374 1.639s.128 1.173.385 1.65c.257.47.609.832 1.056 1.089.455.257.968.385 1.54.385.719 0 1.32-.18 1.804-.539.484-.367.807-.84.968-1.419h-1.078a1.62 1.62 0 01-.616.814c-.286.198-.645.297-1.078.297-.528 0-.98-.165-1.353-.495-.367-.337-.568-.803-.605-1.397h4.818zM28.82 8.567c.169.271.253.598.253.979h-3.806c.051-.572.253-1.02.605-1.342.36-.323.792-.484 1.298-.484.352 0 .67.073.957.22.293.14.524.348.693.627z" fill="#fff"/><path d="M20.583 13.077c-.506 0-.961-.088-1.364-.264a2.33 2.33 0 01-.935-.748 1.943 1.943 0 01-.352-1.111h1.067c.036.36.183.664.44.913.264.242.645.363 1.144.363.476 0 .85-.117 1.122-.352a1.17 1.17 0 00.418-.924c0-.293-.081-.532-.242-.715a1.546 1.546 0 00-.605-.418 9.449 9.449 0 00-.98-.308 8.894 8.894 0 01-1.22-.396 2.028 2.028 0 01-.781-.616c-.213-.286-.32-.667-.32-1.144 0-.418.107-.788.32-1.111.212-.323.51-.572.89-.748a3.195 3.195 0 011.332-.264c.718 0 1.305.18 1.76.539.462.36.722.836.78 1.43h-1.1c-.036-.293-.19-.55-.461-.77-.272-.227-.631-.341-1.078-.341-.418 0-.76.11-1.023.33-.264.213-.396.513-.396.902 0 .279.077.506.23.682.162.176.356.312.584.407.234.088.56.19.979.308.506.14.913.279 1.22.418.309.132.573.34.793.627.22.279.33.66.33 1.144 0 .374-.1.726-.297 1.056-.198.33-.492.598-.88.803-.389.205-.847.308-1.375.308zm36.986 10.871v-3.216h1.488v-1.38h-1.488v-1.644h-1.692v1.644h-.792v1.38h.792v3.204c0 1.376.708 2.064 2.124 2.064h1.056v-1.416h-.78c-.256 0-.44-.048-.552-.144-.104-.104-.156-.268-.156-.492zm-6.205-4.692c.792 0 1.432.252 1.92.756.488.496.732 1.192.732 2.088V26h-1.68v-3.672c0-.528-.132-.932-.396-1.212-.264-.288-.624-.432-1.08-.432-.464 0-.832.144-1.104.432-.264.28-.396.684-.396 1.212V26h-1.68v-6.648h1.68v.828c.224-.288.508-.512.852-.672a2.64 2.64 0 011.152-.252z" fill="#fff"/><path fill-rule="evenodd" clip-rule="evenodd" d="M46.405 23.18c.032-.192.048-.408.048-.648 0-.648-.14-1.22-.42-1.716a2.815 2.815 0 00-1.164-1.164c-.496-.272-1.06-.408-1.692-.408-.656 0-1.236.14-1.74.42a2.93 2.93 0 00-1.176 1.2c-.28.52-.42 1.124-.42 1.812 0 .68.14 1.28.42 1.8.288.52.684.924 1.188 1.212.512.28 1.088.42 1.728.42.792 0 1.46-.204 2.004-.612a3.059 3.059 0 001.104-1.584h-1.812c-.264.536-.708.804-1.332.804-.432 0-.796-.136-1.092-.408-.296-.272-.464-.648-.504-1.128h4.86zm-2.16-2.16c.304.256.46.6.468 1.032h-3.156c.064-.448.236-.796.516-1.044.288-.256.64-.384 1.056-.384.44 0 .812.132 1.116.396z" fill="#fff"/><path d="M35.955 19.256c.816 0 1.472.252 1.968.756.504.496.756 1.192.756 2.088V26H37v-3.672c0-.52-.132-.916-.396-1.188-.264-.28-.624-.42-1.08-.42-.456 0-.82.14-1.092.42-.264.272-.396.668-.396 1.188V26h-1.68v-3.672c0-.52-.132-.916-.396-1.188-.264-.28-.624-.42-1.08-.42-.464 0-.832.14-1.104.42-.264.272-.396.668-.396 1.188V26H27.7v-6.648h1.68v.804c.216-.28.492-.5.828-.66.344-.16.72-.24 1.128-.24.52 0 .984.112 1.392.336.408.216.724.528.948.936.216-.384.528-.692.936-.924a2.715 2.715 0 011.344-.348zm-13.278 9.888l4.117-9.792h-1.788l-1.74 4.644-1.716-4.644h-1.884l2.663 6.48-1.44 3.312h1.788z" fill="#fff"/><path fill-rule="evenodd" clip-rule="evenodd" d="M11.869 22.652c0-.672.132-1.268.396-1.788.272-.52.636-.92 1.092-1.2.464-.28.98-.42 1.548-.42.496 0 .928.1 1.296.3.376.2.676.452.9.756v-.948h1.692V26H17.1v-.972a2.539 2.539 0 01-.9.78c-.376.2-.812.3-1.308.3-.56 0-1.072-.144-1.536-.432a3.091 3.091 0 01-1.092-1.212c-.264-.528-.396-1.132-.396-1.812zm5.232.024c0-.408-.08-.756-.24-1.044a1.642 1.642 0 00-.648-.672 1.699 1.699 0 00-.876-.24c-.312 0-.6.076-.864.228-.264.152-.48.376-.648.672-.16.288-.24.632-.24 1.032s.08.752.24 1.056c.168.296.384.524.648.684.272.16.56.24.864.24.312 0 .604-.076.876-.228.272-.16.488-.384.648-.672.16-.296.24-.648.24-1.056zm-6.317-1.2a2.57 2.57 0 00.324-1.26c0-.496-.116-.94-.348-1.332-.224-.392-.564-.7-1.02-.924-.456-.224-1.008-.336-1.656-.336H5V26h1.68v-3.216h1.404c.688 0 1.256-.12 1.704-.36.456-.24.788-.556.996-.948zm-1.74-.36c-.224.208-.568.312-1.032.312H6.68v-2.436h1.332c.912 0 1.368.408 1.368 1.224 0 .384-.112.684-.336.9z" fill="#fff"/></g></symbol><symbol id="icon__settings" viewBox="0 0 25 24"><g fill="none"><path d="M13.987 22h-3.64a1 1 0 01-.977-.786l-.407-1.884a8.003 8.003 0 01-1.535-.887l-1.837.585a1 1 0 01-1.17-.453l-1.824-3.151a1.006 1.006 0 01.193-1.239l1.425-1.3a8.1 8.1 0 010-1.772L2.79 9.816a1.006 1.006 0 01-.193-1.24l1.82-3.153a1 1 0 011.17-.453l1.837.585c.244-.18.498-.348.761-.5.252-.142.512-.271.778-.386l.408-1.882A1 1 0 0110.347 2h3.64a1 1 0 01.976.787l.412 1.883a7.994 7.994 0 011.534.887l1.838-.585a1 1 0 011.17.453l1.82 3.153c.232.407.151.922-.194 1.239l-1.425 1.3a8.1 8.1 0 010 1.772l1.425 1.3c.345.318.425.832.193 1.239l-1.82 3.153a1 1 0 01-1.169.453l-1.838-.585a7.972 7.972 0 01-1.534.886l-.412 1.879a1 1 0 01-.976.786zm-6.2-5.771l.82.6a6.308 6.308 0 001.156.671l.933.409.457 2.091h2.03l.457-2.092.933-.409c.407-.18.794-.403 1.153-.666l.821-.6 2.041.65 1.015-1.758-1.583-1.443.112-1.012c.05-.443.05-.89 0-1.332l-.112-1.012 1.584-1.446-1.016-1.759-2.04.65-.822-.6a6.229 6.229 0 00-1.153-.671l-.933-.409L13.183 4h-2.03l-.459 2.092-.93.408a6.01 6.01 0 00-1.154.666l-.82.6-2.04-.65L4.731 8.88l1.583 1.441-.112 1.013c-.05.443-.05.89 0 1.332l.112 1.012-1.583 1.443 1.015 1.758 2.04-.65zM12.163 16a4 4 0 110-8 4 4 0 010 8zm0-6a2 2 0 102 2.09v.4V12a2 2 0 00-2-2z" fill="#CCC"/></g></symbol><symbol id="icon__shipping" viewBox="0 0 40 40"><g fill="none"><path d="M8.728 29.121a1.212 1.212 0 100 2.425 1.212 1.212 0 000-2.425zm25.049 0a1.212 1.212 0 100 2.425 1.212 1.212 0 000-2.425z" fill="#2C742F"/><path d="M38.315 19.955l-4.09-1.362-2.569-6.68a2.48 2.48 0 00-2.3-1.58H18.767l-.012-.146a1.205 1.205 0 00-1.207-1.106h-1.973v-.669A2.468 2.468 0 0013.11 5.95a2.467 2.467 0 00-2.464 2.463v.668H8.675a1.205 1.205 0 00-1.208 1.106l-.012.146H1.213A1.212 1.212 0 000 11.546v16.909c0 .667.544 1.212 1.212 1.212h3.86a3.721 3.721 0 003.655 4.384 3.722 3.722 0 003.657-4.385H30.12a3.72 3.72 0 003.657 4.384 3.72 3.72 0 003.62-4.559l1.24-.62A2.452 2.452 0 0040 26.667v-4.375a2.463 2.463 0 00-1.685-2.337zm-7.107-5.945l1.717 4.465h-1.856L29.58 14.01h1.627zm-1.375 4.465H25.01a.667.667 0 01-.666-.666V14.01h4.001l1.488 4.465zM11.82 8.412c0-.712.58-1.292 1.293-1.292.712 0 1.292.58 1.292 1.292v.668h-2.586v-.668h.001zm-4.329 15.03L8.635 10.29a.04.04 0 01.04-.037h1.971v1.292a.586.586 0 101.173 0v-1.293h2.585v1.293a.586.586 0 101.172 0v-1.293h1.971a.04.04 0 01.04.038l1.144 13.15c0 .006 0 .019-.011.031-.012.013-.025.013-.03.013H7.532c-.005 0-.017 0-.03-.013a.037.037 0 01-.01-.03zm1.236 9.437a2.548 2.548 0 01-2.546-2.545 2.55 2.55 0 012.546-2.546 2.548 2.548 0 012.546 2.546 2.548 2.548 0 01-2.546 2.545zm25.05 0a2.549 2.549 0 01-2.544-2.545 2.548 2.548 0 012.545-2.546 2.55 2.55 0 012.546 2.546 2.549 2.549 0 01-2.546 2.545zm5.05-9.394h-.666a.587.587 0 100 1.171h.668v2.01c0 .494-.275.938-.715 1.158l-1.16.58a3.719 3.719 0 00-3.175-1.788 3.72 3.72 0 00-3.23 1.879H11.956a3.717 3.717 0 00-3.229-1.879A3.719 3.719 0 005.5 28.495H1.21a.04.04 0 01-.038-.04v-3.799h3.17a.585.585 0 100-1.171h-3.17v-11.94c0-.021.019-.04.041-.04h6.14L6.325 23.34a1.215 1.215 0 001.207 1.316H18.69a1.214 1.214 0 001.209-1.316l-1.03-11.835h10.487a1.3 1.3 0 011.206.829l.194.505h-6.998a.586.586 0 00-.587.585v4.384a1.84 1.84 0 001.839 1.838h8.672l4.263 1.421c.527.175.884.67.884 1.226v1.192h-.002z" fill="#2C742F"/><path d="M35.656 23.485H21.88a.587.587 0 100 1.171h13.777a.586.586 0 000-1.171z" fill="#2C742F"/></g></symbol><symbol id="icon__shopping-bag" viewBox="0 0 40 40"><g fill="none"><path d="M32.568 31.734l-1.841-20.752a.789.789 0 00-.795-.722H26.05C26.044 6.809 23.235 4 19.784 4c-3.45 0-6.26 2.809-6.266 6.26H9.636a.798.798 0 00-.795.722L7 31.734v.073C7 34.12 9.126 36 11.736 36h16.096c2.61 0 4.736-1.881 4.736-4.193v-.073zM19.784 5.59a4.683 4.683 0 014.677 4.67h-9.353a4.683 4.683 0 014.676-4.67zm8.048 28.814H11.736c-1.722 0-3.126-1.146-3.146-2.57l1.775-19.985h3.153v2.789c0 .437.358.795.795.795a.797.797 0 00.795-.795v-2.789h9.353v2.789c0 .437.357.795.794.795a.797.797 0 00.795-.795v-2.789h3.153L30.98 31.84c-.02 1.418-1.425 2.564-3.147 2.564z" fill="currentColor"/><path d="M23.09 20.547l-4.69 4.69-1.915-1.915a.796.796 0 10-1.125 1.126l2.477 2.477a.797.797 0 001.126 0l5.253-5.253a.796.796 0 000-1.125.808.808 0 00-1.127 0z" fill="currentColor"/></g></symbol><symbol id="icon__star" viewBox="0 0 16 16"><g fill="none"><path d="M8.276 11.921l3.152 1.997c.403.255.903-.124.784-.595l-.91-3.582a.548.548 0 01.176-.555l2.827-2.353c.371-.309.18-.925-.297-.956l-3.692-.24a.526.526 0 01-.453-.334L8.486 1.836a.52.52 0 00-.972 0L6.137 5.303a.526.526 0 01-.453.334l-3.691.24c-.477.03-.67.647-.298.956l2.827 2.353a.548.548 0 01.177.555l-.844 3.322c-.143.564.457 1.02.94.713l2.93-1.855a.514.514 0 01.551 0z" fill="currentColor"/></g></symbol><symbol id="icon__steak" viewBox="0 0 24 24"><g fill="none"><path d="M22.964 6.558c-.854-2.104-2.447-4.841-5.19-5.933-2.012-.8-4.343-.608-6.929.57-3.233 1.474-4.29 4.116-2.976 7.439.407 1.03.252 2.156-.415 3.011-.668.856-1.726 1.278-2.827 1.136-1.756-.23-3.103.164-3.899 1.14-.609.748-1.148 2.176-.259 4.732l.017.042c.063.138 1.603 3.403 5.556 4.71.854.282 1.738.36 2.593.436l.135.012c.286.025.778.058 1.418.058 1.596 0 4.108-.204 6.604-1.237 3.635-1.503 5.942-4.182 6.855-7.96.642-2.655.405-5.476-.683-8.156zm-.217 7.938c-.84 3.475-2.962 5.939-6.31 7.323-3.299 1.365-6.638 1.195-7.584 1.111l-.136-.012c-.84-.074-1.632-.144-2.384-.393-3.416-1.13-4.874-3.95-4.998-4.2-.575-1.67-.535-3.024.112-3.82.582-.713 1.64-.991 3.059-.805 1.434.189 2.807-.367 3.678-1.485.871-1.116 1.075-2.582.545-3.921-1.137-2.877-.296-4.982 2.5-6.256 2.348-1.07 4.434-1.256 6.202-.552 2.44.97 3.888 3.483 4.675 5.42 1.015 2.5 1.237 5.124.64 7.59z" fill="#CCC"/><path d="M15.494 8.726a2.318 2.318 0 002.315-2.316 2.318 2.318 0 00-2.315-2.315 2.318 2.318 0 00-2.315 2.315 2.318 2.318 0 002.315 2.316zm0-3.705a1.39 1.39 0 010 2.778 1.39 1.39 0 01-1.39-1.389c0-.766.624-1.389 1.39-1.389z" fill="#CCC"/><path d="M22.127 11.253a11.923 11.923 0 00-.873-3.961c-2.01-4.95-5.312-6.456-9.795-4.415-.897.41-3.627 1.654-2.15 5.389.537 1.36.382 2.822-.427 4.01-.915 1.346-2.5 2.05-4.138 1.834-1.22-.163-2.135.08-2.558.675-.447.63-.443 1.721.012 3.072l.027.063c.231.451 1.534 2.75 4.486 3.727.671.221 1.404.286 2.18.355l.13.011c.393.035.815.053 1.253.053 8.747 0 11.007-5.442 11.573-7.782a10.864 10.864 0 00.28-3.031zM11.844 3.72c1.173-.535 2.253-.806 3.21-.806 2.27 0 4.068 1.59 5.342 4.726.38.938.622 1.894.74 2.85-2.075-.586-5.748 1.233-6.361 1.55-2.77.88-4.053-.383-4.404-.83a5.211 5.211 0 00-.202-3.285c-1.015-2.57.277-3.568 1.675-4.205zm-2.196 9.077c.14-.205.259-.417.366-.634.542.496 1.505 1.104 2.988 1.104.609 0 1.305-.103 2.094-.358a.477.477 0 00.071-.03c1.824-.95 4.985-2.103 6.046-1.354.02.86-.066 1.712-.266 2.541l-.015.058c-1.009-.284-3.454-.568-7.49 1.368-1.381.662-2.573.791-3.542.385-.937-.393-1.462-1.208-1.694-1.667a5.19 5.19 0 001.442-1.413zm-.544 8.293l-.131-.011c-.721-.064-1.402-.124-1.97-.312-2.579-.853-3.752-2.889-3.938-3.24-.397-1.194-.325-1.922-.123-2.206.201-.284.851-.403 1.681-.293a5.278 5.278 0 002.66-.338c.027.151.056.322.083.505a5.886 5.886 0 002.467 3.98c.953.657 1.597 1.25 1.626 1.925-.381.024-.773.04-1.184.04-.412 0-.806-.017-1.17-.05zm3.28-.073c-.074-1.255-1.313-2.113-2.025-2.604a4.935 4.935 0 01-1.79-2.273c.271.225.59.43.961.586 1.227.52 2.677.385 4.312-.4 3.792-1.818 6.009-1.534 6.82-1.314-.77 2.12-2.828 5.339-8.277 6.005z" fill="#CCC"/></g></symbol><symbol id="icon__support" viewBox="0 0 45 44"><g fill="none"><path d="M34.308 32.803a2.669 2.669 0 00-1.325-1.978L24.73 26.07a2.693 2.693 0 00-3.245.43l-2.135 2.136a1.16 1.16 0 01-1.551.078 46.967 46.967 0 01-3.69-3.323 47.002 47.002 0 01-3.322-3.689 1.159 1.159 0 01.078-1.551L13 18.015a2.694 2.694 0 00.429-3.243L8.675 6.515A2.67 2.67 0 006.696 5.19a2.667 2.667 0 00-2.253.764l-2.45 2.452c-3.499 3.498.152 12.63 8.311 20.788 6.064 6.064 12.664 9.64 17.091 9.638 1.53 0 2.8-.426 3.7-1.326l2.448-2.45a2.669 2.669 0 00.765-2.255v.001zm-1.676 1.342l-.326.328-7.07-4.035a.645.645 0 00-.639 1.12l6.764 3.86-1.18 1.178c-1.327 1.328-4.066 1.263-7.511-.18-3.68-1.536-7.747-4.427-11.454-8.132C7.509 24.577 4.62 20.51 3.083 16.83c-1.443-3.446-1.509-6.185-.179-7.512l1.258-1.26.447.778a.645.645 0 101.118-.644l-.62-1.076.247-.248a1.389 1.389 0 011.173-.399c.436.058.811.31 1.031.69l4.754 8.256a1.402 1.402 0 01-.224 1.689l-.781.78-4.202-7.3a.644.644 0 10-1.118.644l4.376 7.601-.412.413a2.446 2.446 0 00-.17 3.27 48.262 48.262 0 003.415 3.792 48.252 48.252 0 003.792 3.415 2.447 2.447 0 003.273-.17l.297-.297 1.59.907a.642.642 0 00.96-.478.645.645 0 00-.32-.641l-1.286-.733.894-.894a1.402 1.402 0 011.688-.224l8.257 4.754c.381.22.633.594.69 1.03a1.388 1.388 0 01-.4 1.172z" fill="#1A1A1A"/><path d="M21.285 21.704h-4.829c.226-1.883 1.431-3.162 2.7-4.508 1.365-1.444 2.774-2.939 2.774-5.183a3.404 3.404 0 00-3.4-3.4 3.405 3.405 0 00-3.402 3.4.645.645 0 001.29 0c0-1.164.947-2.11 2.112-2.11 1.163 0 2.11.946 2.11 2.11 0 1.733-1.122 2.92-2.42 4.299-1.449 1.535-3.092 3.276-3.092 6.036 0 .357.289.646.646.646h5.511a.645.645 0 100-1.29zm8.268-3.444h-.733V9.256a.645.645 0 10-1.29 0v9.001h-3.433l1.273-8.91a.645.645 0 10-1.277-.183l-1.378 9.647a.647.647 0 00.638.736h4.179v2.8a.645.645 0 001.29 0v-2.8h.732a.645.645 0 100-1.29l-.001.003zm14.99-9.383a.645.645 0 00-.52-.264h-4.824a.645.645 0 000 1.29h3.943l-3.868 12.251a.645.645 0 001.23.39l4.133-13.092a.646.646 0 00-.095-.575h.001zM36.616 6.57a.645.645 0 00-.793.447L30.999 24.24a.645.645 0 001.242.348l4.822-17.224a.645.645 0 00-.448-.795h.001z" fill="#1A1A1A"/></g></symbol><symbol id="icon__tag" viewBox="0 0 20 21"><g fill="none"><path d="M17.158 11.675l-5.975 5.975a1.666 1.666 0 01-2.358 0L1.667 10.5V2.167H10l7.158 7.158a1.667 1.667 0 010 2.35v0zM5.833 6.333h.008" stroke="#B3B3B3" stroke-linecap="round" stroke-linejoin="round"/></g></symbol><symbol id="icon__turkey" viewBox="0 0 24 24"><g fill="none"><path d="M23.693 3.4a1.326 1.326 0 00-.758-.47 1.36 1.36 0 00-.612-.66 1.393 1.393 0 00-1.614.228 1.37 1.37 0 00-.405 1.19c.02.14.029.407-.143.615l-1.343 1.63c-.02-.003-.039-.008-.059-.012l-.056-.01-.057.007a1.767 1.767 0 00-.408.1c-.29.106-.55.28-.75.521l-.014.017a5.657 5.657 0 01-.413.439c-1.452-.4-3.649-.346-6.231 1.868-.047.04-.099.087-.156.14a6.415 6.415 0 01-.364.311 3.5 3.5 0 00-.03-.493c-.161-1.198-.933-2.24-2.231-3.01a.973.973 0 00-1.469.899c.02.346-.06.765-.221 1.233a1.837 1.837 0 00-.608-.106c-2.544-.002-4.124 1.667-4.124 4.355 0 .25.025.5.074.743.128.636.14 1.192.034 1.698a5.126 5.126 0 00-.108 1.043c0 .65.172 1.236.494 1.756a2.841 2.841 0 00-.615.85H.785a.781.781 0 00-.698.426.782.782 0 00.06.815l.919 1.287a2.711 2.711 0 002.202 1.134h16.65a2.71 2.71 0 002.202-1.134l.92-1.287a.782.782 0 00.06-.815.78.78 0 00-.698-.425h-1.128a2.745 2.745 0 00-.171-.308c1.116-.857 1.817-1.912 2.075-3.144.365-1.735-1.274-3.825-2.927-5.686.05-.066.098-.132.151-.197l.004-.004.048-.073c.016-.031.296-.596.24-1.244l1.417-1.717c.171-.209.435-.251.577-.258a1.37 1.37 0 001.09-.625 1.395 1.395 0 00-.085-1.627zm-4.341 5.592l-.146.207.006.006c-.677 1.049-1.086 2.203-1.182 3.387a3.083 3.083 0 01-.697 1.715 3.074 3.074 0 01-2.167 1.12 3.087 3.087 0 01-2.308-.797c-1.202-1.088-1.344-2.996-.318-4.254a3.059 3.059 0 011.762-1.072 6.8 6.8 0 002.957-1.396h.002l.016-.014a6.329 6.329 0 00.774-.765c.02-.025.044-.048.065-.073a.929.929 0 01.567-.323c.083.015.151.038.226.058.11.029.21.063.3.1.03.013.062.026.09.04a1.4 1.4 0 01.288.185.893.893 0 01.185.22.808.808 0 01.096.25v.004c.075.373-.074.762-.124.876-.14.171-.269.347-.392.526zM7.47 6.51a.154.154 0 01.164 0c.75.446 1.68 1.227 1.84 2.419.042.313.03.641-.034.983l-.015.071c-.146.708-.514 1.475-1.097 2.293l-.015.021a12.65 12.65 0 01-.849 1.05 16.36 16.36 0 01-.435.471c-.26.27-.516.482-.76.633-.395.243-.76.321-1.067.229-.008-.003-.017-.003-.025-.006-.372-.127-.648-.538-.704-1.048-.003-.017 0-.036 0-.053-.023-.298.04-.606.157-.918.223-.585.634-1.18 1.014-1.728.037-.052.069-.1.104-.152.1-.143.199-.286.288-.422l.052-.084a10.693 10.693 0 00.37-.613c.028-.049.056-.096.083-.146.16-.292.3-.577.418-.852l.135-.318-.012-.007c.208-.564.341-1.14.31-1.67a.158.158 0 01.078-.153zM2.915 17.832a2.06 2.06 0 01.245-.148c.013-.006.027-.01.04-.017.07-.034.142-.063.215-.088l.095-.029a2.01 2.01 0 01.186-.044c.03-.005.06-.012.091-.016.092-.013.186-.021.28-.021.098 0 .193.009.287.022l.084.015c.067.013.135.03.2.048a2.161 2.161 0 01.32.122l.02.01c.084.041.162.09.239.142.022.015.043.032.064.048.055.041.108.085.158.13.021.02.042.039.062.06.058.057.113.118.164.183l.022.027.004.006H2.443c.133-.175.293-.326.472-.45zm4.438.417a2.07 2.07 0 01.163-.183l.062-.059c.05-.046.103-.09.158-.13.022-.017.042-.034.065-.049.076-.052.155-.1.238-.142l.02-.009c.076-.038.156-.07.238-.098.027-.009.055-.016.082-.024.066-.02.132-.036.2-.049l.084-.015c.094-.013.19-.022.287-.022.096 0 .191.01.286.022l.083.015a2.1 2.1 0 01.201.049c.028.008.055.015.082.024.082.029.162.06.239.098l.02.009c.082.041.161.09.237.142.022.015.043.033.065.049.055.04.107.084.158.13.021.02.042.038.062.059.058.057.113.118.163.183l.023.027a.051.051 0 01.004.006H7.327l.004-.006.022-.027zm4.881 0a1.91 1.91 0 01.164-.183l.062-.059c.05-.046.103-.09.158-.13a2.004 2.004 0 01.303-.191l.019-.009c.077-.038.157-.07.238-.098.027-.009.055-.016.082-.024.066-.02.133-.036.201-.049l.084-.015c.094-.013.19-.022.286-.022.097 0 .192.01.286.022l.084.015a2.1 2.1 0 01.2.049c.028.008.056.015.083.024.081.029.161.06.238.098l.02.009c.083.041.162.09.238.142.022.015.043.033.064.049.055.04.108.084.158.13.021.02.043.038.063.059.057.057.112.118.163.183l.022.027a.051.051 0 01.004.006h-3.246l.004-.006.022-.027zm4.882 0c.05-.065.105-.126.163-.183l.062-.059c.05-.046.103-.09.158-.13.021-.017.042-.034.065-.049.076-.052.154-.1.238-.142l.019-.009c.077-.038.157-.07.239-.098.027-.009.054-.016.082-.024a2.01 2.01 0 01.2-.049l.084-.015a1.875 1.875 0 01.631.012c.031.004.063.01.094.016.054.012.107.028.16.045.014.003.027.008.041.012a2.058 2.058 0 01.876.584l.108.123h-3.247l.004-.007c.007-.01.015-.018.023-.027zm5.229.847l-.887 1.241c-.355.497-.93.793-1.54.793H3.268c-.61 0-1.185-.297-1.54-.793L.84 19.096h21.504zm.036-4.432c-.22 1.048-.827 1.954-1.806 2.696-.021-.018-.044-.034-.065-.051a2.842 2.842 0 00-.425-.29 2.093 2.093 0 00-.154-.083 2.886 2.886 0 00-.747-.239l-.076-.01a2.793 2.793 0 00-.396-.032c-.14 0-.278.013-.413.033-.044.006-.087.017-.13.026a2.88 2.88 0 00-.268.064 2.82 2.82 0 00-.743.348c-.04.026-.08.05-.119.078a2.846 2.846 0 00-.247.204c-.02.019-.042.034-.061.053a2.9 2.9 0 00-.266.298c-.026.033-.047.069-.07.103-.043.059-.086.116-.124.179-.037-.063-.081-.12-.123-.179-.024-.034-.046-.07-.071-.103a2.843 2.843 0 00-.266-.297c-.02-.019-.041-.035-.061-.053a2.835 2.835 0 00-.247-.204c-.039-.028-.08-.052-.12-.079a2.935 2.935 0 00-.362-.202 2.795 2.795 0 00-.235-.097 3.526 3.526 0 00-.145-.049 2.881 2.881 0 00-.268-.064c-.044-.009-.086-.02-.13-.026a2.822 2.822 0 00-.413-.033c-.14 0-.277.013-.412.033-.044.006-.087.017-.13.026a2.88 2.88 0 00-.268.064 2.82 2.82 0 00-.743.348c-.04.026-.08.05-.119.078a2.846 2.846 0 00-.247.204c-.02.019-.042.034-.061.053a2.889 2.889 0 00-.266.298c-.026.033-.047.069-.07.103-.043.059-.087.116-.124.179-.038-.063-.082-.12-.124-.178-.024-.035-.045-.07-.071-.103a2.836 2.836 0 00-.266-.298c-.02-.019-.041-.035-.061-.053a2.839 2.839 0 00-.247-.204c-.038-.028-.079-.052-.119-.078a2.916 2.916 0 00-.362-.203 2.793 2.793 0 00-.236-.096 2.249 2.249 0 00-.145-.05 2.816 2.816 0 00-.268-.064c-.043-.009-.086-.02-.13-.026a2.822 2.822 0 00-.412-.033c-.14 0-.277.013-.413.033-.044.007-.086.017-.13.026a3.07 3.07 0 00-.268.064 2.818 2.818 0 00-.743.348c-.04.026-.08.05-.119.078a2.894 2.894 0 00-.247.204c-.02.019-.041.034-.061.053a2.88 2.88 0 00-.266.299c-.025.032-.046.068-.07.102-.043.06-.087.116-.124.179-.037-.063-.081-.12-.123-.178-.024-.035-.046-.07-.072-.103a2.823 2.823 0 00-.265-.298c-.02-.019-.042-.035-.062-.053a2.838 2.838 0 00-.247-.204c-.038-.028-.079-.052-.118-.078a2.927 2.927 0 00-.363-.203 2.794 2.794 0 00-.235-.096c-.048-.017-.096-.035-.145-.05a2.877 2.877 0 00-.268-.064c-.044-.009-.086-.02-.13-.026a2.822 2.822 0 00-.413-.032c-.136 0-.27.012-.404.031-.036.005-.071.013-.106.02-.101.018-.2.042-.299.071l-.099.03c-.116.04-.23.085-.341.14l-.026.011-.015.007a2.468 2.468 0 01-.337-1.29c0-.293.03-.588.09-.877.129-.616.118-1.279-.032-2.025a2.937 2.937 0 01-.058-.582c0-1.065.323-3.543 3.31-3.543.102 0 .199.014.295.042l-.05.1a9.29 9.29 0 01-.206.392c-.031.055-.061.11-.094.166-.106.184-.218.37-.342.559-.116.178-.245.364-.378.554-.495.712-1.034 1.494-1.24 2.324-.04.162-.07.325-.081.491a2.47 2.47 0 00.008.438c.093.835.572 1.498 1.252 1.729.066.023.144.043.23.059.007 0 .013.002.02.003.084.014.176.023.277.024h.025c.061 0 .125-.004.192-.011l.015-.002c.061-.007.125-.018.191-.032l.05-.012c.069-.016.14-.036.213-.061l.012-.004a2.83 2.83 0 00.24-.098l.056-.028c.068-.034.138-.071.208-.112.019-.011.037-.021.055-.033.087-.053.175-.112.265-.179l.052-.04a4.61 4.61 0 00.23-.187l.077-.068c.095-.086.192-.178.291-.28a18.034 18.034 0 00.887-1l.072-.087c.128-.16.25-.319.363-.476l.042-.06c.1-.14.194-.279.283-.416l.056-.088a8.008 8.008 0 00.536-.997 5.34 5.34 0 00.16-.394l.021-.054a5.09 5.09 0 00.136-.444l.003-.008c.46-.218.807-.536 1.048-.755l.137-.124c1.639-1.405 3.303-2.022 4.864-1.822a6.147 6.147 0 01-2.088.85 3.913 3.913 0 00-2.225 1.355c-1.296 1.587-1.115 3.997.403 5.37a3.878 3.878 0 002.913 1.006 3.879 3.879 0 002.735-1.414c.51-.62.815-1.369.88-2.166.08-.98.4-1.94.934-2.824 1.136 1.28 2.904 3.423 2.608 4.829zm.716-10.083a.565.565 0 01-.45.259c-.476.023-.89.22-1.165.552l-1.12 1.36a1.904 1.904 0 00-.705-.558l1.131-1.373c.275-.333.389-.777.32-1.25a.566.566 0 01.169-.49.578.578 0 01.662-.094c.115.062.2.152.25.27a.8.8 0 00.563.462.543.543 0 01.31.194.577.577 0 01.035.668z" fill="#CCC"/></g></symbol><symbol id="icon__twitter" viewBox="0 0 18 18"><g fill="none"><path d="M18 3.419a7.691 7.691 0 01-2.126.583 3.67 3.67 0 001.623-2.04 7.374 7.374 0 01-2.34.893 3.69 3.69 0 00-6.384 2.523c0 .293.026.574.086.842a10.446 10.446 0 01-7.606-3.86 3.695 3.695 0 001.135 4.932A3.646 3.646 0 01.72 6.838v.04a3.707 3.707 0 002.957 3.626 3.694 3.694 0 01-.968.122c-.236 0-.475-.014-.698-.063a3.725 3.725 0 003.448 2.57 7.418 7.418 0 01-4.576 1.574c-.303 0-.593-.013-.883-.05a10.39 10.39 0 005.661 1.655c6.79 0 10.503-5.625 10.503-10.5a9.5 9.5 0 00-.014-.477A7.366 7.366 0 0018 3.419z" fill="currentColor"/></g></symbol><symbol id="icon__user" viewBox="0 0 20 21"><g fill="none"><path d="M10 9.667A3.333 3.333 0 1010 3a3.333 3.333 0 000 6.667zm2.5 2.5h-5c-2.301 0-4.362 2.125-2.848 3.857C5.682 17.202 7.385 18 10 18c2.615 0 4.318-.797 5.348-1.976 1.515-1.733-.547-3.857-2.848-3.857z" stroke="#B3B3B3"/></g></symbol><symbol id="icon__visa-logo" viewBox="0 0 32 12"><g fill="none"><path fill-rule="evenodd" clip-rule="evenodd" d="M8.228 10.989H5.502L3.457 2.961c-.097-.37-.303-.696-.606-.85a8.7 8.7 0 00-2.498-.85V.952h4.391c.606 0 1.06.465 1.137 1.004l1.06 5.79L9.666.953h2.65L8.228 10.99zm5.603 0h-2.575L13.376.952h2.575L13.83 10.99zm5.45-7.256c.076-.54.53-.85 1.06-.85a4.678 4.678 0 012.5.463l.454-2.161a6.354 6.354 0 00-2.347-.464c-2.499 0-4.317 1.39-4.317 3.32 0 1.467 1.288 2.238 2.197 2.702.983.463 1.362.772 1.286 1.235 0 .695-.757 1.004-1.514 1.004-.909 0-1.818-.232-2.65-.618l-.454 2.162c.909.385 1.892.54 2.801.54 2.802.077 4.544-1.312 4.544-3.397 0-2.625-3.56-2.779-3.56-3.936zm12.57 7.256L29.807.952H27.61c-.455 0-.91.31-1.06.772l-3.786 9.265h2.65l.529-1.466H29.2l.302 1.466h2.348zm-3.86-7.334l.756 3.783h-2.12l1.363-3.783z" fill="#fff"/></g></symbol><symbol id="icon__visa" viewBox="0 0 45 32"><g fill="none"><path fill-rule="evenodd" clip-rule="evenodd" d="M14.875 21.268H12.15l-2.044-8.028c-.097-.37-.303-.696-.606-.85a8.699 8.699 0 00-2.5-.85v-.309h4.392c.606 0 1.06.465 1.136 1.004l1.06 5.791 2.726-6.795h2.65l-4.089 10.037zm5.604 0h-2.575l2.12-10.037H22.6l-2.12 10.037zm5.45-7.256c.077-.54.531-.85 1.062-.85a4.677 4.677 0 012.498.463l.455-2.16A6.354 6.354 0 0027.597 11c-2.5 0-4.318 1.39-4.318 3.32 0 1.468 1.288 2.238 2.198 2.703.983.463 1.362.772 1.286 1.235 0 .694-.757 1.003-1.514 1.003-.909 0-1.818-.231-2.65-.618l-.455 2.162c.91.386 1.893.54 2.802.54 2.802.077 4.543-1.312 4.543-3.396 0-2.626-3.56-2.78-3.56-3.937zM38.5 21.268l-2.044-10.037H34.26c-.454 0-.909.31-1.06.772l-3.786 9.265h2.65l.53-1.466h3.256l.303 1.466H38.5zm-3.861-7.333l.756 3.782h-2.12l1.364-3.782z" fill="#fff"/></g></symbol><symbol id="icon__wish-list" viewBox="0 0 25 24"><g fill="none"><path d="M12.167 21.054c-20-11.054-6-23.054 0-15.466 6-7.588 20 4.412 0 15.466z" stroke="#CCC"/></g></symbol><symbol id="logo__default" viewBox="0 0 183 39"><g fill="none"><path d="M31.275 7.843c-3.873 0-9.344.324-12.14 3.118-1.21 1.21-1.815 3.184-1.658 5.418a.725.725 0 001.279.42c1.555-1.83 3.488-3.296 5.749-4.358a.823.823 0 01.625-.027.687.687 0 01.398.348c.154.325.104.754-.407.995-.03.015-.055.034-.084.047-.01.004-.022.003-.031.007-5.571 2.619-8.31 7.187-9.555 11.885-.906-5.882-2.822-9.345-4.63-11.47-1.31-1.698-2.598-2.598-3.342-3.106-.138-.095-.555-.38-.728-.552a.727.727 0 010-1.028c.284-.282.746-.282 1.061.032.077.068.2.156.358.26l.129.087c1.052.721 3.011 2.06 4.749 4.941a.726.726 0 001.335-.235c.38-1.937.21-4.812-1.518-6.54C10.069 5.292 4.598 4.968.727 4.968A.727.727 0 000 5.695c0 3.873.324 9.344 3.118 12.14 1.166 1.165 2.963 1.688 4.75 1.688 1.457 0 2.885-.364 3.98-.997 1.492 3.093 2.684 7.712 2.684 14.779a.727.727 0 001.453 0c0-3.942.675-8.674 3.188-12.568 1.007.984 2.74 1.607 4.662 1.665a9.4 9.4 0 00.284.004c1.952 0 3.677-.611 4.762-1.698C31.677 17.912 32 12.44 32 8.568a.722.722 0 00-.725-.725z" fill="#00B307"/><path d="M46.048 11.204v6.528h7.68v2.976h-7.68v6.816h8.64V30.5H42.4V8.228h12.288v2.976h-8.64zm10.957 10.464c0-1.813.363-3.403 1.088-4.768.747-1.387 1.77-2.453 3.072-3.2 1.302-.747 2.795-1.12 4.48-1.12 2.134 0 3.894.512 5.28 1.536 1.408 1.003 2.358 2.443 2.848 4.32h-3.936c-.32-.875-.832-1.557-1.536-2.048-.704-.49-1.59-.736-2.656-.736-1.493 0-2.688.533-3.584 1.6-.874 1.045-1.312 2.517-1.312 4.416 0 1.899.438 3.381 1.312 4.448.896 1.067 2.09 1.6 3.584 1.6 2.112 0 3.51-.928 4.192-2.784h3.936c-.512 1.792-1.472 3.221-2.88 4.288-1.408 1.045-3.157 1.568-5.248 1.568-1.685 0-3.178-.373-4.48-1.12-1.301-.768-2.325-1.835-3.072-3.2-.725-1.387-1.088-2.987-1.088-4.8zm27.092 9.12c-1.664 0-3.168-.373-4.512-1.12a8.303 8.303 0 01-3.168-3.2c-.768-1.387-1.152-2.987-1.152-4.8 0-1.792.394-3.381 1.184-4.768.79-1.387 1.866-2.453 3.232-3.2 1.365-.747 2.89-1.12 4.576-1.12 1.685 0 3.21.373 4.576 1.12 1.365.747 2.442 1.813 3.232 3.2.79 1.387 1.184 2.976 1.184 4.768 0 1.792-.406 3.381-1.216 4.768a8.503 8.503 0 01-3.328 3.232c-1.387.747-2.923 1.12-4.608 1.12zm0-3.168c.938 0 1.813-.224 2.624-.672.832-.448 1.504-1.12 2.016-2.016.512-.896.768-1.984.768-3.264 0-1.28-.246-2.357-.736-3.232-.49-.896-1.142-1.568-1.952-2.016a5.339 5.339 0 00-2.624-.672c-.939 0-1.814.224-2.624.672-.79.448-1.419 1.12-1.888 2.016-.47.875-.704 1.952-.704 3.232 0 1.899.48 3.37 1.44 4.416.981 1.024 2.208 1.536 3.68 1.536zm15.446-12.128c.619-.853 1.461-1.547 2.528-2.08 1.088-.555 2.293-.832 3.616-.832 1.557 0 2.965.373 4.224 1.12 1.259.747 2.251 1.813 2.976 3.2.725 1.365 1.088 2.933 1.088 4.704 0 1.77-.363 3.36-1.088 4.768-.725 1.387-1.728 2.475-3.008 3.264-1.259.768-2.656 1.152-4.192 1.152-1.365 0-2.581-.267-3.648-.8-1.045-.533-1.877-1.216-2.496-2.048v2.56h-3.648V6.82h3.648v8.672zm10.72 6.112c0-1.216-.256-2.261-.768-3.136-.491-.896-1.152-1.568-1.984-2.016a5.15 5.15 0 00-2.624-.704c-.917 0-1.792.235-2.624.704-.811.47-1.472 1.152-1.984 2.048-.49.896-.736 1.952-.736 3.168 0 1.216.245 2.283.736 3.2.512.896 1.173 1.579 1.984 2.048.832.47 1.707.704 2.624.704a5.15 5.15 0 002.624-.704c.832-.49 1.493-1.195 1.984-2.112.512-.917.768-1.984.768-3.2zm5.144 0c0-1.77.362-3.339 1.088-4.704.746-1.365 1.749-2.421 3.008-3.168 1.28-.768 2.688-1.152 4.224-1.152 1.386 0 2.592.277 3.616.832 1.045.533 1.877 1.205 2.496 2.016v-2.56h3.68V30.5h-3.68v-2.624c-.619.832-1.462 1.525-2.528 2.08-1.067.555-2.283.832-3.648.832-1.515 0-2.902-.384-4.16-1.152-1.259-.79-2.262-1.877-3.008-3.264-.726-1.408-1.088-2.997-1.088-4.768zm14.432.064c0-1.216-.256-2.272-.768-3.168-.491-.896-1.142-1.579-1.952-2.048a5.152 5.152 0 00-2.624-.704 5.15 5.15 0 00-2.624.704c-.811.448-1.472 1.12-1.984 2.016-.491.875-.736 1.92-.736 3.136 0 1.216.245 2.283.736 3.2.512.917 1.173 1.621 1.984 2.112.832.47 1.706.704 2.624.704.938 0 1.813-.235 2.624-.704.81-.47 1.461-1.152 1.952-2.048.512-.917.768-1.984.768-3.2zm10.743 5.856h8V30.5h-12.224v-2.976l8.032-11.68h-8.032v-2.976h12.224v2.976l-8 11.68zm9.654-5.92c0-1.77.363-3.339 1.088-4.704.747-1.365 1.75-2.421 3.008-3.168 1.28-.768 2.688-1.152 4.224-1.152 1.387 0 2.592.277 3.616.832 1.046.533 1.878 1.205 2.496 2.016v-2.56h3.68V30.5h-3.68v-2.624c-.618.832-1.461 1.525-2.528 2.08-1.066.555-2.282.832-3.648.832-1.514 0-2.901-.384-4.16-1.152-1.258-.79-2.261-1.877-3.008-3.264-.725-1.408-1.088-2.997-1.088-4.768zm14.432.064c0-1.216-.256-2.272-.768-3.168-.49-.896-1.141-1.579-1.952-2.048a5.146 5.146 0 00-2.624-.704c-.938 0-1.813.235-2.624.704-.81.448-1.472 1.12-1.984 2.016-.49.875-.736 1.92-.736 3.136 0 1.216.246 2.283.736 3.2.512.917 1.174 1.621 1.984 2.112.832.47 1.707.704 2.624.704a5.15 5.15 0 002.624-.704c.811-.47 1.462-1.152 1.952-2.048.512-.917.768-1.984.768-3.2zm11.16-6.24a5.638 5.638 0 012.112-2.08c.896-.512 1.952-.768 3.168-.768v3.776h-.928c-1.429 0-2.517.363-3.264 1.088-.725.725-1.088 1.984-1.088 3.776v9.28h-3.648V12.868h3.648v2.56z" fill="#002603"/></g></symbol><symbol id="logo__mini" viewBox="0 0 32 31"><g fill="none"><path d="M31.275 3.843c-3.873 0-9.344.324-12.14 3.118-1.21 1.21-1.815 3.184-1.658 5.418a.725.725 0 001.279.42c1.555-1.83 3.488-3.296 5.749-4.358a.823.823 0 01.625-.027.687.687 0 01.398.348c.154.325.104.754-.407.995-.03.015-.055.034-.084.047-.01.004-.022.003-.031.007-5.571 2.619-8.31 7.187-9.555 11.885-.906-5.882-2.822-9.345-4.63-11.47C9.51 8.527 8.222 7.627 7.478 7.12c-.138-.095-.555-.38-.728-.552a.727.727 0 010-1.028c.284-.282.746-.282 1.061.032.077.068.2.156.358.26l.129.087c1.052.721 3.011 2.06 4.749 4.941a.726.726 0 001.335-.235c.38-1.937.21-4.812-1.518-6.54C10.069 1.293 4.598.968.727.968A.727.727 0 000 1.695c0 3.873.324 9.344 3.118 12.14 1.166 1.165 2.963 1.688 4.75 1.688 1.457 0 2.885-.364 3.98-.997 1.492 3.093 2.684 7.712 2.684 14.779a.727.727 0 001.453 0c0-3.942.675-8.674 3.188-12.568 1.007.984 2.74 1.607 4.662 1.665a9.4 9.4 0 00.284.004c1.952 0 3.677-.611 4.762-1.698C31.677 13.912 32 8.44 32 4.568a.722.722 0 00-.725-.725z" fill="#00B307"/></g></symbol><view id="icon__list-checkbox" viewBox="0 0 20 20"/><use href="#icon__list-checkbox" width="20" height="20" x="0" y="0"/></svg>