<svg width="45" height="32" viewBox="0 0 45 32" fill="none" xmlns="http://www.w3.org/2000/svg">
<path fill-rule="evenodd" clip-rule="evenodd" d="M14.8753 21.2681H12.1492L10.1049 13.2398C10.0079 12.8705 9.80189 12.544 9.49884 12.3901C8.74254 12.0034 7.90915 11.6957 7 11.5405V11.2314H11.3916C11.9977 11.2314 12.4523 11.6957 12.528 12.2349L13.5887 18.026L16.3135 11.2314H18.9639L14.8753 21.2681ZM20.4789 21.2681H17.9043L20.0243 11.2314H22.5989L20.4789 21.2681ZM25.9298 14.012C26.0056 13.4714 26.4601 13.1623 26.9905 13.1623C27.8239 13.0847 28.7317 13.2399 29.4893 13.6253L29.9439 11.4643C29.1863 11.1552 28.3529 11 27.5966 11C25.0977 11 23.2794 12.3902 23.2794 14.3197C23.2794 15.7876 24.5674 16.5583 25.4766 17.0226C26.4601 17.4856 26.839 17.7947 26.7632 18.2576C26.7632 18.9521 26.0056 19.2612 25.2493 19.2612C24.3401 19.2612 23.431 19.0297 22.5989 18.643L22.1443 20.8053C23.0535 21.1907 24.0371 21.3459 24.9462 21.3459C27.7481 21.4222 29.4893 20.0332 29.4893 17.9485C29.4893 15.3233 25.9298 15.1694 25.9298 14.012ZM38.5003 21.2681L36.456 11.2314H34.2602C33.8056 11.2314 33.351 11.5405 33.1995 12.0034L29.414 21.2681H32.0644L32.5934 19.8016H35.8499L36.1529 21.2681H38.5003ZM34.6385 13.9346L35.3948 17.7173H33.2748L34.6385 13.9346Z" fill="white"/>
</svg>
