<svg width="40" height="40" viewBox="0 0 40 40" fill="none" xmlns="http://www.w3.org/2000/svg">
<path fill-rule="evenodd" clip-rule="evenodd" d="M29.7778 4C25.5446 4 22.1063 7.2701 22.1063 11.3029C22.1063 15.3332 25.5446 18.6058 29.7778 18.6058C37.0505 18.6058 32.8361 31.2874 23.6638 32.6084C23.231 32.6691 22.836 32.8711 22.5504 33.1779C22.2647 33.4847 22.1072 33.8759 22.1063 34.2808C22.1063 35.3177 23.1087 36.1377 24.2189 35.9807C40.8902 33.6427 46.8183 4.00249 29.7778 4.00249V4ZM7.67416 4C3.43559 4 0 7.26761 0 11.3029C0 15.3307 3.43559 18.6008 7.67416 18.6008C14.9441 18.6008 10.7298 31.2874 1.55747 32.6084C1.12515 32.669 0.730538 32.8707 0.444914 33.177C0.159289 33.4832 0.00148353 33.8739 0 34.2783C0 35.3152 1.00238 36.1352 2.10986 35.9782C18.7866 33.6402 24.7147 4 7.67416 4Z" fill="#00B307"/>
</svg>
