<svg width="32" height="12" viewBox="0 0 32 12" fill="none" xmlns="http://www.w3.org/2000/svg">
<path fill-rule="evenodd" clip-rule="evenodd" d="M8.22787 10.989H5.50174L3.45748 2.96065C3.36045 2.59135 3.15443 2.26486 2.85138 2.11098C2.09508 1.72428 1.26169 1.41653 0.352539 1.26132V0.952224H4.74412C5.35022 0.952224 5.80479 1.41653 5.88056 1.95577L6.94123 7.74689L9.66603 0.952224H12.3164L8.22787 10.989ZM13.8307 10.989H11.2561L13.3762 0.952224H15.9508L13.8307 10.989ZM19.2811 3.73268C19.3568 3.1921 19.8114 2.88301 20.3417 2.88301C21.1751 2.8054 22.0829 2.96062 22.8406 3.34598L23.2951 1.18501C22.5375 0.875918 21.7041 0.720703 20.9478 0.720703C18.449 0.720703 16.6307 2.11095 16.6307 4.04043C16.6307 5.50828 17.9187 6.27901 18.8278 6.74331C19.8114 7.20628 20.1902 7.51537 20.1144 7.97834C20.1144 8.6728 19.3568 8.98189 18.6005 8.98189C17.6914 8.98189 16.7822 8.7504 15.9502 8.3637L15.4956 10.526C16.4047 10.9114 17.3883 11.0666 18.2975 11.0666C21.0994 11.1429 22.8406 9.75395 22.8406 7.66925C22.8406 5.04398 19.2811 4.8901 19.2811 3.73268ZM31.8509 10.989L29.8066 0.952224H27.6108C27.1562 0.952224 26.7016 1.26132 26.5501 1.72428L22.7646 10.989H25.415L25.944 9.5225H29.2005L29.5035 10.989H31.8509ZM27.9904 3.65502L28.7467 7.43772H26.6267L27.9904 3.65502Z" fill="white"/>
</svg>
