<svg viewBox="0 0 18 18" fill="none" xmlns="http://www.w3.org/2000/svg" xmlns:xlink="http://www.w3.org/1999/xlink">

		<path id="Vector" d="M9.24414 0C4.31152 0 1.6875 3.16139 1.6875 6.60855C1.6875 8.20724 2.58105 10.2008 4.01074 10.8331C4.22754 10.931 4.3457 10.8894 4.39453 10.688C4.4375 10.535 4.625 9.79807 4.71582 9.45042C4.74414 9.33904 4.72949 9.24229 4.63965 9.13766C4.16504 8.58863 3.78809 7.58847 3.78809 6.65017C3.78809 4.24594 5.69922 1.91146 8.95215 1.91146C11.7646 1.91146 13.7324 3.73854 13.7324 6.35204C13.7324 9.30529 12.1699 11.3484 10.1387 11.3484C9.01465 11.3484 8.17773 10.4663 8.44336 9.37505C8.76367 8.07561 9.39258 6.6783 9.39258 5.74113C9.39258 4.90072 8.91797 4.20544 7.94824 4.20544C6.80469 4.20544 5.87598 5.33836 5.87598 6.85943C5.87598 7.82585 6.21777 8.47838 6.21777 8.47838C6.21777 8.47838 5.08594 13.0506 4.87598 13.9045C4.52051 15.3502 4.92383 17.6914 4.95898 17.8928C4.98047 18.0042 5.10547 18.0391 5.1748 17.9479C5.28613 17.8017 6.6543 15.8497 7.03809 14.4389C7.17773 13.9248 7.75 11.84 7.75 11.84C8.12695 12.5207 9.21484 13.0911 10.374 13.0911C13.8213 13.0911 16.3125 10.0613 16.3125 6.30141C16.2998 2.69675 13.2148 0 9.24414 0Z" fill="currentColor" fill-opacity="1.000000" fill-rule="nonzero"/>
</svg>
