<svg viewBox="0 0 18 18" fill="none" xmlns="http://www.w3.org/2000/svg" >
		<path id="Vector" d="M18 3.41887C17.3311 3.7125 16.6172 3.90713 15.874 4.00163C16.6387 3.54488 17.2227 2.82713 17.4971 1.962C16.7842 2.38725 15.9961 2.68763 15.1572 2.85525C14.4795 2.13412 13.5146 1.6875 12.4619 1.6875C10.4189 1.6875 8.77344 3.34575 8.77344 5.37863C8.77344 5.67113 8.79883 5.95238 8.85938 6.22013C5.79102 6.0705 3.07715 4.60013 1.25293 2.36025C0.93457 2.91262 0.748047 3.54488 0.748047 4.2255C0.748047 5.5035 1.40625 6.63638 2.3877 7.29225C1.79395 7.281 1.21289 7.10888 0.719727 6.83775C0.719727 6.849 0.719727 6.86363 0.719727 6.87825C0.719727 8.6715 1.99902 10.161 3.67676 10.5041C3.37598 10.5863 3.04883 10.6256 2.70898 10.6256C2.47266 10.6256 2.23438 10.6121 2.01074 10.5626C2.48828 12.024 3.8457 13.0984 5.45898 13.1333C4.20312 14.1154 2.6084 14.7071 0.882812 14.7071C0.580078 14.7071 0.290039 14.6936 0 14.6565C1.63477 15.7106 3.57227 16.3125 5.66113 16.3125C12.4512 16.3125 16.1641 10.6875 16.1641 5.81175C16.1641 5.64863 16.1582 5.49113 16.1504 5.33475C16.8828 4.815 17.498 4.16588 18 3.41887Z" fill="currentColor" fillOpacity="1.000000" fill-rule="nonzero"/>
</svg>
