<svg width="38" height="40" viewBox="0 0 38 40" fill="none" xmlns="http://www.w3.org/2000/svg">
<path d="M37.4163 8.82585L19.2547 0.0581888C19.0937 -0.0194675 18.9062 -0.0194675 18.7453 0.0581888L0.583629 8.82585C0.381129 8.92358 0.252457 9.12866 0.252457 9.3535V30.6464C0.252457 30.8712 0.381129 31.0763 0.583629 31.174L18.7452 39.9417C18.8257 39.9805 18.9128 40 19 40C19.0871 40 19.1742 39.9805 19.2547 39.9417L37.4163 31.174C37.6188 31.0763 37.7475 30.8712 37.7475 30.6464V9.35358C37.7475 9.12858 37.6187 8.92366 37.4163 8.82585ZM19 1.23655L35.8138 9.3535L30.9398 11.7065C30.9089 11.683 30.8764 11.6612 30.8406 11.644L14.141 3.58225L19 1.23655ZM12.8177 4.24475L29.6071 12.3499L26.1684 14.01L9.38597 5.90811L12.8177 4.24475ZM29.9999 13.4615V19.5979L26.7879 21.1485V15.0121L29.9999 13.4615ZM36.5756 30.2787L19.5859 38.4805V18.4889L23.6385 16.5325C23.9299 16.3918 24.0521 16.0415 23.9114 15.7501C23.7707 15.4587 23.4204 15.3364 23.1289 15.4772L19 17.4705L17.3753 16.6862C17.0838 16.5453 16.7335 16.6676 16.5928 16.959C16.4521 17.2505 16.5743 17.6008 16.8657 17.7415L18.414 18.4889V38.4805L1.42433 30.2786V10.287L14.3618 16.5327C14.4439 16.5724 14.5307 16.5912 14.6161 16.5912C14.8339 16.5912 15.0432 16.4691 15.1442 16.2598C15.2849 15.9684 15.1627 15.6181 14.8713 15.4774L2.18613 9.3535L8.00683 6.5435L25.6079 15.0406C25.6105 15.0442 25.6134 15.0474 25.616 15.0509V22.0821C25.616 22.2837 25.7197 22.4712 25.8905 22.5784C25.9853 22.638 26.0935 22.668 26.2021 22.668C26.2889 22.668 26.376 22.6487 26.4567 22.6098L30.8406 20.4934C31.0431 20.3957 31.1718 20.1907 31.1718 19.9658V12.8958L36.5756 10.2871V30.2787Z" fill="#1A1A1A"/>
</svg>
