<svg width="65" height="32" viewBox="0 0 65 32" fill="none" xmlns="http://www.w3.org/2000/svg">
<path fill-rule="evenodd" clip-rule="evenodd" d="M12.5547 7.2085V8.5835H13.0129C13.7722 8.5835 14.3879 9.1991 14.3879 9.9585V13.1668C14.3879 13.9262 13.7722 14.5418 13.0129 14.5418H6.59619C5.8368 14.5418 5.22119 13.9262 5.22119 13.1668V9.9585C5.22119 9.1991 5.8368 8.5835 6.59619 8.5835H7.05469V7.2085C7.05469 6.47915 7.34442 5.77968 7.86014 5.26395C8.37587 4.74823 9.07534 4.4585 9.80469 4.4585C10.534 4.4585 11.2335 4.74823 11.7492 5.26395C12.265 5.77968 12.5547 6.47915 12.5547 7.2085ZM9.80469 5.37516C9.31846 5.37516 8.85214 5.56832 8.50833 5.91213C8.16451 6.25595 7.97135 6.72227 7.97135 7.2085V8.5835H11.638V7.2085C11.638 6.72227 11.4449 6.25595 11.101 5.91213C10.7572 5.56832 10.2909 5.37516 9.80469 5.37516ZM13.0129 9.50016C13.266 9.50016 13.4712 9.70537 13.4712 9.9585V13.1668C13.4712 13.42 13.266 13.6252 13.0129 13.6252H6.59619C6.34306 13.6252 6.13786 13.42 6.13786 13.1668V9.9585C6.13786 9.70537 6.34306 9.50016 6.59619 9.50016H13.0129Z" fill="white"/>
<path fill-rule="evenodd" clip-rule="evenodd" d="M54.7175 10.36C54.7395 10.1474 54.7505 9.94571 54.7505 9.75505C54.7505 9.20505 54.6295 8.71371 54.3875 8.28105C54.1528 7.84105 53.8155 7.49638 53.3755 7.24705C52.9355 6.99771 52.4295 6.87305 51.8575 6.87305C51.2708 6.87305 50.7501 7.00138 50.2955 7.25805C49.8481 7.50738 49.4998 7.86671 49.2505 8.33605C49.0011 8.80538 48.8765 9.35171 48.8765 9.97505C48.8765 10.5984 49.0048 11.1484 49.2615 11.625C49.5181 12.0944 49.8701 12.4574 50.3175 12.714C50.7721 12.9707 51.2855 13.099 51.8575 13.099C52.5761 13.099 53.1775 12.9194 53.6615 12.56C54.1455 12.1934 54.4681 11.7204 54.6295 11.141H53.5515C53.4341 11.4784 53.2288 11.7497 52.9355 11.955C52.6495 12.153 52.2901 12.252 51.8575 12.252C51.3295 12.252 50.8785 12.087 50.5045 11.757C50.1378 11.4197 49.9361 10.954 49.8995 10.36H54.7175ZM53.4635 8.56705C53.6321 8.83838 53.7165 9.16471 53.7165 9.54605H49.9105C49.9618 8.97405 50.1635 8.52671 50.5155 8.20405C50.8748 7.88138 51.3075 7.72005 51.8135 7.72005C52.1655 7.72005 52.4845 7.79338 52.7705 7.94005C53.0638 8.07938 53.2948 8.28838 53.4635 8.56705Z" fill="white"/>
<path d="M46.148 7.95082C46.324 7.60615 46.5733 7.33848 46.896 7.14782C47.226 6.95715 47.6256 6.86182 48.095 6.86182V7.89582H47.831C46.709 7.89582 46.148 8.50448 46.148 9.72182V12.9998H45.147V6.97182H46.148V7.95082Z" fill="white"/>
<path d="M43.4567 13.0002V6.97217H42.4557V10.2832C42.4557 10.9138 42.3017 11.3942 41.9937 11.7242C41.6857 12.0542 41.264 12.2192 40.7287 12.2192C40.208 12.2192 39.7973 12.0615 39.4967 11.7462C39.196 11.4235 39.0457 10.9652 39.0457 10.3712V6.97217H38.0557V10.5032C38.0557 11.0605 38.162 11.5335 38.3747 11.9222C38.5947 12.3108 38.8917 12.6042 39.2657 12.8022C39.6397 12.9928 40.0613 13.0882 40.5307 13.0882C40.9413 13.0882 41.3153 13.0038 41.6527 12.8352C41.9973 12.6592 42.265 12.4172 42.4557 12.1092V13.0002H43.4567Z" fill="white"/>
<path d="M31.0552 9.97505C31.0552 9.35171 31.1798 8.80905 31.4292 8.34705C31.6785 7.87771 32.0232 7.51471 32.4632 7.25805C32.9105 7.00138 33.4202 6.87305 33.9922 6.87305C34.7328 6.87305 35.3415 7.05271 35.8182 7.41205C36.3022 7.77138 36.6212 8.27005 36.7752 8.90805H35.6972C35.5945 8.54138 35.3928 8.25171 35.0922 8.03905C34.7988 7.82638 34.4322 7.72005 33.9922 7.72005C33.4202 7.72005 32.9582 7.91805 32.6062 8.31405C32.2542 8.70271 32.0782 9.25638 32.0782 9.97505C32.0782 10.701 32.2542 11.262 32.6062 11.658C32.9582 12.054 33.4202 12.252 33.9922 12.252C34.4322 12.252 34.7988 12.1494 35.0922 11.944C35.3855 11.7387 35.5872 11.4454 35.6972 11.064H36.7752C36.6138 11.68 36.2912 12.175 35.8072 12.549C35.3232 12.9157 34.7182 13.099 33.9922 13.099C33.4202 13.099 32.9105 12.9707 32.4632 12.714C32.0232 12.4574 31.6785 12.0944 31.4292 11.625C31.1798 11.1557 31.0552 10.6057 31.0552 9.97505Z" fill="white"/>
<path fill-rule="evenodd" clip-rule="evenodd" d="M30.0749 10.36C30.0969 10.1474 30.1079 9.94571 30.1079 9.75505C30.1079 9.20505 29.9869 8.71371 29.7449 8.28105C29.5102 7.84105 29.1729 7.49638 28.7329 7.24705C28.2929 6.99771 27.7869 6.87305 27.2149 6.87305C26.6282 6.87305 26.1076 7.00138 25.6529 7.25805C25.2056 7.50738 24.8572 7.86671 24.6079 8.33605C24.3586 8.80538 24.2339 9.35171 24.2339 9.97505C24.2339 10.5984 24.3622 11.1484 24.6189 11.625C24.8756 12.0944 25.2276 12.4574 25.6749 12.714C26.1296 12.9707 26.6429 13.099 27.2149 13.099C27.9336 13.099 28.5349 12.9194 29.0189 12.56C29.5029 12.1934 29.8256 11.7204 29.9869 11.141H28.9089C28.7916 11.4784 28.5862 11.7497 28.2929 11.955C28.0069 12.153 27.6476 12.252 27.2149 12.252C26.6869 12.252 26.2359 12.087 25.8619 11.757C25.4952 11.4197 25.2936 10.954 25.2569 10.36H30.0749ZM28.8209 8.56705C28.9896 8.83838 29.0739 9.16471 29.0739 9.54605H25.2679C25.3192 8.97405 25.5209 8.52671 25.8729 8.20405C26.2322 7.88138 26.6649 7.72005 27.1709 7.72005C27.5229 7.72005 27.8419 7.79338 28.1279 7.94005C28.4212 8.07938 28.6522 8.28838 28.8209 8.56705Z" fill="white"/>
<path d="M20.5826 13.0769C20.0766 13.0769 19.622 12.9889 19.2186 12.8129C18.8226 12.6296 18.511 12.3802 18.2836 12.0649C18.0563 11.7422 17.939 11.3719 17.9316 10.9539H18.9986C19.0353 11.3132 19.182 11.6176 19.4386 11.8669C19.7026 12.1089 20.084 12.2299 20.5826 12.2299C21.0593 12.2299 21.4333 12.1126 21.7046 11.8779C21.9833 11.6359 22.1226 11.3279 22.1226 10.9539C22.1226 10.6606 22.042 10.4222 21.8806 10.2389C21.7193 10.0556 21.5176 9.91622 21.2756 9.82089C21.0336 9.72555 20.7073 9.62289 20.2966 9.51289C19.7906 9.38089 19.3836 9.24889 19.0756 9.11689C18.775 8.98489 18.5146 8.77955 18.2946 8.50089C18.082 8.21489 17.9756 7.83355 17.9756 7.35689C17.9756 6.93889 18.082 6.56855 18.2946 6.24589C18.5073 5.92322 18.8043 5.67389 19.1856 5.49789C19.5743 5.32189 20.018 5.23389 20.5166 5.23389C21.2353 5.23389 21.822 5.41355 22.2766 5.77289C22.7386 6.13222 22.999 6.60889 23.0576 7.20289H21.9576C21.921 6.90955 21.767 6.65289 21.4956 6.43289C21.2243 6.20555 20.865 6.09189 20.4176 6.09189C19.9996 6.09189 19.6586 6.20189 19.3946 6.42189C19.1306 6.63455 18.9986 6.93522 18.9986 7.32389C18.9986 7.60255 19.0756 7.82989 19.2296 8.00589C19.391 8.18189 19.5853 8.31755 19.8126 8.41289C20.0473 8.50089 20.3736 8.60355 20.7916 8.72089C21.2976 8.86022 21.7046 8.99955 22.0126 9.13889C22.3206 9.27089 22.5846 9.47989 22.8046 9.76589C23.0246 10.0446 23.1346 10.4259 23.1346 10.9099C23.1346 11.2839 23.0356 11.6359 22.8376 11.9659C22.6396 12.2959 22.3463 12.5636 21.9576 12.7689C21.569 12.9742 21.1106 13.0769 20.5826 13.0769Z" fill="white"/>
<path d="M57.569 23.948V20.732H59.057V19.352H57.569V17.708H55.877V19.352H55.085V20.732H55.877V23.936C55.877 25.312 56.585 26 58.001 26H59.057V24.584H58.277C58.021 24.584 57.837 24.536 57.725 24.44C57.621 24.336 57.569 24.172 57.569 23.948Z" fill="white"/>
<path d="M51.3637 19.2559C52.1557 19.2559 52.7957 19.5079 53.2837 20.0119C53.7717 20.5079 54.0157 21.2039 54.0157 22.0999V25.9999H52.3357V22.3279C52.3357 21.7999 52.2037 21.3959 51.9397 21.1159C51.6757 20.8279 51.3157 20.6839 50.8597 20.6839C50.3957 20.6839 50.0277 20.8279 49.7557 21.1159C49.4917 21.3959 49.3597 21.7999 49.3597 22.3279V25.9999H47.6797V19.3519H49.3597V20.1799C49.5837 19.8919 49.8677 19.6679 50.2117 19.5079C50.5637 19.3399 50.9477 19.2559 51.3637 19.2559Z" fill="white"/>
<path fill-rule="evenodd" clip-rule="evenodd" d="M46.4053 23.1801C46.4373 22.9881 46.4533 22.7721 46.4533 22.5321C46.4533 21.8841 46.3133 21.3121 46.0333 20.8161C45.7613 20.3121 45.3733 19.9241 44.8693 19.6521C44.3733 19.3801 43.8093 19.2441 43.1773 19.2441C42.5213 19.2441 41.9413 19.3841 41.4373 19.6641C40.9333 19.9441 40.5413 20.3441 40.2613 20.8641C39.9813 21.3841 39.8413 21.9881 39.8413 22.6761C39.8413 23.3561 39.9813 23.9561 40.2613 24.4761C40.5493 24.9961 40.9453 25.4001 41.4493 25.6881C41.9613 25.9681 42.5373 26.1081 43.1773 26.1081C43.9693 26.1081 44.6373 25.9041 45.1813 25.4961C45.7253 25.0801 46.0933 24.5521 46.2853 23.9121H44.4733C44.2093 24.4481 43.7653 24.7161 43.1413 24.7161C42.7093 24.7161 42.3453 24.5801 42.0493 24.3081C41.7533 24.0361 41.5853 23.6601 41.5453 23.1801H46.4053ZM44.2453 21.0201C44.5493 21.2761 44.7053 21.6201 44.7133 22.0521H41.5573C41.6213 21.6041 41.7933 21.2561 42.0733 21.0081C42.3613 20.7521 42.7133 20.6241 43.1293 20.6241C43.5693 20.6241 43.9413 20.7561 44.2453 21.0201Z" fill="white"/>
<path d="M35.9552 19.2559C36.7712 19.2559 37.4272 19.5079 37.9232 20.0119C38.4272 20.5079 38.6792 21.2039 38.6792 22.0999V25.9999H36.9992V22.3279C36.9992 21.8079 36.8672 21.4119 36.6032 21.1399C36.3392 20.8599 35.9792 20.7199 35.5232 20.7199C35.0672 20.7199 34.7032 20.8599 34.4312 21.1399C34.1672 21.4119 34.0352 21.8079 34.0352 22.3279V25.9999H32.3552V22.3279C32.3552 21.8079 32.2232 21.4119 31.9592 21.1399C31.6952 20.8599 31.3352 20.7199 30.8792 20.7199C30.4152 20.7199 30.0472 20.8599 29.7752 21.1399C29.5112 21.4119 29.3792 21.8079 29.3792 22.3279V25.9999H27.6992V19.3519H29.3792V20.1559C29.5952 19.8759 29.8712 19.6559 30.2072 19.4959C30.5512 19.3359 30.9272 19.2559 31.3352 19.2559C31.8552 19.2559 32.3192 19.3679 32.7272 19.5919C33.1352 19.8079 33.4512 20.1199 33.6752 20.5279C33.8912 20.1439 34.2032 19.8359 34.6112 19.6039C35.0272 19.3719 35.4752 19.2559 35.9552 19.2559Z" fill="white"/>
<path d="M22.6775 29.1441L26.7935 19.3521H25.0055L23.2655 23.9961L21.5495 19.3521H19.6655L22.3295 25.8321L20.8895 29.1441H22.6775Z" fill="white"/>
<path fill-rule="evenodd" clip-rule="evenodd" d="M11.8687 22.6521C11.8687 21.9801 12.0007 21.3841 12.2647 20.8641C12.5367 20.3441 12.9007 19.9441 13.3567 19.6641C13.8207 19.3841 14.3367 19.2441 14.9047 19.2441C15.4007 19.2441 15.8327 19.3441 16.2007 19.5441C16.5767 19.7441 16.8767 19.9961 17.1007 20.3001V19.3521H18.7927V26.0001H17.1007V25.0281C16.8847 25.3401 16.5847 25.6001 16.2007 25.8081C15.8247 26.0081 15.3887 26.1081 14.8927 26.1081C14.3327 26.1081 13.8207 25.9641 13.3567 25.6761C12.9007 25.3881 12.5367 24.9841 12.2647 24.4641C12.0007 23.9361 11.8687 23.3321 11.8687 22.6521ZM17.1007 22.6761C17.1007 22.2681 17.0207 21.9201 16.8607 21.6321C16.7007 21.3361 16.4847 21.1121 16.2127 20.9601C15.9407 20.8001 15.6487 20.7201 15.3367 20.7201C15.0247 20.7201 14.7367 20.7961 14.4727 20.9481C14.2087 21.1001 13.9927 21.3241 13.8247 21.6201C13.6647 21.9081 13.5847 22.2521 13.5847 22.6521C13.5847 23.0521 13.6647 23.4041 13.8247 23.7081C13.9927 24.0041 14.2087 24.2321 14.4727 24.3921C14.7447 24.5521 15.0327 24.6321 15.3367 24.6321C15.6487 24.6321 15.9407 24.5561 16.2127 24.4041C16.4847 24.2441 16.7007 24.0201 16.8607 23.7321C17.0207 23.4361 17.1007 23.0841 17.1007 22.6761Z" fill="white"/>
<path fill-rule="evenodd" clip-rule="evenodd" d="M10.784 21.476C11 21.084 11.108 20.664 11.108 20.216C11.108 19.72 10.992 19.276 10.76 18.884C10.536 18.492 10.196 18.184 9.74 17.96C9.284 17.736 8.732 17.624 8.084 17.624H5V26H6.68V22.784H8.084C8.772 22.784 9.34 22.664 9.788 22.424C10.244 22.184 10.576 21.868 10.784 21.476ZM9.044 21.116C8.82 21.324 8.476 21.428 8.012 21.428H6.68V18.992H8.012C8.924 18.992 9.38 19.4 9.38 20.216C9.38 20.6 9.268 20.9 9.044 21.116Z" fill="white"/>
</svg>
