<svg width="25" height="24" viewBox="0 0 25 24" fill="none" xmlns="http://www.w3.org/2000/svg">
<path d="M4.16797 20V13H11.168L7.95097 16.22C8.50044 16.7819 9.15634 17.2287 9.88038 17.5343C10.6044 17.8399 11.3821 17.9982 12.168 18C13.4072 17.9982 14.6155 17.6127 15.6268 16.8964C16.6382 16.1802 17.4029 15.1684 17.816 14H17.834C17.948 13.675 18.035 13.34 18.093 13H20.105C19.8614 14.9332 18.9207 16.7111 17.4593 17.9999C15.998 19.2888 14.1165 19.9999 12.168 20H12.158C11.1078 20.0031 10.0674 19.7979 9.09707 19.3963C8.12672 18.9946 7.24569 18.4045 6.50497 17.66L4.16797 20ZM6.24197 11H4.22997C4.47344 9.06747 5.41361 7.29015 6.87412 6.00141C8.33464 4.71266 10.2152 4.00104 12.163 4H12.168C13.2183 3.99668 14.2589 4.20179 15.2294 4.60346C16.2 5.00513 17.0812 5.59537 17.822 6.34L20.168 4V11H13.168L16.39 7.78C15.8399 7.21748 15.1832 6.77031 14.4583 6.46467C13.7333 6.15903 12.9547 6.00106 12.168 6C10.9287 6.00183 9.72043 6.38734 8.70911 7.10358C7.69779 7.81981 6.93305 8.83162 6.51997 10H6.50197C6.38697 10.325 6.29997 10.66 6.24297 11H6.24197Z" fill="#CCCCCC"/>
</svg>
