<svg viewBox="0 0 20 20" fill="none" xmlns="http://www.w3.org/2000/svg" >
		<path id="Vector" d="M5.83301 6.66667C4.94922 6.66667 4.10156 7.01785 3.47559 7.64297C2.85059 8.2681 2.5 9.11595 2.5 10C2.5 10.884 2.85059 11.7319 3.47559 12.357C4.10156 12.9821 4.94922 13.3333 5.83301 13.3333L7.5 13.3333C7.7207 13.3333 7.93262 13.4211 8.08887 13.5774C8.24512 13.7337 8.33301 13.9456 8.33301 14.1667C8.33301 14.3877 8.24512 14.5996 8.08887 14.7559C7.93262 14.9122 7.7207 15 7.5 15L5.83301 15C4.50684 15 3.23535 14.4732 2.29785 13.5355C1.35938 12.5979 0.833008 11.3261 0.833008 10C0.833008 8.67392 1.35938 7.40215 2.29785 6.46446C3.23535 5.52678 4.50684 5 5.83301 5L7.5 5C7.7207 5 7.93262 5.0878 8.08887 5.24408C8.24512 5.40036 8.33301 5.61232 8.33301 5.83333C8.33301 6.05435 8.24512 6.26631 8.08887 6.42259C7.93262 6.57887 7.7207 6.66667 7.5 6.66667L5.83301 6.66667ZM11.666 5.83333C11.666 5.61232 11.7539 5.40036 11.9102 5.24408C12.0664 5.0878 12.2783 5 12.5 5L14.166 5C15.4922 5 16.7646 5.52678 17.7021 6.46446C18.6396 7.40215 19.166 8.67392 19.166 10C19.166 11.3261 18.6396 12.5979 17.7021 13.5355C16.7646 14.4732 15.4922 15 14.166 15L12.5 15C12.2783 15 12.0664 14.9122 11.9102 14.7559C11.7539 14.5996 11.666 14.3877 11.666 14.1667C11.666 13.9456 11.7539 13.7337 11.9102 13.5774C12.0664 13.4211 12.2783 13.3333 12.5 13.3333L14.166 13.3333C15.0508 13.3333 15.8984 12.9821 16.5234 12.357C17.1484 11.7319 17.5 10.884 17.5 10C17.5 9.11595 17.1484 8.2681 16.5234 7.64297C15.8984 7.01785 15.0508 6.66667 14.166 6.66667L12.5 6.66667C12.2783 6.66667 12.0664 6.57887 11.9102 6.42259C11.7539 6.26631 11.666 6.05435 11.666 5.83333ZM5.83301 10C5.83301 9.77899 5.9209 9.56703 6.07715 9.41075C6.2334 9.25447 6.44531 9.16667 6.66602 9.16667L13.333 9.16667C13.5537 9.16667 13.7656 9.25447 13.9219 9.41075C14.0781 9.56703 14.166 9.77899 14.166 10C14.166 10.221 14.0781 10.433 13.9219 10.5892C13.7656 10.7455 13.5537 10.8333 13.333 10.8333L6.66602 10.8333C6.44531 10.8333 6.2334 10.7455 6.07715 10.5892C5.9209 10.433 5.83301 10.221 5.83301 10Z" fill="currentColor" fill-opacity="1.000000" fill-rule="nonzero"/>
</svg>
