<svg  viewBox="0 0 20 20" fill="none" xmlns="http://www.w3.org/2000/svg">
<path fill-rule="evenodd" clip-rule="evenodd" d="M11.973 3.41857C11.6875 3.11848 11.2127 3.10668 10.9127 3.39219C10.6126 3.67771 10.6008 4.15244 10.8863 4.45253L15.4519 9.25109H2.89478C2.48056 9.25109 2.14478 9.58687 2.14478 10.0011C2.14478 10.4153 2.48056 10.7511 2.89478 10.7511H15.4487L10.8862 15.5471C10.6007 15.8473 10.6126 16.322 10.9127 16.6075C11.2128 16.893 11.6875 16.8811 11.973 16.581L17.7116 10.5487C17.8578 10.4118 17.9491 10.2171 17.9491 10.0011C17.9491 9.99328 17.949 9.98549 17.9487 9.97774C17.9436 9.7989 17.8748 9.62153 17.7424 9.48233L11.973 3.41857Z" fill="currentColor"/>
</svg>
