<svg width="25" height="24" viewBox="0 0 25 24" fill="none" xmlns="http://www.w3.org/2000/svg">
<path d="M19.168 21H10.168C9.63754 21 9.12883 20.7893 8.75376 20.4142C8.37868 20.0391 8.16797 19.5304 8.16797 19V15H10.168V19H19.168V5H10.168V9H8.16797V5C8.16797 4.46957 8.37868 3.96086 8.75376 3.58579C9.12883 3.21071 9.63754 3 10.168 3H19.168C19.6984 3 20.2071 3.21071 20.5822 3.58579C20.9573 3.96086 21.168 4.46957 21.168 5V19C21.168 19.5304 20.9573 20.0391 20.5822 20.4142C20.2071 20.7893 19.6984 21 19.168 21ZM12.168 16V13H3.16797V11H12.168V8L17.168 12L12.168 16Z" fill="#CCCCCC"/>
</svg>
