<svg  viewBox="0 0 40 40" fill="none" xmlns="http://www.w3.org/2000/svg">
<path d="M32.5682 31.7342L30.7268 10.9816C30.6936 10.5709 30.3492 10.2596 29.9319 10.2596H26.0503C26.0437 6.80853 23.2351 4 19.7841 4C16.3331 4 13.5245 6.80853 13.5179 10.2596H9.63631C9.22563 10.2596 8.88118 10.5709 8.84144 10.9816L7 31.7342C7 31.7607 7 31.7806 7 31.8071C7 34.1188 9.12627 36 11.7361 36H27.8321C30.4419 36 32.5682 34.1188 32.5682 31.8071C32.5682 31.7806 32.5682 31.7607 32.5682 31.7342ZM19.7841 5.58973C22.3608 5.58973 24.4539 7.68288 24.4606 10.2596H15.1076C15.1143 7.68288 17.2074 5.58973 19.7841 5.58973ZM27.8321 34.4036H11.7361C10.0139 34.4036 8.60961 33.2577 8.58973 31.8336L10.3649 11.8493H13.5179V14.638C13.5179 15.0751 13.8756 15.4328 14.3128 15.4328C14.7499 15.4328 15.1076 15.0751 15.1076 14.638V11.8493H24.4606V14.638C24.4606 15.0751 24.8183 15.4328 25.2554 15.4328C25.6926 15.4328 26.0503 15.0751 26.0503 14.638V11.8493H29.2033L30.9785 31.8402C30.9586 33.2577 29.5543 34.4036 27.8321 34.4036Z" fill="currentColor"/>
<path d="M23.0895 20.5465L18.3998 25.2362L16.4855 23.3219C16.1742 23.0106 15.6708 23.0106 15.3595 23.3219C15.0481 23.6332 15.0481 24.1366 15.3595 24.448L17.8368 26.9253C17.9891 27.0777 18.1945 27.1571 18.3998 27.1571C18.6052 27.1571 18.8039 27.0777 18.9629 26.9253L24.2156 21.6725C24.5269 21.3612 24.5269 20.8578 24.2156 20.5465C23.9043 20.2418 23.4009 20.2418 23.0895 20.5465Z" fill="currentColor"/>
</svg>
