<svg width="40" height="40" viewBox="0 0 40 40" fill="none" xmlns="http://www.w3.org/2000/svg">
<path d="M30.9966 18.1681V16.9378C30.9966 13.9933 29.9546 11.2571 28.0655 9.22689C26.1294 7.14286 23.4672 6 20.563 6H19.5479C16.6437 6 13.9815 7.14286 12.0454 9.22689C10.1563 11.2571 9.11429 13.9933 9.11429 16.9378V18.1681C6.82185 18.3227 5 20.2319 5 22.5647V24.4874C5 26.9143 6.97647 28.8908 9.40336 28.8908H11.884C12.3277 28.8908 12.6908 28.5277 12.6908 28.084V18.9613C12.6908 18.5176 12.3277 18.1546 11.884 18.1546H10.7277V16.9378C10.7277 11.6202 14.5193 7.61345 19.5412 7.61345H20.5563C25.5849 7.61345 29.3697 11.6202 29.3697 16.9378V18.1546H28.2134C27.7698 18.1546 27.4067 18.5176 27.4067 18.9613V28.0773C27.4067 28.521 27.7698 28.884 28.2134 28.884H29.3429C29.0134 33.0924 26.116 34.0672 24.7714 34.2891C24.4017 33.1529 23.3328 32.3328 22.0756 32.3328H20.0588C18.4992 32.3328 17.2286 33.6034 17.2286 35.163C17.2286 36.7227 18.4992 38 20.0588 38H22.0824C23.3866 38 24.4824 37.1126 24.8118 35.916C25.4706 35.8219 26.5126 35.5866 27.5479 34.9815C29.0067 34.1277 30.7345 32.3866 30.963 28.8773C33.2689 28.7361 35.0975 26.8202 35.0975 24.4807V22.558C35.1042 20.2319 33.2891 18.316 30.9966 18.1681ZM11.0908 27.2706H9.41681C7.87731 27.2706 6.62689 26.0202 6.62689 24.4807V22.558C6.62689 21.0185 7.87731 19.7681 9.41681 19.7681H11.0908V27.2706ZM22.0824 36.3866H20.0588C19.3866 36.3866 18.842 35.842 18.842 35.1697C18.842 34.4975 19.3866 33.9529 20.0588 33.9529H22.0824C22.7546 33.9529 23.2992 34.4975 23.2992 35.1697C23.2992 35.842 22.7546 36.3866 22.0824 36.3866ZM33.4908 24.4807C33.4908 26.0202 32.2403 27.2706 30.7008 27.2706H29.0269V19.7681H30.7008C32.2403 19.7681 33.4908 21.0185 33.4908 22.558V24.4807Z" fill="currentColor"/>
</svg>
