<svg width="40" height="40" viewBox="0 0 40 40" fill="none" xmlns="http://www.w3.org/2000/svg">
<path d="M8.72764 29.1213C8.40606 29.1213 8.09766 29.249 7.87027 29.4764C7.64288 29.7038 7.51514 30.0122 7.51514 30.3338C7.51514 30.6554 7.64288 30.9638 7.87027 31.1911C8.09766 31.4185 8.40606 31.5463 8.72764 31.5463C9.04921 31.5463 9.35762 31.4185 9.585 31.1911C9.81239 30.9638 9.94014 30.6554 9.94014 30.3338C9.94014 30.0122 9.81239 29.7038 9.585 29.4764C9.35762 29.249 9.04921 29.1213 8.72764 29.1213Z" fill="#2C742F"/>
<path d="M33.7774 29.1213C33.4559 29.1213 33.1475 29.249 32.9201 29.4764C32.6927 29.7038 32.5649 30.0122 32.5649 30.3338C32.5649 30.6554 32.6927 30.9638 32.9201 31.1911C33.1475 31.4185 33.4559 31.5463 33.7774 31.5463C34.099 31.5463 34.4074 31.4185 34.6348 31.1911C34.8622 30.9638 34.9899 30.6554 34.9899 30.3338C34.9899 30.0122 34.8622 29.7038 34.6348 29.4764C34.4074 29.249 34.099 29.1213 33.7774 29.1213Z" fill="#2C742F"/>
<path d="M38.315 19.955L34.225 18.5925L31.6562 11.9137C31.4757 11.45 31.1597 11.0514 30.7495 10.7696C30.3394 10.4878 29.8539 10.3359 29.3563 10.3337H18.7675L18.755 10.1875C18.7301 9.88488 18.5919 9.60282 18.368 9.39772C18.1442 9.19262 17.8511 9.07959 17.5475 9.08124H15.575V8.41249C15.574 7.75915 15.3139 7.13287 14.8518 6.67101C14.3897 6.20914 13.7633 5.9494 13.11 5.94874C12.4569 5.94973 11.8308 6.20962 11.369 6.67145C10.9071 7.13328 10.6472 7.75937 10.6462 8.41249V9.07999H8.675C8.37138 9.07834 8.07833 9.19137 7.85445 9.39647C7.63057 9.60157 7.49238 9.88363 7.4675 10.1862L7.455 10.3325H1.2125C0.890925 10.3325 0.582521 10.4602 0.355133 10.6876C0.127745 10.915 0 11.2234 0 11.545L0 28.4537C0 29.1212 0.54375 29.6662 1.2125 29.6662H5.07125C4.97434 30.2019 4.99612 30.7522 5.13505 31.2785C5.27398 31.8048 5.52667 32.2942 5.87531 32.7122C6.22395 33.1302 6.66005 33.4667 7.15286 33.6978C7.64567 33.929 8.18318 34.0492 8.7275 34.05C9.27195 34.0492 9.80959 33.929 10.3025 33.6978C10.7954 33.4665 11.2316 33.13 11.5802 32.7118C11.9289 32.2937 12.1816 31.8041 12.3204 31.2776C12.4592 30.7512 12.4809 30.2007 12.3837 29.665H30.1213C30.0243 30.2006 30.0461 30.751 30.185 31.2773C30.324 31.8036 30.5767 32.293 30.9253 32.711C31.274 33.129 31.7101 33.4654 32.2029 33.6966C32.6957 33.9277 33.2332 34.0479 33.7775 34.0487C34.3369 34.0479 34.8889 33.9209 35.3924 33.6773C35.8959 33.4337 36.3381 33.0797 36.6859 32.6416C37.0338 32.2035 37.2784 31.6927 37.4016 31.147C37.5248 30.6014 37.5234 30.035 37.3975 29.49L38.6375 28.87C39.0476 28.6667 39.3926 28.3526 39.6334 27.9634C39.8742 27.5741 40.0012 27.1252 40 26.6675V22.2925C40.0002 21.7753 39.8375 21.2711 39.5351 20.8515C39.2326 20.432 38.8058 20.1183 38.315 19.955ZM31.2075 14.01L32.925 18.475H31.0687L29.5813 14.01H31.2062H31.2075ZM29.8325 18.475H25.01C24.8334 18.4747 24.6641 18.4044 24.5393 18.2795C24.4144 18.1546 24.3441 17.9853 24.3438 17.8087V14.01H28.345L29.8325 18.475ZM11.82 8.41249C11.82 7.69999 12.4 7.11999 13.1125 7.11999C13.825 7.11999 14.405 7.69999 14.405 8.41249V9.07999H11.8188V8.41249H11.82ZM7.49125 23.4412L8.635 10.29C8.63564 10.2798 8.64013 10.2703 8.64756 10.2633C8.655 10.2563 8.66481 10.2525 8.675 10.2525H10.6462V11.545C10.6462 11.7005 10.708 11.8496 10.818 11.9595C10.9279 12.0695 11.077 12.1312 11.2325 12.1312C11.388 12.1312 11.5371 12.0695 11.647 11.9595C11.757 11.8496 11.8187 11.7005 11.8188 11.545V10.2525H14.4037V11.545C14.4037 11.7005 14.4655 11.8496 14.5755 11.9595C14.6854 12.0695 14.8345 12.1312 14.99 12.1312C15.1455 12.1312 15.2946 12.0695 15.4045 11.9595C15.5145 11.8496 15.5763 11.7005 15.5763 11.545V10.2525H17.5475C17.5688 10.2525 17.585 10.2687 17.5875 10.29L18.7312 23.44C18.7312 23.4462 18.7312 23.4587 18.72 23.4712C18.7075 23.4837 18.695 23.4837 18.69 23.4837H7.5325C7.5275 23.4837 7.515 23.4837 7.5025 23.4712C7.49875 23.4673 7.49591 23.4625 7.49418 23.4573C7.49246 23.4522 7.49188 23.4467 7.4925 23.4412H7.49125ZM8.7275 32.8787C8.05261 32.8781 7.40554 32.6098 6.9282 32.1327C6.45087 31.6556 6.18224 31.0086 6.18125 30.3337C6.18125 28.93 7.32375 27.7875 8.7275 27.7875C10.1312 27.7875 11.2725 28.93 11.2725 30.3337C11.2715 31.0084 11.0031 31.6552 10.526 32.1322C10.0489 32.6093 9.40217 32.8777 8.7275 32.8787ZM33.7775 32.8787C33.1028 32.8777 32.4561 32.6093 31.979 32.1322C31.5019 31.6552 31.2335 31.0084 31.2325 30.3337C31.2325 28.93 32.3737 27.7875 33.7775 27.7875C35.1812 27.7875 36.3237 28.93 36.3237 30.3337C36.3228 31.0086 36.0541 31.6556 35.5768 32.1327C35.0995 32.6098 34.4524 32.8781 33.7775 32.8787ZM38.8275 23.485H38.1612C38.0821 23.4813 38.003 23.4938 37.9287 23.5215C37.8545 23.5493 37.7867 23.5919 37.7293 23.6466C37.672 23.7014 37.6264 23.7671 37.5952 23.84C37.564 23.9129 37.5479 23.9913 37.5479 24.0706C37.5479 24.1499 37.564 24.2283 37.5952 24.3012C37.6264 24.3741 37.672 24.4399 37.7293 24.4946C37.7867 24.5494 37.8545 24.5919 37.9287 24.6197C38.003 24.6475 38.0821 24.6599 38.1612 24.6562H38.8288V26.6662C38.8288 27.16 38.5537 27.6037 38.1138 27.8237L36.9538 28.4037C36.6224 27.8584 36.1562 27.4075 35.6002 27.0945C35.0441 26.7814 34.4169 26.6167 33.7788 26.6162C32.3963 26.6162 31.19 27.3737 30.5487 28.495H11.9562C11.6316 27.9248 11.162 27.4507 10.5949 27.1208C10.0278 26.7908 9.38357 26.6167 8.7275 26.6162C7.34625 26.6162 6.14 27.3737 5.49875 28.495H1.21125C1.20086 28.4947 1.191 28.4903 1.18377 28.4828C1.17654 28.4754 1.1725 28.4654 1.1725 28.455V24.6562H4.34375C4.42293 24.6599 4.50203 24.6475 4.57627 24.6197C4.65051 24.5919 4.71834 24.5494 4.77567 24.4946C4.833 24.4399 4.87863 24.3741 4.90981 24.3012C4.94099 24.2283 4.95706 24.1499 4.95706 24.0706C4.95706 23.9913 4.94099 23.9129 4.90981 23.84C4.87863 23.7671 4.833 23.7014 4.77567 23.6466C4.71834 23.5919 4.65051 23.5493 4.57627 23.5215C4.50203 23.4938 4.42293 23.4813 4.34375 23.485H1.17125V11.545C1.17125 11.5237 1.19 11.505 1.2125 11.505H7.3525L6.32375 23.34C6.30976 23.5072 6.33057 23.6755 6.38487 23.8343C6.43916 23.9931 6.52575 24.1389 6.6392 24.2626C6.75264 24.3863 6.89047 24.4851 7.044 24.5528C7.19754 24.6206 7.36344 24.6558 7.53125 24.6562H18.69C18.8579 24.6558 19.0238 24.6206 19.1774 24.5528C19.331 24.4851 19.4689 24.3863 19.5824 24.2627C19.696 24.139 19.7827 23.9932 19.8371 23.8344C19.8916 23.6756 19.9126 23.5073 19.8988 23.34L18.8687 11.505H29.3563C29.8875 11.505 30.3725 11.8387 30.5625 12.3337L30.7562 12.8387H23.7575C23.6022 12.8387 23.4533 12.9003 23.3434 13.01C23.2335 13.1197 23.1716 13.2685 23.1713 13.4237V17.8075C23.1713 18.8212 23.9963 19.6462 25.01 19.6462H33.6825L37.945 21.0675C38.4725 21.2425 38.8288 21.7362 38.8288 22.2925V23.485H38.8275Z" fill="#2C742F"/>
<path d="M35.6564 23.4849H21.8789C21.7998 23.4813 21.7207 23.4937 21.6464 23.5215C21.5722 23.5493 21.5043 23.5918 21.447 23.6465C21.3897 23.7013 21.3441 23.7671 21.3129 23.84C21.2817 23.9128 21.2656 23.9913 21.2656 24.0705C21.2656 24.1498 21.2817 24.2283 21.3129 24.3011C21.3441 24.374 21.3897 24.4398 21.447 24.4945C21.5043 24.5493 21.5722 24.5918 21.6464 24.6196C21.7207 24.6474 21.7998 24.6598 21.8789 24.6562H35.6564C35.8071 24.6492 35.9492 24.5845 36.0534 24.4754C36.1575 24.3663 36.2156 24.2213 36.2156 24.0705C36.2156 23.9197 36.1575 23.7747 36.0534 23.6657C35.9492 23.5566 35.8071 23.4919 35.6564 23.4849Z" fill="#2C742F"/>
</svg>
