<svg width="28" height="29" viewBox="0 0 28 29" fill="none" xmlns="http://www.w3.org/2000/svg">
<path d="M25.4247 22.0656C25.0163 23.0167 24.512 23.9236 23.9197 24.7723C23.1275 25.9011 22.4794 26.6821 21.9801 27.1161C21.206 27.8278 20.3759 28.193 19.4875 28.2134C18.8499 28.2134 18.0811 28.032 17.1857 27.6639C16.2873 27.2976 15.4619 27.1156 14.7071 27.1156C13.9155 27.1156 13.0667 27.2976 12.1585 27.6639C11.2491 28.032 10.5164 28.2239 9.9564 28.2426C9.10473 28.2793 8.2554 27.9042 7.40723 27.1161C6.86648 26.6436 6.1904 25.8351 5.37957 24.6895C4.50982 23.4656 3.79465 22.047 3.23465 20.4288C2.63498 18.6817 2.33398 16.9895 2.33398 15.3515C2.33398 13.4749 2.7394 11.8567 3.5514 10.5005C4.19015 9.41081 5.0389 8.55215 6.10173 7.92098C7.14443 7.29701 8.33417 6.96123 9.54923 6.94798C10.2259 6.94798 11.1132 7.1574 12.2162 7.56865C13.3158 7.98106 14.0217 8.19048 14.3314 8.19048C14.5624 8.19048 15.347 7.94548 16.6764 7.45781C17.9341 7.00515 18.9952 6.8179 19.8643 6.89198C22.2204 7.08215 23.9902 8.01081 25.1668 9.68381C23.0604 10.9601 22.018 12.7481 22.039 15.0417C22.0577 16.8285 22.7057 18.3154 23.9797 19.4955C24.5572 20.0438 25.2018 20.4673 25.9187 20.7677C25.7684 21.2057 25.6036 21.6386 25.4247 22.0656ZM20.0218 0.805479C20.0218 2.20548 19.5102 3.51331 18.4906 4.72315C17.2597 6.16223 15.7717 6.99348 14.1576 6.86223C14.1359 6.68612 14.125 6.50884 14.1249 6.3314C14.1249 4.9874 14.71 3.5489 15.7495 2.37231C16.2687 1.77673 16.9278 1.28148 17.7282 0.886563C18.5273 0.497479 19.2822 0.282229 19.9927 0.244896C20.0131 0.432146 20.0218 0.619396 20.0218 0.804896V0.805479Z" fill="white"/>
</svg>
