<svg width="40" height="40" viewBox="0 0 40 40" fill="none" xmlns="http://www.w3.org/2000/svg">
<path d="M34.447 11.5441C34.447 11.4225 34.42 11.301 34.366 11.1862C34.2579 10.9565 34.0485 10.8012 33.8189 10.7539L20.0612 4.08105C19.8383 3.97298 19.5749 3.97298 19.352 4.08105L5.45927 10.8147C5.18911 10.943 5.01351 11.2132 5 11.5171V11.5239C5 11.5306 5 11.5374 5 11.5509V28.4491C5 28.7598 5.1756 29.0435 5.45927 29.1786L19.352 35.9122C19.3588 35.9122 19.3588 35.9122 19.3656 35.919C19.3858 35.9257 19.4061 35.9325 19.4263 35.946C19.4331 35.946 19.4398 35.9527 19.4534 35.9527C19.4736 35.9595 19.4939 35.9662 19.5141 35.973C19.5209 35.973 19.5276 35.9797 19.5344 35.9797C19.5547 35.9865 19.5817 35.9865 19.6019 35.9932C19.6087 35.9932 19.6154 35.9932 19.6222 35.9932C19.6492 35.9932 19.683 36 19.71 36C19.737 36 19.7708 36 19.7978 35.9932C19.8046 35.9932 19.8113 35.9932 19.8181 35.9932C19.8383 35.9932 19.8653 35.9865 19.8856 35.9797C19.8924 35.9797 19.8991 35.973 19.9059 35.973C19.9261 35.9662 19.9464 35.9595 19.9667 35.9527C19.9734 35.9527 19.9802 35.946 19.9937 35.946C20.0139 35.9392 20.0342 35.9325 20.0545 35.919C20.0612 35.919 20.0612 35.919 20.068 35.9122L34.0013 29.1583C34.2782 29.0232 34.4605 28.7396 34.4605 28.4289V11.5644C34.447 11.5576 34.447 11.5509 34.447 11.5441ZM19.7032 5.70874L31.7522 11.5509L27.3149 13.7054L15.2659 7.86323L19.7032 5.70874ZM19.7032 17.393L7.65428 11.5509L13.4086 8.7615L25.4576 14.6036L19.7032 17.393ZM6.62094 12.8544L18.8928 18.8046V33.886L6.62094 27.9358V12.8544ZM20.5137 33.886V18.8046L26.2748 16.0084V19.9527C26.2748 20.3985 26.6395 20.7632 27.0853 20.7632C27.531 20.7632 27.8957 20.3985 27.8957 19.9527V15.2182L32.8261 12.8274V27.9088L20.5137 33.886Z" fill="currentColor"/>
</svg>
