<svg width="45" height="32" viewBox="0 0 45 32" fill="none" xmlns="http://www.w3.org/2000/svg">
<path fill-rule="evenodd" clip-rule="evenodd" d="M28.6165 24.7348C33.5729 24.7348 37.5909 20.7646 37.5909 15.8672C37.5909 10.9697 33.5729 6.99951 28.6165 6.99951C26.3952 6.99951 24.3625 7.79689 22.7954 9.11775C21.2283 7.79698 19.1956 6.99967 16.9744 6.99967C12.018 6.99967 8 10.9699 8 15.8673C8 20.7648 12.018 24.735 16.9744 24.735C19.1957 24.735 21.2285 23.9376 22.7956 22.6167C24.3626 23.9375 26.3953 24.7348 28.6165 24.7348Z" fill="#ED0006"/>
<path fill-rule="evenodd" clip-rule="evenodd" d="M22.7954 22.6163C24.7249 20.9898 25.9484 18.5696 25.9484 15.8672C25.9484 13.1647 24.7249 10.7445 22.7954 9.11804C24.3626 7.797 26.3955 6.99951 28.6169 6.99951C33.5733 6.99951 37.5913 10.9697 37.5913 15.8672C37.5913 20.7646 33.5733 24.7348 28.6169 24.7348C26.3955 24.7348 24.3626 23.9373 22.7954 22.6163Z" fill="#F9A000"/>
<path fill-rule="evenodd" clip-rule="evenodd" d="M22.7949 22.6169C24.7246 20.9904 25.9482 18.5702 25.9482 15.8675C25.9482 13.1649 24.7246 10.7447 22.7949 9.11816C20.8652 10.7447 19.6416 13.1649 19.6416 15.8675C19.6416 18.5702 20.8652 20.9904 22.7949 22.6169Z" fill="#FF5E00"/>
</svg>
