<svg width="45" height="32" viewBox="0 0 45 32" fill="none" xmlns="http://www.w3.org/2000/svg">
<path fill-rule="evenodd" clip-rule="evenodd" d="M11.8888 10.7777C11.511 11.2435 10.9067 11.6108 10.3024 11.5583C10.2268 10.9286 10.5227 10.2595 10.8689 9.84622C11.2466 9.36735 11.9076 9.02624 12.4427 9C12.5057 9.65598 12.2602 10.2988 11.8888 10.7777ZM12.4363 11.6828C11.9039 11.6509 11.4181 11.8496 11.0257 12.0102C10.7732 12.1135 10.5593 12.201 10.3966 12.201C10.2141 12.201 9.99142 12.1088 9.74142 12.0053C9.41384 11.8697 9.03932 11.7147 8.64658 11.7221C7.74637 11.7353 6.90911 12.2666 6.44956 13.1128C5.50528 14.8052 6.20405 17.3111 7.11685 18.6887C7.56381 19.3709 8.0989 20.1187 8.80396 20.0925C9.11415 20.0803 9.33728 19.9816 9.56819 19.8795C9.83404 19.7619 10.1102 19.6398 10.5414 19.6398C10.9577 19.6398 11.2218 19.7588 11.4753 19.8729C11.7164 19.9815 11.9479 20.0857 12.2915 20.0793C13.0217 20.0662 13.4813 19.3971 13.9282 18.7149C14.4106 17.9827 14.6226 17.2681 14.6547 17.1596L14.6585 17.1471C14.6585 17.1471 14.6518 17.1435 14.6412 17.1384C14.48 17.0615 13.2476 16.4736 13.2358 14.8971C13.2239 13.5738 14.2133 12.9034 14.369 12.7978C14.3785 12.7914 14.3849 12.7871 14.3878 12.7848C13.7583 11.814 12.7762 11.709 12.4363 11.6828ZM17.4917 20.0074V9.78068H21.1744C23.0755 9.78068 24.4038 11.1451 24.4038 13.1393C24.4038 15.1335 23.0504 16.511 21.124 16.511H19.0151V20.0074H17.4917ZM19.0149 11.1191H20.7713C22.0933 11.1191 22.8487 11.8538 22.8487 13.146C22.8487 14.4383 22.0933 15.1796 20.765 15.1796H19.0149V11.1191ZM29.4336 18.7806C29.0307 19.5809 28.1431 20.086 27.1862 20.086C25.7698 20.086 24.7815 19.207 24.7815 17.8819C24.7815 16.57 25.7383 15.8156 27.5073 15.7041L29.4084 15.586V15.0219C29.4084 14.1888 28.8859 13.7361 27.9542 13.7361C27.1862 13.7361 26.6259 14.1494 26.5126 14.7791H25.1403C25.1843 13.4541 26.3804 12.4898 27.9983 12.4898C29.7421 12.4898 30.8752 13.4409 30.8752 14.9169V20.0073H29.4651V18.7806H29.4336ZM27.5948 18.8727C26.7827 18.8727 26.2665 18.466 26.2665 17.8429C26.2665 17.2 26.7639 16.8261 27.7144 16.767L29.4078 16.6555V17.2328C29.4078 18.1905 28.6272 18.8727 27.5948 18.8727ZM35.5525 20.4073C34.9419 22.1981 34.2431 22.7885 32.7575 22.7885C32.6442 22.7885 32.2664 22.7754 32.1783 22.7491V21.5225C32.2727 21.5356 32.5057 21.5487 32.6253 21.5487C33.2989 21.5487 33.6766 21.2535 33.9095 20.486L34.048 20.0334L31.467 12.588H33.0596L34.8538 18.6296H34.8852L36.6794 12.588H38.228L35.5525 20.4073Z" fill="white"/>
</svg>
