<svg width="25" height="24" viewBox="0 0 25 24" fill="none" xmlns="http://www.w3.org/2000/svg">
<path d="M13.9874 22H10.3474C10.1193 22 9.89807 21.9221 9.72037 21.7792C9.54267 21.6362 9.41917 21.4368 9.37036 21.214L8.96336 19.33C8.42042 19.0921 7.9056 18.7946 7.42836 18.443L5.59136 19.028C5.37393 19.0973 5.13931 19.0902 4.92648 19.0078C4.71366 18.9254 4.53542 18.7727 4.42137 18.575L2.59736 15.424C2.48451 15.2261 2.44215 14.9958 2.47721 14.7708C2.51227 14.5457 2.62267 14.3392 2.79036 14.185L4.21536 12.885C4.15056 12.2961 4.15056 11.7019 4.21536 11.113L2.79036 9.816C2.62244 9.66177 2.51188 9.45507 2.47681 9.22978C2.44175 9.00449 2.48425 8.77397 2.59736 8.576L4.41736 5.423C4.53142 5.22532 4.70966 5.07259 4.92249 4.99019C5.13531 4.90778 5.36993 4.90066 5.58736 4.97L7.42436 5.555C7.66836 5.375 7.92236 5.207 8.18536 5.055C8.43736 4.913 8.69736 4.784 8.96336 4.669L9.37137 2.787C9.41994 2.5642 9.5432 2.36469 9.72071 2.22155C9.89823 2.07841 10.1193 2.00024 10.3474 2H13.9874C14.2154 2.00024 14.4365 2.07841 14.614 2.22155C14.7915 2.36469 14.9148 2.5642 14.9634 2.787L15.3754 4.67C15.918 4.9079 16.4325 5.20539 16.9094 5.557L18.7474 4.972C18.9647 4.90292 19.1991 4.91017 19.4117 4.99256C19.6243 5.07495 19.8024 5.22753 19.9164 5.425L21.7364 8.578C21.9694 8.985 21.8884 9.5 21.5434 9.817L20.1184 11.117C20.1832 11.7059 20.1832 12.3001 20.1184 12.889L21.5434 14.189C21.8884 14.507 21.9684 15.021 21.7364 15.428L19.9164 18.581C19.8024 18.7785 19.6243 18.931 19.4117 19.0134C19.1991 19.0958 18.9647 19.1031 18.7474 19.034L16.9094 18.449C16.4326 18.8004 15.918 19.0976 15.3754 19.335L14.9634 21.214C14.9146 21.4366 14.7912 21.6359 14.6138 21.7788C14.4363 21.9218 14.2153 21.9998 13.9874 22ZM7.78736 16.229L8.60736 16.829C8.79236 16.965 8.98536 17.09 9.18436 17.204C9.37236 17.313 9.56536 17.411 9.76336 17.5L10.6964 17.909L11.1534 20H13.1834L13.6404 17.908L14.5734 17.499C14.9804 17.319 15.3674 17.096 15.7264 16.833L16.5474 16.233L18.5884 16.883L19.6034 15.125L18.0204 13.682L18.1324 12.67C18.1824 12.227 18.1824 11.78 18.1324 11.338L18.0204 10.326L19.6044 8.88L18.5884 7.121L16.5474 7.771L15.7264 7.171C15.3672 6.90669 14.9806 6.68173 14.5734 6.5L13.6404 6.091L13.1834 4H11.1534L10.6944 6.092L9.76336 6.5C9.35555 6.67861 8.96884 6.90198 8.61036 7.166L7.78936 7.766L5.74936 7.116L4.73236 8.88L6.31536 10.321L6.20336 11.334C6.15336 11.777 6.15336 12.224 6.20336 12.666L6.31536 13.678L4.73236 15.121L5.74736 16.879L7.78736 16.229ZM12.1634 16C11.1025 16 10.0851 15.5786 9.33494 14.8284C8.58479 14.0783 8.16336 13.0609 8.16336 12C8.16336 10.9391 8.58479 9.92172 9.33494 9.17157C10.0851 8.42143 11.1025 8 12.1634 8C13.2242 8 14.2416 8.42143 14.9918 9.17157C15.7419 9.92172 16.1634 10.9391 16.1634 12C16.1634 13.0609 15.7419 14.0783 14.9918 14.8284C14.2416 15.5786 13.2242 16 12.1634 16ZM12.1634 10C11.7717 10.0004 11.3888 10.1158 11.0621 10.3318C10.7355 10.5479 10.4794 10.855 10.3258 11.2153C10.1721 11.5755 10.1276 11.9729 10.1977 12.3583C10.2679 12.7436 10.4496 13.0998 10.7204 13.3828C10.9912 13.6657 11.3391 13.863 11.7209 13.95C12.1028 14.037 12.5018 14.01 12.8684 13.8724C13.2351 13.7347 13.5532 13.4924 13.7834 13.1756C14.0136 12.8587 14.1457 12.4812 14.1634 12.09V12.49V12C14.1634 11.4696 13.9527 10.9609 13.5776 10.5858C13.2025 10.2107 12.6938 10 12.1634 10Z" fill="#CCCCCC"/>
</svg>
