<svg width="45" height="44" viewBox="0 0 45 44" fill="none" xmlns="http://www.w3.org/2000/svg">
<path d="M34.3076 32.8034C34.2551 32.3936 34.1082 32.0016 33.8784 31.6582C33.6486 31.3149 33.3423 31.0296 32.9835 30.8248L24.7293 26.0714C24.2164 25.7766 23.6207 25.6589 23.0342 25.7365C22.4477 25.814 21.9031 26.0825 21.4843 26.5004L19.349 28.6371C19.146 28.8398 18.875 28.96 18.5885 28.9745C18.302 28.9889 18.0204 28.8967 17.798 28.7155C16.5105 27.6735 15.2791 26.5642 14.1088 25.3921C12.9368 24.2218 11.8275 22.9904 10.7855 21.703C10.6043 21.4806 10.512 21.1989 10.5265 20.9124C10.541 20.626 10.6612 20.355 10.8638 20.152L13.0006 18.0153C13.4182 17.5966 13.6865 17.0522 13.764 16.466C13.8415 15.8798 13.724 15.2844 13.4296 14.7716L8.67485 6.51475C8.46995 6.15603 8.18461 5.84973 7.84127 5.61997C7.49794 5.39021 7.10598 5.24324 6.69622 5.19063C6.28704 5.13492 5.8705 5.17497 5.47943 5.30764C5.08836 5.4403 4.73343 5.66195 4.4426 5.95513L1.99235 8.40675C-1.50565 11.9048 2.14497 21.0361 10.3042 29.1954C16.368 35.2591 22.968 38.8341 27.3955 38.8328C28.9245 38.8328 30.195 38.4065 31.0942 37.5073L33.5431 35.057C33.8364 34.766 34.0581 34.4108 34.1908 34.0195C34.3234 33.6282 34.3634 33.2114 34.3076 32.802V32.8034ZM32.6315 34.1454L32.3056 34.4726L25.2353 30.4384C25.0876 30.3632 24.9166 30.3477 24.7578 30.3953C24.599 30.4428 24.4646 30.5497 24.3825 30.6937C24.3004 30.8377 24.2769 31.0078 24.3169 31.1687C24.3569 31.3296 24.4574 31.4688 24.5973 31.5576L31.361 35.4173L30.1812 36.5956C28.8543 37.9239 26.1153 37.8593 22.6696 36.4169C18.9901 34.8796 14.9228 31.9894 11.2158 28.2838C7.50885 24.5768 4.61997 20.5095 3.08272 16.83C1.64035 13.3843 1.57435 10.6453 2.90397 9.31838L4.1621 8.05888L4.60897 8.83575C4.65122 8.90916 4.70752 8.97352 4.77465 9.02516C4.84177 9.0768 4.91841 9.11472 5.00019 9.13674C5.08197 9.15877 5.16729 9.16447 5.25127 9.15352C5.33525 9.14258 5.41626 9.11519 5.48966 9.07294C5.56306 9.03069 5.62742 8.97439 5.67906 8.90727C5.73071 8.84014 5.76862 8.7635 5.79065 8.68172C5.81267 8.59994 5.81838 8.51463 5.80743 8.43064C5.79648 8.34666 5.7691 8.26566 5.72685 8.19225L5.10672 7.11563L5.35422 6.86813C5.50552 6.71542 5.69021 6.59992 5.89373 6.53073C6.09726 6.46154 6.31407 6.44053 6.5271 6.46938C6.96297 6.52713 7.33835 6.77875 7.55835 7.15963L12.3117 15.4151C12.6266 15.9638 12.5345 16.6568 12.0876 17.1036L11.3066 17.8846L7.1046 10.5848C7.01926 10.4365 6.87854 10.3282 6.71338 10.2838C6.54821 10.2393 6.37215 10.2622 6.22391 10.3476C6.07567 10.4329 5.9674 10.5736 5.92292 10.7388C5.87844 10.9039 5.90139 11.08 5.98672 11.2283L10.3633 18.8293L9.95085 19.2418C9.52297 19.6694 9.26873 20.2404 9.23724 20.8446C9.20575 21.4487 9.39924 22.0431 9.78035 22.5129C10.8512 23.8359 11.9913 25.1013 13.1958 26.3038C14.3988 27.5084 15.6646 28.6485 16.9881 29.7193C17.4581 30.1005 18.0527 30.294 18.6571 30.2625C19.2615 30.231 19.8327 29.9767 20.2606 29.5488L20.5576 29.2518L22.1485 30.1593C22.2219 30.2017 22.3029 30.2292 22.387 30.2401C22.4711 30.251 22.5565 30.2452 22.6383 30.223C22.7201 30.2007 22.7967 30.1625 22.8637 30.1105C22.9307 30.0585 22.9867 29.9938 23.0285 29.92C23.0705 29.8464 23.0976 29.7653 23.1082 29.6813C23.1189 29.5972 23.1128 29.5119 23.0905 29.4301C23.0682 29.3484 23.0299 29.2719 22.978 29.205C22.9261 29.138 22.8614 29.082 22.7878 29.04L21.5022 28.3071L22.396 27.4134C22.6138 27.1959 22.8972 27.0561 23.2023 27.0156C23.5074 26.9751 23.8174 27.0361 24.0845 27.1893L32.3413 31.9426C32.7222 32.1626 32.9738 32.5366 33.0302 32.9725C33.0591 33.1855 33.0381 33.4023 32.9689 33.6059C32.8997 33.8094 32.7842 33.9941 32.6315 34.1454Z" fill="#1A1A1A"/>
<path d="M21.2851 21.7044H16.4561C16.6816 19.8206 17.8875 18.5419 19.1566 17.1957C20.5206 15.752 21.93 14.2574 21.93 12.0134C21.9289 11.1119 21.5703 10.2476 20.9328 9.61014C20.2954 8.97268 19.4311 8.61408 18.5296 8.61298C17.6279 8.61371 16.7633 8.97215 16.1255 9.60965C15.4878 10.2471 15.129 11.1116 15.1279 12.0134C15.1279 12.1844 15.1958 12.3484 15.3167 12.4694C15.4377 12.5903 15.6017 12.6582 15.7727 12.6582C15.9438 12.6582 16.1078 12.5903 16.2287 12.4694C16.3497 12.3484 16.4176 12.1844 16.4176 12.0134C16.4176 10.8487 17.365 9.90273 18.5296 9.90273C19.6929 9.90273 20.6402 10.8487 20.6402 12.0134C20.6402 13.7459 19.5182 14.9339 18.2202 16.3116C16.771 17.8475 15.1279 19.5882 15.1279 22.3479C15.1279 22.7054 15.4166 22.9941 15.7741 22.9941H21.2851C21.4561 22.9941 21.6202 22.9262 21.7411 22.8052C21.8621 22.6843 21.93 22.5203 21.93 22.3492C21.93 22.1782 21.8621 22.0142 21.7411 21.8932C21.6202 21.7723 21.4561 21.7044 21.2851 21.7044Z" fill="#1A1A1A"/>
<path d="M29.5529 18.26H28.82V9.2565C28.82 9.08547 28.7521 8.92144 28.6311 8.8005C28.5102 8.67956 28.3462 8.61162 28.1751 8.61162C28.0041 8.61162 27.8401 8.67956 27.7191 8.8005C27.5982 8.92144 27.5303 9.08547 27.5303 9.2565V18.2572H24.0969L25.3701 9.34725C25.3821 9.26337 25.3775 9.17796 25.3565 9.09587C25.3355 9.01379 25.2985 8.93664 25.2477 8.86885C25.1969 8.80105 25.1332 8.74392 25.0603 8.70073C24.9874 8.65754 24.9068 8.62913 24.8229 8.61712C24.739 8.60512 24.6536 8.60974 24.5715 8.63075C24.4894 8.65175 24.4123 8.68872 24.3445 8.73953C24.2767 8.79035 24.2196 8.85402 24.1764 8.92692C24.1332 8.99981 24.1048 9.0805 24.0928 9.16437L22.715 18.8114C22.7023 18.9027 22.7092 18.9958 22.7354 19.0842C22.7616 19.1727 22.8064 19.2545 22.8668 19.3242C22.9273 19.3939 23.0019 19.4498 23.0858 19.4882C23.1697 19.5267 23.2608 19.5467 23.353 19.547H27.5316V22.3465C27.5316 22.4312 27.5483 22.515 27.5807 22.5933C27.6131 22.6715 27.6606 22.7426 27.7205 22.8025C27.7804 22.8624 27.8515 22.9099 27.9297 22.9423C28.008 22.9747 28.0918 22.9914 28.1765 22.9914C28.2612 22.9914 28.3451 22.9747 28.4233 22.9423C28.5015 22.9099 28.5726 22.8624 28.6325 22.8025C28.6924 22.7426 28.7399 22.6715 28.7723 22.5933C28.8047 22.515 28.8214 22.4312 28.8214 22.3465V19.547H29.5543C29.7253 19.547 29.8893 19.4791 30.0103 19.3581C30.1312 19.2372 30.1991 19.0732 30.1991 18.9021C30.1991 18.7311 30.1312 18.5671 30.0103 18.4461C29.8893 18.3252 29.7253 18.2572 29.5543 18.2572L29.5529 18.26Z" fill="#1A1A1A"/>
<path d="M44.5433 8.87698C44.4834 8.79507 44.4049 8.72847 44.3144 8.68259C44.2238 8.63672 44.1237 8.61287 44.0222 8.61298H39.1987C39.0277 8.61298 38.8636 8.68093 38.7427 8.80186C38.6218 8.9228 38.5538 9.08683 38.5538 9.25786C38.5538 9.42889 38.6218 9.59292 38.7427 9.71385C38.8636 9.83479 39.0277 9.90273 39.1987 9.90273H43.1422L39.2743 22.154C39.2274 22.3156 39.2456 22.4892 39.325 22.6377C39.4043 22.7861 39.5386 22.8976 39.6991 22.9484C39.8595 22.9992 40.0335 22.9853 40.1838 22.9095C40.3341 22.8338 40.4489 22.7023 40.5036 22.5431L44.6368 9.45173C44.6671 9.35519 44.6743 9.25289 44.6578 9.15306C44.6414 9.05324 44.6017 8.95867 44.542 8.87698H44.5433Z" fill="#1A1A1A"/>
<path d="M36.6161 6.56975C36.4517 6.52408 36.2758 6.54547 36.1271 6.62924C35.9784 6.713 35.8689 6.85231 35.8227 7.01663L30.9992 24.2412C30.9573 24.4045 30.9811 24.5777 31.0653 24.7238C31.1495 24.8698 31.2876 24.977 31.4499 25.0225C31.6122 25.068 31.7859 25.0481 31.9337 24.9671C32.0816 24.8861 32.1918 24.7504 32.2409 24.5891L37.063 7.3645C37.0858 7.28288 37.0923 7.19757 37.0821 7.11345C37.0719 7.02932 37.0452 6.94803 37.0036 6.87422C36.9619 6.80041 36.9062 6.73553 36.8395 6.68329C36.7727 6.63105 36.6964 6.59246 36.6147 6.56975H36.6161Z" fill="#1A1A1A"/>
</svg>
