<svg width="22" height="22" viewBox="0 0 22 22" fill="none" xmlns="http://www.w3.org/2000/svg">
<path fill-rule="evenodd" clip-rule="evenodd" d="M4.75 3.5C2.95507 3.5 1.5 4.95507 1.5 6.75C1.5 8.54493 2.95507 10 4.75 10C6.54493 10 8 8.54493 8 6.75C8 4.95507 6.54493 3.5 4.75 3.5ZM4.75 2C7.11815 2 9.08154 3.73301 9.44112 6H17.75C18.1642 6 18.5 6.33579 18.5 6.75C18.5 7.16421 18.1642 7.5 17.75 7.5H9.44112C9.08154 9.76699 7.11815 11.5 4.75 11.5C2.12665 11.5 0 9.37335 0 6.75C0 4.12665 2.12665 2 4.75 2ZM3.75 15C3.33579 15 3 15.3358 3 15.75C3 16.1642 3.33579 16.5 3.75 16.5H12.0589C12.4185 18.767 14.3818 20.5 16.75 20.5C19.3734 20.5 21.5 18.3734 21.5 15.75C21.5 13.1266 19.3734 11 16.75 11C14.3818 11 12.4185 12.733 12.0589 15H3.75ZM13.5 15.75C13.5 17.5449 14.9551 19 16.75 19C18.5449 19 20 17.5449 20 15.75C20 13.9551 18.5449 12.5 16.75 12.5C14.9551 12.5 13.5 13.9551 13.5 15.75Z" fill="currentColor"/>
</svg>
